<mxfile host="app.diagrams.net" modified="2021-12-30T12:59:40.860Z" agent="5.0 (Macintosh; Intel Mac OS X 10_15_7) AppleWebKit/537.36 (KHTML, like Gecko) Chrome/96.0.4664.110 Safari/537.36" etag="FhykaQ9pP6Em4n-bhkSf" version="14.8.0" type="github">
  <diagram id="o8P9a242oqF1UFGpeXge" name="Page-1">
    <mxGraphModel dx="3637" dy="4064" grid="1" gridSize="10" guides="1" tooltips="1" connect="1" arrows="1" fold="1" page="1" pageScale="1" pageWidth="2339" pageHeight="3300" math="0" shadow="0">
      <root>
        <mxCell id="0" />
        <mxCell id="1" style="locked=1;" parent="0" />
        <mxCell id="FmyyQE03RjyA75EerIXR-190" style="edgeStyle=orthogonalEdgeStyle;rounded=0;orthogonalLoop=1;jettySize=auto;html=1;entryX=0.519;entryY=1;entryDx=0;entryDy=0;entryPerimeter=0;shadow=0;" edge="1" parent="1" source="FmyyQE03RjyA75EerIXR-161" target="FmyyQE03RjyA75EerIXR-186">
          <mxGeometry relative="1" as="geometry" />
        </mxCell>
        <mxCell id="FmyyQE03RjyA75EerIXR-161" value="" style="rounded=0;whiteSpace=wrap;html=1;fillColor=none;dashed=1;" vertex="1" parent="1">
          <mxGeometry x="-470" y="40" width="900" height="440" as="geometry" />
        </mxCell>
        <mxCell id="FmyyQE03RjyA75EerIXR-186" value="" style="rounded=0;whiteSpace=wrap;html=1;dashed=1;fillColor=none;" vertex="1" parent="1">
          <mxGeometry x="-300" y="-190" width="540" height="180" as="geometry" />
        </mxCell>
        <mxCell id="FmyyQE03RjyA75EerIXR-191" value="Oceanbase Pro" style="rounded=0;whiteSpace=wrap;html=1;fillColor=none;" vertex="1" parent="1">
          <mxGeometry x="290" y="-210" width="120" height="60" as="geometry" />
        </mxCell>
        <mxCell id="FmyyQE03RjyA75EerIXR-192" style="edgeStyle=orthogonalEdgeStyle;rounded=0;orthogonalLoop=1;jettySize=auto;html=1;entryX=0.5;entryY=1;entryDx=0;entryDy=0;shadow=0;" edge="1" parent="1" source="FmyyQE03RjyA75EerIXR-147" target="FmyyQE03RjyA75EerIXR-191">
          <mxGeometry relative="1" as="geometry" />
        </mxCell>
        <mxCell id="FmyyQE03RjyA75EerIXR-193" value="" style="rounded=0;whiteSpace=wrap;html=1;fillColor=none;" vertex="1" parent="1">
          <mxGeometry x="-170" y="180" width="120" height="60" as="geometry" />
        </mxCell>
        <mxCell id="FmyyQE03RjyA75EerIXR-207" value="测试" style="rounded=0;whiteSpace=wrap;html=1;fillColor=none;" vertex="1" parent="1">
          <mxGeometry x="200" y="500" width="174" height="60" as="geometry" />
        </mxCell>
        <mxCell id="FmyyQE03RjyA75EerIXR-119" value="Untitled Layer" style="" parent="0" />
        <mxCell id="FmyyQE03RjyA75EerIXR-120" value="" style="rounded=0;whiteSpace=wrap;html=1;fillColor=#fff2cc;strokeColor=#d6b656;shadow=0;" vertex="1" parent="FmyyQE03RjyA75EerIXR-119">
          <mxGeometry x="-354" y="250" width="524" height="210" as="geometry" />
        </mxCell>
        <mxCell id="FmyyQE03RjyA75EerIXR-121" style="edgeStyle=orthogonalEdgeStyle;rounded=0;orthogonalLoop=1;jettySize=auto;html=1;shadow=0;" edge="1" parent="FmyyQE03RjyA75EerIXR-119" source="FmyyQE03RjyA75EerIXR-123" target="FmyyQE03RjyA75EerIXR-133">
          <mxGeometry relative="1" as="geometry" />
        </mxCell>
        <mxCell id="FmyyQE03RjyA75EerIXR-122" style="edgeStyle=orthogonalEdgeStyle;rounded=0;orthogonalLoop=1;jettySize=auto;html=1;shadow=0;" edge="1" parent="FmyyQE03RjyA75EerIXR-119" source="FmyyQE03RjyA75EerIXR-123" target="FmyyQE03RjyA75EerIXR-124">
          <mxGeometry relative="1" as="geometry" />
        </mxCell>
        <mxCell id="FmyyQE03RjyA75EerIXR-123" value="model" style="rounded=0;whiteSpace=wrap;html=1;fillColor=#e1d5e7;strokeColor=#9673a6;shadow=0;" vertex="1" parent="FmyyQE03RjyA75EerIXR-119">
          <mxGeometry x="200" y="60" width="90" height="300" as="geometry" />
        </mxCell>
        <mxCell id="FmyyQE03RjyA75EerIXR-124" value="" style="rounded=0;whiteSpace=wrap;html=1;shadow=0;fillColor=none;dashed=1;" vertex="1" parent="FmyyQE03RjyA75EerIXR-119">
          <mxGeometry x="-344" y="290" width="504" height="70" as="geometry" />
        </mxCell>
        <mxCell id="FmyyQE03RjyA75EerIXR-125" value="biz" style="text;html=1;strokeColor=none;fillColor=none;align=center;verticalAlign=middle;whiteSpace=wrap;rounded=0;shadow=0;" vertex="1" parent="FmyyQE03RjyA75EerIXR-119">
          <mxGeometry x="-334" y="290" width="40" height="20" as="geometry" />
        </mxCell>
        <mxCell id="FmyyQE03RjyA75EerIXR-126" style="edgeStyle=orthogonalEdgeStyle;rounded=0;orthogonalLoop=1;jettySize=auto;html=1;entryX=0.5;entryY=1;entryDx=0;entryDy=0;shadow=0;" edge="1" parent="FmyyQE03RjyA75EerIXR-119" source="FmyyQE03RjyA75EerIXR-127" target="FmyyQE03RjyA75EerIXR-124">
          <mxGeometry relative="1" as="geometry" />
        </mxCell>
        <mxCell id="FmyyQE03RjyA75EerIXR-127" value="" style="rounded=0;whiteSpace=wrap;html=1;shadow=0;fillColor=none;dashed=1;" vertex="1" parent="FmyyQE03RjyA75EerIXR-119">
          <mxGeometry x="-344" y="380" width="504" height="70" as="geometry" />
        </mxCell>
        <mxCell id="FmyyQE03RjyA75EerIXR-128" value="common" style="text;html=1;strokeColor=none;fillColor=none;align=center;verticalAlign=middle;whiteSpace=wrap;rounded=0;shadow=0;" vertex="1" parent="FmyyQE03RjyA75EerIXR-119">
          <mxGeometry x="-334" y="380" width="40" height="20" as="geometry" />
        </mxCell>
        <mxCell id="FmyyQE03RjyA75EerIXR-129" value="component" style="text;html=1;strokeColor=none;fillColor=none;align=center;verticalAlign=middle;whiteSpace=wrap;rounded=0;shadow=0;" vertex="1" parent="FmyyQE03RjyA75EerIXR-119">
          <mxGeometry x="-100" y="260" width="40" height="20" as="geometry" />
        </mxCell>
        <mxCell id="FmyyQE03RjyA75EerIXR-130" value="" style="rounded=0;whiteSpace=wrap;html=1;shadow=0;" vertex="1" parent="FmyyQE03RjyA75EerIXR-119">
          <mxGeometry x="-580" y="240" width="100" height="230" as="geometry" />
        </mxCell>
        <mxCell id="FmyyQE03RjyA75EerIXR-131" style="edgeStyle=orthogonalEdgeStyle;rounded=0;orthogonalLoop=1;jettySize=auto;html=1;entryX=0.5;entryY=0;entryDx=0;entryDy=0;shadow=0;" edge="1" parent="FmyyQE03RjyA75EerIXR-119" source="FmyyQE03RjyA75EerIXR-132" target="FmyyQE03RjyA75EerIXR-123">
          <mxGeometry relative="1" as="geometry" />
        </mxCell>
        <mxCell id="FmyyQE03RjyA75EerIXR-132" value="ob-cloud(request)" style="rounded=0;whiteSpace=wrap;html=1;" vertex="1" parent="FmyyQE03RjyA75EerIXR-119">
          <mxGeometry x="310" y="-30" width="130" height="40" as="geometry" />
        </mxCell>
        <mxCell id="FmyyQE03RjyA75EerIXR-133" value="" style="rounded=0;whiteSpace=wrap;html=1;fillColor=#d5e8d4;strokeColor=#82b366;shadow=0;" vertex="1" parent="FmyyQE03RjyA75EerIXR-119">
          <mxGeometry x="-354" y="60" width="524" height="180" as="geometry" />
        </mxCell>
        <mxCell id="FmyyQE03RjyA75EerIXR-134" value="page" style="text;html=1;strokeColor=none;fillColor=none;align=center;verticalAlign=middle;whiteSpace=wrap;rounded=0;shadow=0;" vertex="1" parent="FmyyQE03RjyA75EerIXR-119">
          <mxGeometry x="-100" y="70" width="40" height="20" as="geometry" />
        </mxCell>
        <mxCell id="FmyyQE03RjyA75EerIXR-135" value="docs" style="rounded=0;whiteSpace=wrap;html=1;fillColor=#ffe6cc;strokeColor=#d79b00;shadow=0;" vertex="1" parent="FmyyQE03RjyA75EerIXR-119">
          <mxGeometry x="-450" y="60" width="80" height="170" as="geometry" />
        </mxCell>
        <mxCell id="FmyyQE03RjyA75EerIXR-136" value="" style="edgeStyle=orthogonalEdgeStyle;rounded=0;orthogonalLoop=1;jettySize=auto;html=1;shadow=0;" edge="1" parent="FmyyQE03RjyA75EerIXR-119" source="FmyyQE03RjyA75EerIXR-137" target="FmyyQE03RjyA75EerIXR-135">
          <mxGeometry relative="1" as="geometry" />
        </mxCell>
        <mxCell id="FmyyQE03RjyA75EerIXR-137" value="ob-docs" style="rounded=0;whiteSpace=wrap;html=1;shadow=0;" vertex="1" parent="FmyyQE03RjyA75EerIXR-119">
          <mxGeometry x="-580" y="125" width="100" height="40" as="geometry" />
        </mxCell>
        <mxCell id="FmyyQE03RjyA75EerIXR-138" value="ob-ui" style="text;html=1;strokeColor=none;fillColor=none;align=center;verticalAlign=middle;whiteSpace=wrap;rounded=0;dashed=1;" vertex="1" parent="FmyyQE03RjyA75EerIXR-119">
          <mxGeometry x="-550" y="290" width="40" height="20" as="geometry" />
        </mxCell>
        <mxCell id="FmyyQE03RjyA75EerIXR-139" value="tech-ui" style="text;html=1;strokeColor=none;fillColor=none;align=center;verticalAlign=middle;whiteSpace=wrap;rounded=0;dashed=1;" vertex="1" parent="FmyyQE03RjyA75EerIXR-119">
          <mxGeometry x="-550" y="360" width="40" height="20" as="geometry" />
        </mxCell>
        <mxCell id="FmyyQE03RjyA75EerIXR-140" value="antd" style="text;html=1;strokeColor=none;fillColor=none;align=center;verticalAlign=middle;whiteSpace=wrap;rounded=0;dashed=1;" vertex="1" parent="FmyyQE03RjyA75EerIXR-119">
          <mxGeometry x="-550" y="420" width="40" height="20" as="geometry" />
        </mxCell>
        <mxCell id="FmyyQE03RjyA75EerIXR-141" value="部署" style="rounded=0;whiteSpace=wrap;html=1;fillColor=none;" vertex="1" parent="FmyyQE03RjyA75EerIXR-119">
          <mxGeometry x="-401" y="500" width="188" height="60" as="geometry" />
        </mxCell>
        <mxCell id="FmyyQE03RjyA75EerIXR-142" value="i18n" style="rounded=0;whiteSpace=wrap;html=1;fillColor=none;" vertex="1" parent="FmyyQE03RjyA75EerIXR-119">
          <mxGeometry x="-580" y="500" width="160" height="60" as="geometry" />
        </mxCell>
        <mxCell id="FmyyQE03RjyA75EerIXR-143" value="灰度" style="rounded=0;whiteSpace=wrap;html=1;fillColor=none;" vertex="1" parent="FmyyQE03RjyA75EerIXR-119">
          <mxGeometry x="390" y="500" width="174" height="60" as="geometry" />
        </mxCell>
        <mxCell id="FmyyQE03RjyA75EerIXR-144" value="lint/ci" style="rounded=0;whiteSpace=wrap;html=1;fillColor=none;" vertex="1" parent="FmyyQE03RjyA75EerIXR-119">
          <mxGeometry x="-190" y="500" width="186" height="60" as="geometry" />
        </mxCell>
        <mxCell id="FmyyQE03RjyA75EerIXR-145" value="mock&lt;span style=&quot;white-space: pre&quot;&gt;	&lt;/span&gt;" style="rounded=0;whiteSpace=wrap;html=1;fillColor=none;" vertex="1" parent="FmyyQE03RjyA75EerIXR-119">
          <mxGeometry x="10" y="500" width="172" height="60" as="geometry" />
        </mxCell>
        <mxCell id="FmyyQE03RjyA75EerIXR-146" value="community" style="rounded=1;whiteSpace=wrap;html=1;fillColor=#f5f5f5;strokeColor=#666666;fontColor=#333333;" vertex="1" parent="FmyyQE03RjyA75EerIXR-119">
          <mxGeometry x="-108" y="-180" width="160" height="160" as="geometry" />
        </mxCell>
        <mxCell id="FmyyQE03RjyA75EerIXR-147" value="cloud" style="rounded=1;whiteSpace=wrap;html=1;fillColor=none;" vertex="1" parent="FmyyQE03RjyA75EerIXR-119">
          <mxGeometry x="72" y="-180" width="160" height="160" as="geometry" />
        </mxCell>
        <mxCell id="FmyyQE03RjyA75EerIXR-150" value="EndpointSelect" style="rounded=1;whiteSpace=wrap;html=1;fillColor=none;" vertex="1" parent="FmyyQE03RjyA75EerIXR-119">
          <mxGeometry x="-334" y="320" width="90" height="30" as="geometry" />
        </mxCell>
        <mxCell id="FmyyQE03RjyA75EerIXR-151" value="ETL" style="rounded=1;whiteSpace=wrap;html=1;fillColor=none;" vertex="1" parent="FmyyQE03RjyA75EerIXR-119">
          <mxGeometry x="-230" y="320" width="90" height="30" as="geometry" />
        </mxCell>
        <mxCell id="FmyyQE03RjyA75EerIXR-152" value="Transfer" style="rounded=1;whiteSpace=wrap;html=1;fillColor=none;" vertex="1" parent="FmyyQE03RjyA75EerIXR-119">
          <mxGeometry x="-120" y="320" width="90" height="30" as="geometry" />
        </mxCell>
        <mxCell id="FmyyQE03RjyA75EerIXR-153" value="..." style="text;html=1;strokeColor=none;fillColor=none;align=center;verticalAlign=middle;whiteSpace=wrap;rounded=0;dashed=1;" vertex="1" parent="FmyyQE03RjyA75EerIXR-119">
          <mxGeometry x="90" y="325" width="40" height="20" as="geometry" />
        </mxCell>
        <mxCell id="FmyyQE03RjyA75EerIXR-154" value="Transfer" style="rounded=1;whiteSpace=wrap;html=1;fillColor=none;" vertex="1" parent="FmyyQE03RjyA75EerIXR-119">
          <mxGeometry x="-334" y="410" width="90" height="30" as="geometry" />
        </mxCell>
        <mxCell id="FmyyQE03RjyA75EerIXR-155" value="TreeSearch" style="rounded=1;whiteSpace=wrap;html=1;fillColor=none;" vertex="1" parent="FmyyQE03RjyA75EerIXR-119">
          <mxGeometry x="-230" y="410" width="90" height="30" as="geometry" />
        </mxCell>
        <mxCell id="FmyyQE03RjyA75EerIXR-156" value="StepsForm" style="rounded=1;whiteSpace=wrap;html=1;fillColor=none;" vertex="1" parent="FmyyQE03RjyA75EerIXR-119">
          <mxGeometry x="-120" y="410" width="90" height="30" as="geometry" />
        </mxCell>
        <mxCell id="FmyyQE03RjyA75EerIXR-157" value="" style="endArrow=classic;html=1;shadow=0;entryX=-0.005;entryY=0.275;entryDx=0;entryDy=0;entryPerimeter=0;" edge="1" parent="FmyyQE03RjyA75EerIXR-119">
          <mxGeometry width="50" height="50" relative="1" as="geometry">
            <mxPoint x="-481" y="367" as="sourcePoint" />
            <mxPoint x="-356.1999999999998" y="366.75" as="targetPoint" />
            <Array as="points">
              <mxPoint x="-360" y="367" />
            </Array>
          </mxGeometry>
        </mxCell>
        <mxCell id="FmyyQE03RjyA75EerIXR-158" value="" style="endArrow=classic;html=1;shadow=0;exitX=0;exitY=0.5;exitDx=0;exitDy=0;dashed=1;" edge="1" parent="FmyyQE03RjyA75EerIXR-119" source="FmyyQE03RjyA75EerIXR-127">
          <mxGeometry width="50" height="50" relative="1" as="geometry">
            <mxPoint x="-404" y="380" as="sourcePoint" />
            <mxPoint x="-478" y="415" as="targetPoint" />
          </mxGeometry>
        </mxCell>
        <mxCell id="FmyyQE03RjyA75EerIXR-159" value="Log&lt;span style=&quot;white-space: pre&quot;&gt;	&lt;/span&gt;" style="rounded=1;whiteSpace=wrap;html=1;fillColor=none;" vertex="1" parent="FmyyQE03RjyA75EerIXR-119">
          <mxGeometry x="-14" y="410" width="90" height="30" as="geometry" />
        </mxCell>
        <mxCell id="FmyyQE03RjyA75EerIXR-160" value="..." style="text;html=1;strokeColor=none;fillColor=none;align=center;verticalAlign=middle;whiteSpace=wrap;rounded=0;dashed=1;" vertex="1" parent="FmyyQE03RjyA75EerIXR-119">
          <mxGeometry x="90" y="415" width="40" height="20" as="geometry" />
        </mxCell>
        <mxCell id="FmyyQE03RjyA75EerIXR-171" value="ProjectLabel" style="rounded=1;whiteSpace=wrap;html=1;fillColor=none;" vertex="1" parent="FmyyQE03RjyA75EerIXR-119">
          <mxGeometry x="-14" y="320" width="90" height="30" as="geometry" />
        </mxCell>
        <mxCell id="FmyyQE03RjyA75EerIXR-172" value="Migration" style="rounded=1;whiteSpace=wrap;html=1;fillColor=none;" vertex="1" parent="FmyyQE03RjyA75EerIXR-119">
          <mxGeometry x="-344" y="90" width="74" height="130" as="geometry" />
        </mxCell>
        <mxCell id="FmyyQE03RjyA75EerIXR-173" value="Sync" style="rounded=1;whiteSpace=wrap;html=1;fillColor=none;" vertex="1" parent="FmyyQE03RjyA75EerIXR-119">
          <mxGeometry x="-250" y="90" width="74" height="130" as="geometry" />
        </mxCell>
        <mxCell id="FmyyQE03RjyA75EerIXR-174" value="Endpoint" style="rounded=1;whiteSpace=wrap;html=1;fillColor=none;" vertex="1" parent="FmyyQE03RjyA75EerIXR-119">
          <mxGeometry x="-160" y="90" width="74" height="130" as="geometry" />
        </mxCell>
        <mxCell id="FmyyQE03RjyA75EerIXR-175" value="Notification" style="rounded=1;whiteSpace=wrap;html=1;fillColor=none;" vertex="1" parent="FmyyQE03RjyA75EerIXR-119">
          <mxGeometry x="-74" y="91" width="74" height="130" as="geometry" />
        </mxCell>
        <mxCell id="FmyyQE03RjyA75EerIXR-179" value="" style="rounded=0;whiteSpace=wrap;html=1;fillColor=none;dashed=1;" vertex="1" parent="FmyyQE03RjyA75EerIXR-119">
          <mxGeometry x="-349" y="80" width="179" height="150" as="geometry" />
        </mxCell>
        <mxCell id="FmyyQE03RjyA75EerIXR-180" value="private" style="rounded=1;whiteSpace=wrap;html=1;fillColor=#f5f5f5;strokeColor=#666666;fontColor=#333333;" vertex="1" parent="FmyyQE03RjyA75EerIXR-119">
          <mxGeometry x="-290" y="-180" width="160" height="160" as="geometry" />
        </mxCell>
        <mxCell id="FmyyQE03RjyA75EerIXR-187" value="constant" style="rounded=0;whiteSpace=wrap;html=1;fillColor=#e1d5e7;strokeColor=#9673a6;" vertex="1" parent="FmyyQE03RjyA75EerIXR-119">
          <mxGeometry x="300" y="220" width="100" height="40" as="geometry" />
        </mxCell>
        <mxCell id="FmyyQE03RjyA75EerIXR-188" value="typing" style="rounded=0;whiteSpace=wrap;html=1;fillColor=#e1d5e7;strokeColor=#9673a6;" vertex="1" parent="FmyyQE03RjyA75EerIXR-119">
          <mxGeometry x="300" y="280" width="100" height="40" as="geometry" />
        </mxCell>
        <mxCell id="FmyyQE03RjyA75EerIXR-194" value="" style="rounded=0;whiteSpace=wrap;html=1;fillColor=none;dashed=1;" vertex="1" parent="FmyyQE03RjyA75EerIXR-119">
          <mxGeometry x="-890" y="30" width="240" height="530" as="geometry" />
        </mxCell>
        <mxCell id="FmyyQE03RjyA75EerIXR-196" value="提测文档" style="rounded=0;whiteSpace=wrap;html=1;fillColor=none;" vertex="1" parent="FmyyQE03RjyA75EerIXR-119">
          <mxGeometry x="-870" y="71" width="200" height="60" as="geometry" />
        </mxCell>
        <mxCell id="FmyyQE03RjyA75EerIXR-197" value="前端回归" style="rounded=0;whiteSpace=wrap;html=1;fillColor=none;" vertex="1" parent="FmyyQE03RjyA75EerIXR-119">
          <mxGeometry x="-870" y="146" width="200" height="60" as="geometry" />
        </mxCell>
        <mxCell id="FmyyQE03RjyA75EerIXR-198" value="模块负责人" style="rounded=0;whiteSpace=wrap;html=1;fillColor=none;" vertex="1" parent="FmyyQE03RjyA75EerIXR-119">
          <mxGeometry x="-870" y="295" width="200" height="60" as="geometry" />
        </mxCell>
        <mxCell id="FmyyQE03RjyA75EerIXR-199" value="前端系分" style="rounded=0;whiteSpace=wrap;html=1;fillColor=none;" vertex="1" parent="FmyyQE03RjyA75EerIXR-119">
          <mxGeometry x="-870" y="370" width="200" height="60" as="geometry" />
        </mxCell>
        <mxCell id="FmyyQE03RjyA75EerIXR-200" value="需求拆解" style="rounded=0;whiteSpace=wrap;html=1;fillColor=none;" vertex="1" parent="FmyyQE03RjyA75EerIXR-119">
          <mxGeometry x="-870" y="450" width="200" height="60" as="geometry" />
        </mxCell>
        <mxCell id="FmyyQE03RjyA75EerIXR-201" value="..." style="text;html=1;strokeColor=none;fillColor=none;align=center;verticalAlign=middle;whiteSpace=wrap;rounded=0;dashed=1;" vertex="1" parent="FmyyQE03RjyA75EerIXR-119">
          <mxGeometry x="-790" y="510" width="40" height="20" as="geometry" />
        </mxCell>
        <mxCell id="FmyyQE03RjyA75EerIXR-203" value="Notification" style="rounded=1;whiteSpace=wrap;html=1;fillColor=none;" vertex="1" parent="FmyyQE03RjyA75EerIXR-119">
          <mxGeometry x="16" y="91" width="74" height="130" as="geometry" />
        </mxCell>
        <mxCell id="FmyyQE03RjyA75EerIXR-204" value="..." style="text;html=1;strokeColor=none;fillColor=none;align=center;verticalAlign=middle;whiteSpace=wrap;rounded=0;dashed=1;" vertex="1" parent="FmyyQE03RjyA75EerIXR-119">
          <mxGeometry x="110" y="146" width="40" height="20" as="geometry" />
        </mxCell>
        <mxCell id="FmyyQE03RjyA75EerIXR-219" value="" style="rounded=0;whiteSpace=wrap;html=1;fillColor=#dae8fc;strokeColor=#6c8ebf;" vertex="1" parent="FmyyQE03RjyA75EerIXR-119">
          <mxGeometry x="-910" y="840" width="1360" height="170" as="geometry" />
        </mxCell>
        <mxCell id="FmyyQE03RjyA75EerIXR-220" value="数据迁移" style="text;html=1;strokeColor=none;fillColor=none;align=center;verticalAlign=middle;whiteSpace=wrap;rounded=0;dashed=1;" vertex="1" parent="FmyyQE03RjyA75EerIXR-119">
          <mxGeometry x="-900" y="840" width="60" height="20" as="geometry" />
        </mxCell>
        <mxCell id="FmyyQE03RjyA75EerIXR-221" value="预检查" style="rounded=0;whiteSpace=wrap;html=1;" vertex="1" parent="FmyyQE03RjyA75EerIXR-119">
          <mxGeometry x="-880" y="870" width="140" height="60" as="geometry" />
        </mxCell>
        <mxCell id="FmyyQE03RjyA75EerIXR-222" value="结构迁移" style="rounded=0;whiteSpace=wrap;html=1;" vertex="1" parent="FmyyQE03RjyA75EerIXR-119">
          <mxGeometry x="-720" y="870" width="140" height="60" as="geometry" />
        </mxCell>
        <mxCell id="FmyyQE03RjyA75EerIXR-223" value="全量迁移" style="rounded=0;whiteSpace=wrap;html=1;" vertex="1" parent="FmyyQE03RjyA75EerIXR-119">
          <mxGeometry x="-560" y="870" width="140" height="60" as="geometry" />
        </mxCell>
        <mxCell id="FmyyQE03RjyA75EerIXR-224" value="增量迁移" style="rounded=0;whiteSpace=wrap;html=1;" vertex="1" parent="FmyyQE03RjyA75EerIXR-119">
          <mxGeometry x="-400" y="870" width="140" height="60" as="geometry" />
        </mxCell>
        <mxCell id="FmyyQE03RjyA75EerIXR-226" value="全量校验" style="rounded=0;whiteSpace=wrap;html=1;" vertex="1" parent="FmyyQE03RjyA75EerIXR-119">
          <mxGeometry x="-230" y="870" width="140" height="60" as="geometry" />
        </mxCell>
        <mxCell id="FmyyQE03RjyA75EerIXR-227" value="反向同步" style="rounded=0;whiteSpace=wrap;html=1;dashed=1;" vertex="1" parent="FmyyQE03RjyA75EerIXR-119">
          <mxGeometry x="80" y="870" width="140" height="60" as="geometry" />
        </mxCell>
        <mxCell id="FmyyQE03RjyA75EerIXR-230" value="" style="rounded=0;whiteSpace=wrap;html=1;fillColor=#dae8fc;strokeColor=#6c8ebf;" vertex="1" parent="FmyyQE03RjyA75EerIXR-119">
          <mxGeometry x="-910" y="1040" width="1360" height="170" as="geometry" />
        </mxCell>
        <mxCell id="FmyyQE03RjyA75EerIXR-231" value="数据同步" style="text;html=1;strokeColor=none;fillColor=none;align=center;verticalAlign=middle;whiteSpace=wrap;rounded=0;dashed=1;" vertex="1" parent="FmyyQE03RjyA75EerIXR-119">
          <mxGeometry x="-900" y="1041" width="60" height="20" as="geometry" />
        </mxCell>
        <mxCell id="FmyyQE03RjyA75EerIXR-232" value="预检查" style="rounded=0;whiteSpace=wrap;html=1;" vertex="1" parent="FmyyQE03RjyA75EerIXR-119">
          <mxGeometry x="-880" y="1070" width="140" height="60" as="geometry" />
        </mxCell>
        <mxCell id="FmyyQE03RjyA75EerIXR-233" value="结构同步" style="rounded=0;whiteSpace=wrap;html=1;" vertex="1" parent="FmyyQE03RjyA75EerIXR-119">
          <mxGeometry x="-720" y="1070" width="140" height="60" as="geometry" />
        </mxCell>
        <mxCell id="FmyyQE03RjyA75EerIXR-234" value="增量日志拉取" style="rounded=0;whiteSpace=wrap;html=1;dashed=1;" vertex="1" parent="FmyyQE03RjyA75EerIXR-119">
          <mxGeometry x="-560" y="1070" width="140" height="60" as="geometry" />
        </mxCell>
        <mxCell id="FmyyQE03RjyA75EerIXR-235" value="全量同步" style="rounded=0;whiteSpace=wrap;html=1;dashed=1;" vertex="1" parent="FmyyQE03RjyA75EerIXR-119">
          <mxGeometry x="-400" y="1070" width="140" height="60" as="geometry" />
        </mxCell>
        <mxCell id="FmyyQE03RjyA75EerIXR-236" value="增量同步" style="rounded=0;whiteSpace=wrap;html=1;" vertex="1" parent="FmyyQE03RjyA75EerIXR-119">
          <mxGeometry x="-240" y="1070" width="140" height="60" as="geometry" />
        </mxCell>
        <mxCell id="FmyyQE03RjyA75EerIXR-237" value="逻辑表 -&amp;gt; 数据库" style="rounded=0;whiteSpace=wrap;html=1;" vertex="1" parent="FmyyQE03RjyA75EerIXR-119">
          <mxGeometry x="-80" y="1070" width="140" height="60" as="geometry" />
        </mxCell>
        <mxCell id="FmyyQE03RjyA75EerIXR-238" value="单/多/逻辑表 -&amp;gt; 大数据" style="rounded=0;whiteSpace=wrap;html=1;" vertex="1" parent="FmyyQE03RjyA75EerIXR-119">
          <mxGeometry x="80" y="1070" width="140" height="60" as="geometry" />
        </mxCell>
        <mxCell id="FmyyQE03RjyA75EerIXR-240" value="" style="rounded=0;whiteSpace=wrap;html=1;fillColor=#f8cecc;strokeColor=#b85450;" vertex="1" parent="FmyyQE03RjyA75EerIXR-119">
          <mxGeometry x="-918" y="1380" width="1368" height="110" as="geometry" />
        </mxCell>
        <mxCell id="FmyyQE03RjyA75EerIXR-241" value="运维监控" style="text;html=1;strokeColor=none;fillColor=none;align=center;verticalAlign=middle;whiteSpace=wrap;rounded=0;dashed=1;" vertex="1" parent="FmyyQE03RjyA75EerIXR-119">
          <mxGeometry x="-908" y="1380" width="60" height="20" as="geometry" />
        </mxCell>
        <mxCell id="FmyyQE03RjyA75EerIXR-242" value="机器" style="rounded=0;whiteSpace=wrap;html=1;" vertex="1" parent="FmyyQE03RjyA75EerIXR-119">
          <mxGeometry x="-888" y="1410" width="140" height="60" as="geometry" />
        </mxCell>
        <mxCell id="FmyyQE03RjyA75EerIXR-243" value="组件" style="rounded=0;whiteSpace=wrap;html=1;" vertex="1" parent="FmyyQE03RjyA75EerIXR-119">
          <mxGeometry x="-728" y="1410" width="140" height="60" as="geometry" />
        </mxCell>
        <mxCell id="FmyyQE03RjyA75EerIXR-244" value="工单" style="rounded=0;whiteSpace=wrap;html=1;dashed=1;" vertex="1" parent="FmyyQE03RjyA75EerIXR-119">
          <mxGeometry x="-568" y="1410" width="140" height="60" as="geometry" />
        </mxCell>
        <mxCell id="FmyyQE03RjyA75EerIXR-251" value="" style="rounded=0;whiteSpace=wrap;html=1;fillColor=#fff2cc;strokeColor=#d6b656;" vertex="1" parent="FmyyQE03RjyA75EerIXR-119">
          <mxGeometry x="-918" y="1520" width="1368" height="110" as="geometry" />
        </mxCell>
        <mxCell id="FmyyQE03RjyA75EerIXR-252" value="系统管理" style="text;html=1;strokeColor=none;fillColor=none;align=center;verticalAlign=middle;whiteSpace=wrap;rounded=0;dashed=1;" vertex="1" parent="FmyyQE03RjyA75EerIXR-119">
          <mxGeometry x="-913" y="1520" width="60" height="20" as="geometry" />
        </mxCell>
        <mxCell id="FmyyQE03RjyA75EerIXR-253" value="用户管理" style="rounded=0;whiteSpace=wrap;html=1;" vertex="1" parent="FmyyQE03RjyA75EerIXR-119">
          <mxGeometry x="-893" y="1550" width="140" height="60" as="geometry" />
        </mxCell>
        <mxCell id="FmyyQE03RjyA75EerIXR-254" value="告警" style="rounded=0;whiteSpace=wrap;html=1;dashed=1;" vertex="1" parent="FmyyQE03RjyA75EerIXR-119">
          <mxGeometry x="-733" y="1550" width="140" height="60" as="geometry" />
        </mxCell>
        <mxCell id="FmyyQE03RjyA75EerIXR-255" value="关联 OCP" style="rounded=0;whiteSpace=wrap;html=1;dashed=1;" vertex="1" parent="FmyyQE03RjyA75EerIXR-119">
          <mxGeometry x="-573" y="1550" width="140" height="60" as="geometry" />
        </mxCell>
        <mxCell id="FmyyQE03RjyA75EerIXR-256" value="系统参数" style="rounded=0;whiteSpace=wrap;html=1;" vertex="1" parent="FmyyQE03RjyA75EerIXR-119">
          <mxGeometry x="-413" y="1550" width="140" height="60" as="geometry" />
        </mxCell>
        <mxCell id="FmyyQE03RjyA75EerIXR-258" value="指定对象迁移" style="rounded=0;whiteSpace=wrap;html=1;" vertex="1" parent="FmyyQE03RjyA75EerIXR-119">
          <mxGeometry x="240" y="870" width="140" height="60" as="geometry" />
        </mxCell>
        <mxCell id="FmyyQE03RjyA75EerIXR-259" value="导入对象迁移" style="rounded=0;whiteSpace=wrap;html=1;" vertex="1" parent="FmyyQE03RjyA75EerIXR-119">
          <mxGeometry x="-880" y="940" width="140" height="60" as="geometry" />
        </mxCell>
        <mxCell id="FmyyQE03RjyA75EerIXR-260" value="匹配规则迁移" style="rounded=0;whiteSpace=wrap;html=1;dashed=1;" vertex="1" parent="FmyyQE03RjyA75EerIXR-119">
          <mxGeometry x="-720" y="940" width="140" height="60" as="geometry" />
        </mxCell>
        <mxCell id="FmyyQE03RjyA75EerIXR-261" value="同步列表" style="rounded=0;whiteSpace=wrap;html=1;" vertex="1" parent="FmyyQE03RjyA75EerIXR-119">
          <mxGeometry x="240" y="1070" width="140" height="60" as="geometry" />
        </mxCell>
        <mxCell id="FmyyQE03RjyA75EerIXR-262" value="迁移列表" style="rounded=0;whiteSpace=wrap;html=1;" vertex="1" parent="FmyyQE03RjyA75EerIXR-119">
          <mxGeometry x="-560" y="940" width="140" height="60" as="geometry" />
        </mxCell>
        <mxCell id="FmyyQE03RjyA75EerIXR-263" value="汇聚/合并/etl" style="rounded=0;whiteSpace=wrap;html=1;" vertex="1" parent="FmyyQE03RjyA75EerIXR-119">
          <mxGeometry x="-401" y="940" width="140" height="60" as="geometry" />
        </mxCell>
        <mxCell id="FmyyQE03RjyA75EerIXR-264" value="汇聚/合并/etl" style="rounded=0;whiteSpace=wrap;html=1;" vertex="1" parent="FmyyQE03RjyA75EerIXR-119">
          <mxGeometry x="-880" y="1140" width="140" height="60" as="geometry" />
        </mxCell>
        <mxCell id="FmyyQE03RjyA75EerIXR-265" value="" style="rounded=0;whiteSpace=wrap;html=1;fillColor=#d5e8d4;strokeColor=#82b366;" vertex="1" parent="FmyyQE03RjyA75EerIXR-119">
          <mxGeometry x="480" y="840" width="170" height="790" as="geometry" />
        </mxCell>
        <mxCell id="FmyyQE03RjyA75EerIXR-268" value="权限体系" style="rounded=0;whiteSpace=wrap;html=1;fillColor=#ffffff;" vertex="1" parent="FmyyQE03RjyA75EerIXR-119">
          <mxGeometry x="505" y="890" width="120" height="50" as="geometry" />
        </mxCell>
        <mxCell id="FmyyQE03RjyA75EerIXR-272" value="组件测试" style="rounded=0;whiteSpace=wrap;html=1;fillColor=none;" vertex="1" parent="FmyyQE03RjyA75EerIXR-119">
          <mxGeometry x="-870" y="220" width="200" height="60" as="geometry" />
        </mxCell>
        <mxCell id="FmyyQE03RjyA75EerIXR-273" value="" style="rounded=0;whiteSpace=wrap;html=1;dashed=1;fillColor=#ffffff;" vertex="1" parent="FmyyQE03RjyA75EerIXR-119">
          <mxGeometry x="580" y="780" width="70" height="30" as="geometry" />
        </mxCell>
        <mxCell id="FmyyQE03RjyA75EerIXR-274" value="新增：" style="text;html=1;strokeColor=none;fillColor=none;align=center;verticalAlign=middle;whiteSpace=wrap;rounded=0;dashed=1;" vertex="1" parent="FmyyQE03RjyA75EerIXR-119">
          <mxGeometry x="530" y="785" width="40" height="20" as="geometry" />
        </mxCell>
        <mxCell id="FmyyQE03RjyA75EerIXR-275" value="" style="rounded=0;whiteSpace=wrap;html=1;" vertex="1" parent="FmyyQE03RjyA75EerIXR-119">
          <mxGeometry x="450" y="780" width="70" height="30" as="geometry" />
        </mxCell>
        <mxCell id="FmyyQE03RjyA75EerIXR-276" value="变更：" style="text;html=1;strokeColor=none;fillColor=none;align=center;verticalAlign=middle;whiteSpace=wrap;rounded=0;dashed=1;" vertex="1" parent="FmyyQE03RjyA75EerIXR-119">
          <mxGeometry x="400" y="785" width="40" height="20" as="geometry" />
        </mxCell>
        <mxCell id="FmyyQE03RjyA75EerIXR-277" value="用户引导" style="rounded=0;whiteSpace=wrap;html=1;fillColor=#ffffff;dashed=1;" vertex="1" parent="FmyyQE03RjyA75EerIXR-119">
          <mxGeometry x="505" y="970" width="120" height="50" as="geometry" />
        </mxCell>
        <mxCell id="FmyyQE03RjyA75EerIXR-281" value="" style="shape=image;verticalLabelPosition=bottom;labelBackgroundColor=#ffffff;verticalAlign=top;aspect=fixed;imageAspect=0;image=data:image/png,iVBORw0KGgoAAAANSUhEUgAAAaYAAAKoCAIAAACz8cy5AAAMa2lDQ1BJQ0MgUHJvZmlsZQAASImVVwdYU8kWnluSkJCEEoiAlNCbIL1KCaFFEJAq2AhJIKHEmBBUbFgWFVy7iGJFV0UUXQsgi4rYy6LY+2JBRVkXC4qi8iYkoOu+8r3zfXPnv2fO/KfcmXvvAKDVw5NKc1FtAPIk+bL4iBDWmNQ0FqkdYAAFNGAP6Dy+XMqOi4sGUAb6v8v7GwBR9ledlFz/HP+voisQyvkAIOMgzhDI+XkQNwGAr+dLZfkAEJV6yyn5UiUuglhPBgOEeJUSZ6nwTiXOUOHGfpvEeA7ElwHQoPJ4siwA6PegnlXAz4I89M8Qu0gEYgkAWsMgDuSLeAKIlbEPy8ubpMTlENtBeynEMB7gk/EdZ9bf+DMG+Xm8rEGsyqtfNELFcmkub9r/WZr/LXm5igEfNrBRRbLIeGX+sIa3ciZFKTEV4k5JRkysstYQ94gFqroDgFJEisgklT1qzJdzYP0AE2IXAS80CmJjiMMluTHRan1GpjicCzFcLehUcT43EWIDiBcK5WEJapvNsknxal9obaaMw1brz/Jk/X6Vvh4ocpLYav43IiFXzY/RC0WJKRBTILYqECfHQEyH2FmekxClthlRKOLEDNjIFPHK+K0gjhdKIkJU/FhBpiw8Xm1fkicfyBfbLBJzY9R4f74oMVJVH+wkn9cfP8wFuyyUsJMGeITyMdEDuQiEoWGq3LHnQklSgpqnR5ofEq+ai1OkuXFqe9xCmBuh1FtA7CEvSFDPxZPz4eJU8eOZ0vy4RFWceGE2b2ScKh58GYgGHBAKWEABWwaYBLKBuKWzrhPeqUbCAQ/IQBYQAie1ZmBGSv+IBF4TQCH4EyIhkA/OC+kfFYICqP8yqFVdnUBm/2hB/4wc8BTiPBAFcuG9on+WZNBbMngCNeJ/eOfBxofx5sKmHP/3+gHtNw0baqLVGsWAR5bWgCUxjBhKjCSGE+1xIzwQ98ej4TUYNjfcB/cdyOObPeEpoZXwiHCd0Ea4PVE8V/ZDlKNAG+QPV9ci4/ta4DaQ0xMPwQMgO2TGmbgRcMI9oB82HgQ9e0ItRx23siqsH7j/lsF3T0NtR3Yho+Qh5GCy3Y8z6Q50z0EWZa2/r48q1ozBenMGR370z/mu+gLYR/1oiS3EDmBnsOPYOawRqwMs7BhWj13Ejijx4Op60r+6BrzF98eTA3nE//DHU/tUVlLuUu3S4fJZNZYvnJqv3HicSdJpMnGWKJ/Fhl8HIYsr4TsPY7m5uLkCoPzWqF5fb5n93xCEef6bbh7c4wGSvr6+xm+6qE8AHDSH27/tm872CnxNwPf02eV8haxApcOVFwJ8S2jBnWYITIElsIP5uAEv4A+CQRgYCWJBIkgFE2CVRXCdy8AUMAPMAcWgFCwDq8E6sAlsBTvBHrAf1IFGcBycBhfAZXAd3IWrpx28BF3gPehFEISE0BAGYoiYIdaII+KG+CCBSBgSjcQjqUg6koVIEAUyA5mHlCIrkHXIFqQK+RU5jBxHziGtyG3kIdKBvEE+oRhKRfVQE9QGHY76oGw0Ck1Ex6NZ6GS0EJ2PLkHL0Up0N1qLHkcvoNfRNvQl2o0BTBNjYuaYE+aDcbBYLA3LxGTYLKwEK8MqsRqsAT7nq1gb1ol9xIk4A2fhTnAFR+JJOB+fjM/CF+Pr8J14LX4Sv4o/xLvwrwQawZjgSPAjcAljCFmEKYRiQhlhO+EQ4RTcS+2E90QikUm0JXrDvZhKzCZOJy4mbiDuJTYRW4mPid0kEsmQ5EgKIMWSeKR8UjFpLWk36RjpCqmd1KOhqWGm4aYRrpGmIdGYq1GmsUvjqMYVjWcavWRtsjXZjxxLFpCnkZeSt5EbyJfI7eReig7FlhJASaRkU+ZQyik1lFOUe5S3mpqaFpq+mqM1xZpFmuWa+zTPaj7U/EjVpTpQOdRxVAV1CXUHtYl6m/qWRqPZ0IJpabR82hJaFe0E7QGth86gO9O5dAF9Nr2CXku/Qn+lRday1mJrTdAq1CrTOqB1SatTm6xto83R5mnP0q7QPqx9U7tbh6HjqhOrk6ezWGeXzjmd57okXRvdMF2B7nzdrbondB8zMIYlg8PgM+YxtjFOMdr1iHq2ely9bL1SvT16LXpd+rr6HvrJ+lP1K/SP6LcxMaYNk8vMZS5l7mfeYH4aYjKEPUQ4ZNGQmiFXhnwwGGoQbCA0KDHYa3Dd4JMhyzDMMMdwuWGd4X0j3MjBaLTRFKONRqeMOofqDfUfyh9aMnT/0DvGqLGDcbzxdOOtxheNu01MTSJMpCZrTU6YdJoyTYNNs01XmR417TBjmAWaic1WmR0ze8HSZ7FZuaxy1klWl7mxeaS5wnyLeYt5r4WtRZLFXIu9FvctKZY+lpmWqyybLbuszKxGWc2wqra6Y0229rEWWa+xPmP9wcbWJsVmgU2dzXNbA1uubaFtte09O5pdkN1ku0q7a/ZEex/7HPsN9pcdUAdPB5FDhcMlR9TRy1HsuMGxdRhhmO8wybDKYTedqE5spwKnaqeHzkznaOe5znXOr4ZbDU8bvnz4meFfXTxdcl22udx11XUd6TrXtcH1jZuDG9+twu2aO8093H22e737aw9HD6HHRo9bngzPUZ4LPJs9v3h5e8m8arw6vK28073Xe9/00fOJ81nsc9aX4BviO9u30fejn5dfvt9+v7/8nfxz/Hf5Px9hO0I4YtuIxwEWAbyALQFtgazA9MDNgW1B5kG8oMqgR8GWwYLg7cHP2PbsbPZu9qsQlxBZyKGQDxw/zkxOUygWGhFaEtoSphuWFLYu7EG4RXhWeHV4V4RnxPSIpkhCZFTk8sibXBMun1vF7RrpPXLmyJNR1KiEqHVRj6IdomXRDaPQUSNHrRx1L8Y6RhJTFwtiubErY+/H2cZNjvttNHF03OiK0U/jXeNnxJ9JYCRMTNiV8D4xJHFp4t0kuyRFUnOyVvK45KrkDymhKStS2sYMHzNzzIVUo1Rxan0aKS05bXta99iwsavHto/zHFc87sZ42/FTx5+bYDQhd8KRiVoTeRMPpBPSU9J3pX/mxfIqed0Z3Iz1GV18Dn8N/6UgWLBK0CEMEK4QPssMyFyR+TwrIGtlVocoSFQm6hRzxOvEr7Mjszdlf8iJzdmR05ebkrs3TyMvPe+wRFeSIzk5yXTS1EmtUkdpsbRtst/k1ZO7ZFGy7XJEPl5en68Hf+ovKuwUPykeFgQWVBT0TEmecmCqzlTJ1IvTHKYtmvasMLzwl+n4dP705hnmM+bMeDiTPXPLLGRWxqzm2Zaz589uL4oo2jmHMidnzu9zXeaumPtuXsq8hvkm84vmP/4p4qfqYnqxrPjmAv8FmxbiC8ULWxa5L1q76GuJoOR8qUtpWennxfzF5392/bn8574lmUtalnot3biMuEyy7MbyoOU7V+isKFzxeOWolbWrWKtKVr1bPXH1uTKPsk1rKGsUa9rKo8vr11qtXbb28zrRuusVIRV71xuvX7T+wwbBhisbgzfWbDLZVLrp02bx5ltbIrbUVtpUlm0lbi3Y+nRb8rYzv/j8UrXdaHvp9i87JDvadsbvPFnlXVW1y3jX0mq0WlHdsXvc7st7QvfU1zjVbNnL3Fu6D+xT7Hvxa/qvN/ZH7W8+4HOg5qD1wfWHGIdKapHaabVddaK6tvrU+tbDIw83N/g3HPrN+bcdjeaNFUf0jyw9Sjk6/2jfscJj3U3Sps7jWccfN09svntizIlrJ0efbDkVders6fDTJ86wzxw7G3C28ZzfucPnfc7XXfC6UHvR8+Kh3z1/P9Ti1VJ7yftS/WXfyw2tI1qPXgm6cvxq6NXT17jXLlyPud56I+nGrZvjbrbdEtx6fjv39us7BXd67xbdI9wrua99v+yB8YPKP+z/2Nvm1XbkYejDi48SHt19zH/88on8yef2+U9pT8uemT2reu72vLEjvOPyi7Ev2l9KX/Z2Fv+p8+f6V3avDv4V/NfFrjFd7a9lr/veLH5r+HbHO493zd1x3Q/e573v/VDSY9iz86PPxzOfUj49653ymfS5/Iv9l4avUV/v9eX19Ul5Ml7/rwAGG5qZCcCbHQDQUgFgwHMbZazqLNgviOr82o/Af8Kq82K/eAFQAzvlbzynCYB9sNkUQW7YlL/wicEAdXcfbGqRZ7q7qbio8CRE6Onre2sCAKkBgC+yvr7eDX19X7bBYG8D0DRZdQZVChGeGTaHKtHtleOLwA+iOp9+l+OPPVBG4AF+7P8FV4iQCeaUf/4AAAA4ZVhJZk1NACoAAAAIAAGHaQAEAAAAAQAAABoAAAAAAAKgAgAEAAAAAQAAAaagAwAEAAAAAQAAAqgAAAAAsfrQkAAAQABJREFUeAHs3QWcbVX1B3CRVBHsDh4odncSdndigNjdraBigd2B3d2Bit3dgQoWih2opH/+3zu/99Y7nHvPnTvzZuDNzN4fP9u11/6t2Ousve4+MY8tTjrppNOcvI1zTj6/SaMtttgi8j0rveEm2WjCKzYChx12mAzZdddd/+///u+0pz1ty4oVeyVPacersMxreKt5EUsLaEm8tPFcfdpkSEuS1XdZl3tFyZlZCt8pXfJq5b20Ll97/MI3okWgRaBFYHoEqnpUPRnH90teyYxDl4Sz3PqXxMmm5JSPgMTopqlhWpd5ynvVLK7QCEieeD6ePxtLXoGWaZHT9Zsdd26ZPFlWtdOXObvpoWisYv2WltWlT6y6dDd6azA+3eXPSy9VfIb0zOvAjIAh/UPXfUa1U2DrS97yGZhd8+zIKeupqaXVVmpPMWK5/d/c9POnl/0448yKv6mil4No+hPV5Y7Dcly7rs5x/zee8rq4zZAed326kwvF9/ZbKR/Ss1B8KZyRWOP6hT0RaPGfMWF6sOXOn565JR8O+b/phpa95CVll28BvmaYGIWFWhzaWhOVYy4UP6RniL8G9VuyNuOFgxwK3ZLwm/4lCeO8ShYa5xnTg90gx/VvNc6a18txdVOUzO5i124UllqEr7S6gKIXp7/EG7GZRMAlTqsL7cr+73//q+Fm4mdz45SJgGSY19D0vT+kYZGnvCF183o5ETCvNmubFzNRc2OulAi4xKrblltu6ULnWoezUvxvfp7yEZAn06veRJcWWfIm6locM/mdnoZFrGFxdpvUZhUBCaDeufpOdh5WINJXYmxW3jZnTq0IVD6kUNSw/Jm3gCxByRu3WuanEF2pIXqK+Ck21fXtFDO6Bg2Jc4odIlmbu9oW/80zGeatLMvtdhKj3Ki06fHjBlgl0qaWvFI04woLX8SMgguFLbf+hfrT8NMj4K5WjXPVEBpi6MXUdD1t9pSJwEL3V9WmpXWv60boGOrSLHZhiy95XS2zLGM6viIyHTZuaKH4cQ2nDGfIz1r4Jrqx0vWLgyVUsTNEb2JMuuIrPT6r1f/uNerSi94XAlWyCVoNo3+RJW/oAnSdDt1D9oaFH+LPDijkdGJeQ9PFa7YXx+IvVP8Qfq3pTxy22mqr44477thjj912222VvCkHvbUWn0qwHnFq5U/PjXmHQ9drSLDWFcESL/6QIH4XQ7CGUbLIkjfF3pSpsg2zoDX0ljHFRJtaoRFwVyslvME48cQTjznmGMQ222yj5C3tWW+FBmcVuN3d+93lVB3oMpeQjt2ulflLXtDlcRE9t8AmTs3OLIVdkS5dAEStYQjQBYcOsgR7gCH+7Pp7CnvDpr8XkInDHXfcUe076qijhMuJT/Bb/BOolZI/Q9dr6KdrCN9bL1iPMzEsPYwhQa2bbKNPAbrj6XRPeAq4kEX0wHGuO9ulCzyRabbWNi8gqoZgZagRp24EbAnX9Pjjjz/66KP/85//nHDCCY57eoVvomNLdUErkXpWmv4EZCg+vXBlKGhD+KF4DpXCobrUw5e56fq7swsoeV2xiQuuZdfsFJH4GkC37/JLzxQCfoqVccEFgcfFG2eZIpBPUupqVmYPXa/kybgzQ/whPUP8IT1D/CE9Q/whPUP8IT1D/CE9Q/whPUP8heoZwo9fwXCG8EP+eBIyUVXwXanBksdkF9elp6jO1LzgroaAFyTSFS+6p6E3LNgQMRTiIXzjL20E1Dg/7PXb7nJMvyILvb5D3g5ZafoTseWOT/229S5Q4j9kvcA9QG9YsC4xU8mb5fIXpoiumXG6C+vSQeL0vB/H9HR2AV26p6cn1YabSQRcplw1eyB0lb8Fedi99F3BpUqDpj9RHYrnUHy616JLD+npYtALgk0HD5a8MjnjGmZM0NJWRAyVlwvVU34iujpLIX6X7mK6skP0EL6rsyvb8InGQuNTcauSF07xu0FGD50OerB5h0P51vQndAuKj4s+dL2GLsQQvhv/bi7Fny4nmsPp9viG4/5PYHWd6zlERY9T4HHVNVVEyRZRU/HVcFzPOLikekQXWQqDqeG4/p6SNjxVIuACaa5gLlCG4Uz0p3utJwJmZDIxEdn0JyxD8RnaR0PP1Ibw3dLWvRDd+Hd9mAXf9Xwcv4CSF8NdV7ouDi2pMBEcEi8Yoovp0oXpMrvhKEBPSZc/RHd1djEL1d/wid5C4yl/slsQZCvZhuI5xB+y272ms9BN//QodePTpYfqwHjpmT1PuvrHvcpsYXoJ0JslPvpd7YGmu5JZiiI1Jz367CWqe6owtSRxD4lPKsxIFScmen1Pc2+2N5wInsgswViv4aKJIStNf0La4jM9tdZafBa6L6aUTlOip/nt1Cs7OF39oRf5T4TS6Mqln3IJAaoFFqv6/Bog0jILPKRtytREEWqLH9kup6aK2BT9pQQxZKXpT5RafKbHocVnenyG9pHqpg2dMaOTrPBO/s4ziOl9bEcL5LgrBSg93cuJjpcIDTht6FlAKZmdoHB2MB9mB0MuSDl80z89vC0+LT7TIzB9Nn+wCFNVLxlV+7SGk0te4cbNkDSbNj7b44D1OBniK21UqXrhoLWJ4BKZMjs+Na/CnsiQqz1YDad7W7Aimv4KxUSixWdiWIrZ4lOhmEh0j0qq3ni4wrFtJ5S8cXTXRncWPbTzTWldwdBh6vOHRIUpPcXpyRagxx8aDukZwjf9Q5EJv8Wnxacbgc1zfzlCxTH9xIzF75e8WVYC04Whe9q7s+NhymzOd4UsJT1VJV7I4kwnhvQMSTX9Q5EJv8Wnxacbgc1tf5VvCou/zq6kHffzZCVvlrTuYkpdMUPUsPxATJwqDYWcKGt2HFkiE4munq5sl98V7GK6/CF6SM8Qvukfikz4LT4tPt0IDO2vefMkAOJDyI0lb8hG1w/0EIyBTE0E1FT5UbByMYYK0LO70OGQniH+kP7yswdYqJ6eeA2b/grFRKLFZ2JYirnS41ML6REL3V+JwyxSG0te0OMRLP74VNdLs9XwSU0UDCaArnjAXc5mQi+3Y03/9Avd4rO64zN9dbPPdvMk/ypPSk34+hAUzvSfFyA8r+3ClPZwil/EvKoaoEWgRaBFYGkjUPXnZCWvuF1jXWaX7mKG6MKPE0Mijd8i0CLQIrCJEUjBqZNdV9vGG9uqSt3poqfPgnVthO72BYjCebWV3Ua0CLQItAgsKALKS6/YhZOys/6UN70GZXY6Jj4VpifS5Re9oGU0cItAi0CLwJQIdAsLulpEDEMs8m9se1q6fpTqiUQxuyKNbhFoEWgR2JQIKCx1sqsiE05NhX+yZ3ldkz350tLFDNETwZjhFzEk3vgtAi0CLQILikDVq65UCk6Xgx4seT1cDcdV90pY1bUS6RLTZ7vIRrcItAi0CCwuAr2i1FUyWPKqNvWEw6eiiG4RLGbXRsBdPV2RHrINWwRaBFoENiUCVYWq5hSH2sGSN91kV0XR48REJWCFnAhozBaBFoEWgU2MQBWZEDWcVvIKNIvtiWDMifxZFDZMi0CLQIvA4iIwpexMK3lDxrrqunTwxRknAMKsqSETjd8i0CLQIrC4CFR5QYSuHjFY8gIaNznED7Jme0QNwbr0uP7GaRFoEWgR2MQIKDJVZ0LUcLDkzWKytARcwyK6/C6zS89iqGFaBFoEWgRmiUC3thQdIv0mlbyuB6W9x+zy0WldTKNbBFoEWgSWMAKKTGnr0piG85S8nsCCPi7pyZYTjWgRaBFoEViOCHRrTpfu2jpZyQNKq/9KUBeKxq+qB4mzQWJjWcUszAiwxeh//weI2NCG9MMvYYuHpTDGazhOBB/f9P7VrdJwwgknwNcwst1V5N+e1vcwlAB3keN2ixNYbBWzS5Se8o25YsaHWEzfc6arqtEtAqsyAopPJX/yX1/Nkv1L8ZPbvOHo1rUZwSVSxLyCmwJQCyy1NBhOsVuFg8hxxx0Hmf8GG3E1aOutt0ZgptZEbYmYyn+9SJ8pfeIuuGB6HK3+Vf4URxyyXT2GsRVmlOj5ABw9hvENwaUw4fMfeaoeJ/rpbK1FYHVHoJfqGdZ+D5F+q7/97W/dWJRkpmsYjCF+mN3ebBfZnTrpNBv/m0OnOWl0bko705nO1LW75LSakjKUqqEQaFW8xs2lcEQKMgCuWq8alCoTZiKAE/2YikvETSFwEJTQpkeXYNXEyNJffkYJZIzSk4oW2dTB0hxmjIYZK5TUMHqCbH2LwOqOQO0yW+A///mP5E/+b7nl1pmq3q7Rthrv5wKU296T9RRt+JuNk/GH8PjlzSkZ9CpbiC495INIzS1tNK/W5O4S5/jjj8eJBsMQVpRFKVhmRU+PEyniWqTmgKOSh8CEDwdhiK66GVVMaPBp0Zx+A2/0/wFHpx4nxQ4y+nG4Oi44Em6tRWCVRqD2QrbDxFVudZotnGjsWNsmPcI5bguM9Bv4Dmtm+sg5wfX4IHuy1M3tYcLr/ze3Qzfu6olubTqzFp9tLwQ4U0pApvS8VSxSdwy32WYbsghVJvVOXTOkLfy4mvrlLNZlxgdTwUccgEhVuhiCZAjfEBiGFG2M4iByPkXHblQZRk93NhiCkIFtejCbhhaBzSYCo+0zV2pO5pEtI+E128cZDiH59f9zlFGkFJ3cbM39p7tHJ5QNKtAAo56YzTOqXyOB0T+ejJ7bTutpGuY24Po+GiZx1t8Lkx1t6Lk28mCZW0oPa7FjqDqoI1OqQAoH30gBEyErfsqHepQIHnPMMac73emiEx9Mb0ojRb8pGrSyayqqAOauRwI+OpeBhRnTMRfB3MnSD6BlmCk9wVqLcyj3YGKUiUyVDyXViBaB1RoBaW8LZHXZbqFPO1f4shfWb5BeCGrOtiGZhu4N8cMZ4m8Q9f8KAfDc/0486X8njt4wkurZnRsqMSnhkyYXyBMCEocddtid73znO93pTj/72c/YVX2mqMmpKoCPfOQj17zmNR/2sIeRqoIipuod5+O/KWAR09SdEKl9mfrnP/95yCGHfPe73+VMZgleba4hwjH1mc985r3vfe9f//rXXDM9Zm6olUIwVZWhzKKzNIYoMYzbmWX3pz/96fOf//zPfe5zZOPGlCW3qRaBlRmBabXCBrE7tjzt1qfdYnRwsU20EPqN/+2L3sqzr7KRaipDmxAndBfQ5aA3wOpshzd34vPVyoZDUGleDuKLX/ziPe95Twuxzlve8pavec1rrn3ta0835FQFwL1LXepSKVh1hhLDuP2IRzzixz/+MZ0Z4qckPeEJT9hjjz3QUWKxP/nJTx74wAde/OIX/8AHPpB4kvr73//OBCIcw0c96lFHH3305S53ubOe9ayuDYUAuc9Vc//4xz8ahk9n3FPOANi64Q1vaI1HHXWU11AXuMAFvBRCW6mpa13rWjFBpLUWgbUTgexNn8aNdtnoHnd9SwROVvKyoyo0GfaYZnG6zKLn2KOOBTD25sAb8fiFKStLReTeMBWHace0hz/84Sze9a53tfPf8IY37LPPPs961rNud7vbjQKx4dsRdLzC+d73vveFL3zB657tttuOn3r16ClPecq5znWuuK3u3Pve9/7zn//861//mhRbTliZIm5oLSlYCIArXelK17nOdT71qU+9//3vv/Wtb42ZE1nKGQDrypN6d7e73W3XXXelip5Utzj5zW9+U+X10YwyqpmCYUIfwOUvf3kiL3rRi1TVt7/97eomvsYWvr61FoG1GYFszDxOs9eqnazkLS40dNFesoahi18cxa9gS0iwzoRqoiKoC2rfwQcf7OZOZXEiu/vd727zn+c85znwwAMf85jHHH744XrWSaW4VK380Y9+9NznPvf0pz99qoZZt7Hvfve7iePAG97oRjfKPezHP/5xp6rUoEte8pKUqD7xhPJoVpse//jHO2wedNBBN7jBDc5whjPQw9VIgf3ud7975Stf6Wh2//vfv2RJxSXgr371q8wpZ09+8pMdBpVvs/e9733dC7/rXe+6zGUuA0kPpL61FoG1HIHaQbaYZtvqTzrNaMelJTgbSx6Bbrx6w+7UAumopU9hUjimbM7FnErsdmtTRPTKgfu75z3veR6NGTrT3fjGN8bksGOU20ZVw3HvyCOPfOITn3j2s59dIEyplbl79ZDtxS9+scMaPm/Dp4eJf/zjH2c5y1lMKXOqaoJjSnvf+95neP3rX3/HHXeMQjrhMXnlqPjUpz6VrMOjw9q///1vIgB/+tOfVGTl9VWvepVzHLDDIz4TqnNMQBqCkaXKLD4OwqLw0Tk2xh/81loE1kYE+rXCFqjdZ8ManrTliKP0JSAFUPLUIC877ChzI7rbD/BVio3IDqbP5wZ7jJXVkStzbWkvjOpgcW9+85udpxx8FJfXvva1u+22WypFfLjpTW/qPOXh2ic+8YmPfvSjzl/ebGy77bYCpHBwSq0585nP/OxnP/sXv/iFM9Sxxx6rYJF147n77rurmJiKFA5b0axWOnAR9xRPPUr9/da3vrXXXnuhRwGf+7XhD/0Amjq1/fbbU4imKpcHzW1gqnh+1ateNeLBqG5qHDqlGYw2stpcLNd/qhJO61sE1mAEbIqs2s5INcDR7JNsFjTAaBvuuMP2tvDc4Wtj4fNRSwpZt7c9w1fIOmVuo1SXP1fs1NrRuW6DK4yMvjJLW6qrYnkKwQ9/+EMP3bwuUBqucpWruA3ceeedGTKbdcacl7Ce8e2///7qlHtYJRJS9clsyt/nP/95B67vfOc7novRoPQQ+e9//+sthHMcpJpFbU5b+O5wYRwny5zC6lZXXYs4pELp65Zvf/vbah8rjnXeLVAFkGOaoqbCunFW+FhRTy1EXfbilfKf//zn+Ly1TNr0BJ/znOec4xznQDixUpsltL5FYLVHYLSjh5rtoLRtt936T8rAttpq9LnrqPjNlTx9bmxHVWmuivn/3HhO7mEozc3pBvzohiv0yflzwJNGVQ9gDhPOqA9nSXrlww2su0ulwXsGBzf3p+4EPZhL4cBnyFINHZSUjAc/+MGeu3nY7y3E/e53PyXSgz+FRiFTevbee2+3t+985zuVPIJKz9ve9jbEPe5xD73yqn4pQHoK1UdMr00VMibYsjrV1hNAfMPUXLfbj370owHUZedQh0dfz9z2trf1gM+rYSKQfAvBIlmNex/60Ic4jEPkiCOO+O1vf4uvOHos6BGhKXbvc5/7lMicXOtaBNZ0BGyH2hH2lH2nF5EQo5KX8XiQwh+fLRUl0uV06RFgi1RP1PpKB1CCm06oO85ZKsu+++7rdao7Sq8v+awcKCJmmdNw9CkfjF7oQhdyhlLLlEtfgeywww40wIjUHe5wBxXwHe94hzvfM57xjF4g+CQFPh+4qInOa2CKlN7JizYljy1EClxMA2iMevngcZ4q7ERJuapH8OpXv7p3LO5hz3a2s93+9re/+c1vfsELXhDYFDc0qnxO6N5csVPUfvOb3/gIRjXH32+//RxCnfLUViXv3Oc+N8FNj2TT0CKwOiJg31mITWRfbLWVrZHdoQiMql5OeQtYKRm6CHS3WXF6xAL0Lhbq6Zv3Fbb9RS5yETrcMO6yyy6KTh7PIT75yU/ie72QoqbH9BbCQclnK97A+gZYoYFx5vrVr36FBnCIu8IVrmCNGlWe7jmOOeKpp5CYDnreUfjMGG0KU3mlXJ/ypzIqdoqaoxlbL3jBC653vesBpw466z3ucY/74Ac/+Na3vpXOl7zkJW6N1b4rX/nKcYZCN8hqrptW5zulzaeFubN2y8y6Knyxi10s15Vd+NZaBNZsBGwru8D+qggYFif89OtfPhYuhI2kodN3Z8MhPB1QgqcdPSgcNbroieBouESNQq8OKEQoN/kApXQrUpe+9KUNPblzQCs+whSOVxbayL+TTnLDSAm+g5WHdKqMOOKniqE19UjD0StJDmKOis985jNf/vKX00lcvfNG+KUvfalzIv1qky8BH/KQh+TjPvULQKPBkzgnU2XX3evLXvYy5c9x1bGObJmg08sWw8te9rKpd3xgRRWmwSz3DO91r3splxe+8IUNWTSrxwdorUVgLURAdcte0IdOb5sgRKC2w/pTHtzKjYsqYFXZ6ll2yoFKUesMgV/VJPVI9cmU/tBDD1UsxCFlJQXOUClU/gKj32cuzNGD9t2fZ2pehqhWDowR9G7XJ8RoZcidrOMYW3FMMXW4U/iqntJzi1vcgqwPaxz37nKXuzCUtTDthcxjH/tYXvmSmQbHT3h8gKwxl9NNsfOpD18cJ7/2ta/llArWWotAi0AvAgu+sbXxeioMJzLHYcvBSSmhOdUqhUkhQCg6iPiGqBKWqqFkRKS8IqK6+SQFUm3S15S7VKe/c57znFGLn2OUG89nPOMZ6tQLX/hC99R5S0vW0LHOTXc0pIRR6I2EL6IRPpAGq1k10YFR4xUTCnFMUE72Jje5iYd9+HE4R0UiShsmpN4nOGRV0ghe4xrXQOBksejWWgRaBERgwSVvE6OmAKUGbaKecXGFwPtTN6SpAqwoc5gZeqXbPVil3nnAp4ikLihDCo2/hfBYjQhmSh6aHub0Xjh4gYCjKSW5NfZi1ycpP/jBD77xjW+4LQXzpkK9g/nXv/6lKqlNVHmz7Pmgv2kjBa+2KqMwDLFryGE0cffLWR3aTa7q6WCYygVDxGfVPqxxI6xoevscsD/MYI4e5pRIDyLxW71LcFrfIiAC2T5LUPIomjegMLPA5tUzDkjVsLdVtAc84AGGqphKB6lkMKpHe/1qSunJEK0YeSlhKnUBX8VRMsh6i+r9hin46PfCVDGFNITEd/hSXGD0Hib690t8gazkUesW1dsJeEgOAMNQDpyiBuzLmAxzZ60OAvMc2IvdO97xjobMKX++IoSsRiErhr4x9O2LSudm1tqf9KQnMZ3joVmGqKKkBBvRItAiYPtsUskjv7ggLlpw3FxtbJvcvzuS+00wu11zkvIXXYb+LtWHvsBM61O8EEFiqmV6GM3bBh+7xFamHvrQh3qNoDBh0qmypFAyivDeQLnxB7MxqmJ6fZzzY9QyRMS3eP7gzNHMMVARvMQlLgFPXJE1ROArXvlCMNa97fWEUVFTi2ngjEZKr6Ti+H7Qo0MuwQfAE7SDHjfYBY6q1rcItAiIwOSSl426UgLE2+xt3xXzObReXVBH8i7Vv6qiPEFWCTBE64lEg5KhYiolntDlxJSeHtoUJtUKoQClxKBjzp9VKHDeIRgCexfhexezFOKkKXa+MiHoGxqnPLP+UYDuHStYwl69CqtKetesFMaoyshDtoD56U7ZbS+OZWp0aoxalNfB3KjFrnei/V+LwJqPwMY9KRS2q/225DGhdsl1lkK7mn693c55u93mDwdGnTIM4QAVqSBTIzJbeOJOed5gKBypdxGhPzenCHyqED4NUX38NZjbXnpyr8oH+s1qkdX7CzYvXn//+9+f73zne9Ob3uQW2Ocpvm5BeHR43vOeN1IE6eGMoZ7Fi170ok972tMwnfLYCl/PB38L7OGdP+pw8wvACiYpnuvzaU48KTca0SLQInCykmcvJSL2DCJ9N0bTOb3ZGmajdvUsIc0K/ali1Nr8tc9NKRNxIwRkamLhiUQDAtM5Lo/VwIAVEb1maDbK9YaaQ9bHPvYxs2qWVwr+oKK7rqgFc+/pY2nfLRNUp5zX/KsBb3zjG/1NhePerW51K2c93yErkZxkRVO2YpRmVZJaeoh39Tv9GRL3z7SEz9u5SjsqtVl1t+x2ZRvdIrD6ImDL1KbLVpX/YWaxaMTJSt5SRSH7bUib2emAIcGJfMtwi+fWEqEu6DX6rVkJ0CL12c9+Vh3RDHNLiMiDv3zPAU8wj9X8of7Tn/50B6tUmZQbZy43mDDRKZoObg960IN8mOIuMpqDBCDo3YjHf/4h+MMPP5yhnXbayYEufyJClTe/HtJ5aOgzOnp8zHyzm91M4fOmleboUfvcCNOGo1kUDkLP+fCthWlMIvqsPeLKtymcRKD1LQItAiKwZCVvCavYgi6MaqISuU/kgFOSmqW3zx3WVBZ1IXve6wv7Pyc4tSCvEdQOs0qPD+4YReOoF24V3bp6/J+6acrf4ZIlCMMQVaz4EiU1EYchzAx9EPOKV7zC32Dg0OZO2Z/H3uY2t4k/mBTC+wf7/LWZfyvFl3rq41ve8hb3vOc///n9w+4+0LMuf5nrTzi4xK5hwpI4p7pR7mUxowh8+hGpiYYsuimOuci2vkWgRWDJSt5QKO09zWyKxRBs0XylR0Xwh/36nNFUB1XAzkeoXJiUhwDO4ShepVgQRODwMM0HH141kAI2hek05+8r0CltyhBCfcEBA0hlCcfJy3+AwunPC4TrXve6bmPz7A+SV3qNICWGPmAGcNbzj8W7TfaKlpMAen847BUHDP004xCJRUvjcKZw0PxR8pwKMSEBiLd6Nxfs1rUIbIzAaC8Z2TMbeXMUzrzMLibg6ks2mC7fvjV0xulZXPRQUVNTiFOrOkRPCkoqFE6VKhUh+AIjqpR4ceEPJBzfHPEKYNYLCmfJ/MslPjn2XbEnd4oazYqLEgOsUR7CjbZ/a0ANij+CnCl9uZRzKA306025lVb73GhTopCVNgRAmikEJYyGYCKA2IoDoWtd64Xb/7UIrOoISH6Z7y8vczKwL7IR9GlWfwqVPJayFfX2oX4JS14uogOOW8gUoLqsbKUcFJGgpO70wHEyPSmzqTs4apaQUdI9zfV0ljjCVIJeGMxeoxMmgK4nPZHeMFJU4ddVDKaQhclie3bbsEVgtUYgCT+95G08PixHFHiwHGq7Ou1zVvQ56OXsE7uYPaRhplK5qhpCKhP6FJHUO6oQiiMpfLQGZphyliJIIQKTuJZhrJAlkqnoiZVwogQAuCqp2hcRmNgyJBuFmKTQpvDZzVRE9JmKZnQcI9Vai0CLQCKw9M/yanOeMiG2zxWa7HmETZ7WZfKkAKkLMLmv5G2myltFRAFKDaIEEU4AqolyUzUlsilApceQVHpS8SSzJcgBpjUEjD4HvdJPCg1gNs7Mwdd/gVh6MgUTH+jJVHSWfsPWWgRaBERg8MbWlhsPUHbdSGzDjs2eDLJmu8PSk1nDEEt+YzvubeO0CLQIrKkIqC1KU/fG1vKdNlKv9OjlvbFdU+Fui20RaBHY/COwXCVPud38F988bBFoEVhrEViyktdq3FpLnbbeFoGVGIFlfH3RiuBKTIjmc4vA6o7Akp3yhKnVuNWdK211LQKrIAJLWfKEo1f1esNVEK+2hBaBFoEVHYElLnkrOhbN+RaBFoFVH4FRyZvxLNaFobvDCpMvX4ruEsFPFOnCGt0i0CLQIrC4CCgv+f7Ot3e+/w0dVak8qULtlLe48DapFoEWgRUZgVbyVuRla063CLQILC4CreQtLm5NqkWgRWBFRqCVvBV52ZrTLQItAouLQCt5i4tbk2oRaBFYkRFoJW9FXrbmdItAi8DiItBK3uLi1qRaBFoEVmQERv+Z5xkd737nMqPIFNiQ3Slf9k3U1vAJS4tn4tDyYW3mg1XXpUfYDj7N6/5LeQVY+n9WIBGfty//5kUG0PDTA9Xi0+LTjcBaywf/KniWnH+EGJ1hxaSGp1rJ8x8MK2+6xNC/WmolXVjRDZ9QtPgkDi0f1mY+5Lo73Clt6cVh/NYH51QreS0112ZqttLcSnMisLT5r5ZpdOY0V2e64pTRU63ktdTPNWilP3Fo+dDyoaoSYqH5kHqn7xa7rsKaOtVKXtvquR4LvbQNn7i1/Gn5061o44e7mq1il7J4qpW8mC+3iphSpAvTJRo+0WjxTBxaPqzNfLDqbtVLmRtPBpz2XV4ypPUtAi0CKz4CKpqWn//QWVL3QDD5lAehkakYGBY9hZgRNkVDm2oRaBFoEVhcBFJ/Uri6dDjpB0953Xq3OPNNqkWgRaBFYHOLwGDJ6znaKmAvIG3YItAisBIjMGvJW4lraz63CLQItAj0ItBKXi8gbdgi0CKwmiOwgJLX7m1XcyK0tbUIrI0ILKDkrY2AtFW2CLQIrOYIzF/y2uFuNV//trYWgTUWgflL3uyf2imOrT6usfxpy20R2BwjMF6LqjTNX/I2xwU1n1oEWgRaBBYVgVbyFhW2JtQi0CKwMiPQSt7KvG7N6xaBFoFFRaCVvEWFrQm1CLQIrMwItJK3Mq9b87pFoEVgURFoJW9RYWtCLQItAiszAq3krczr1rxuEWgRWFQEJvx7eUMf4g3xy+68gEIuIbHVVlsdc8wxejr94+D+225/+MMfvv3tb+vxz3ve817gAhe4yEUuctaznvW4447bcsstAbbeemvgE0880ac6OMcffzwO2r+xjkkVPQhTOPhZFyaaOAJfg9RThbntttuiIc0ee+yxpzvd6aJBj6Pd+c53Pvzww5/4xCfe6EY3oieq4jYpw5g+4YQTOINDGynKEXPwkXsaJsesZbvttmMXABinh4xOgvDxwTI5id5mm214mNXFRGCURyFAHIghUszhWBT3iAjvr3/969///vfoc53rXOvWrbv0pS8NzATZKInm3/72t2A0n/nMZ6bHFFuuxY477ogJ7BoldPyf2OhhWg9pyWhK4tgZznAGjh111FHf/OY3//SnP6FpdrmveMUrcpUz8KTikqj+97//ZYusVXCDKr1LQDC9WT5kFSwigAkCIDic3hQ6GuIblzDJ0sPK6U9/+uc+97lvf/vbb3KTmzz5yU/ObNYORgSSeK44mjaN8mjGaW0TI5Agd5XkcuNMKHld3OZPyxu5Isn+/e9/H3nkkVLtE5/4hCznOb6stdTznOc8d73rXe9whztIX3wZb0p2yrCUA8zkZbaK/KsAJXYSlFQKWTQTJ4JGhDakVjXZfvvt0VryOyaOnmucpArMbJK+spwSJuxSPQciC1MAUmjarC4wnCjnZPaMoUaVKUw0kRiynw3x6afBLI7efiZrIZr4oPkWhXp44vhR8rWvfe3AAw/8zW9+A0wP5QhqL3ShCz3kIQ/Zc889A4MXeRfl+c9//kc/+tGUKlOU6wme85znvPrVr/6gBz3Ib1IKysj8pBYPuZHgs0g5EcqV3Wc+85mf+9znLIdmkc+K1NN9993XFbcQocjqGKWBNo5hJhR6Dd9sCqipWmxCRwkMWgPjv0YnVZD6sgJmBbTxxNX2ny39xz/+QSQxhDSlIMLgRCE9URIOVZRPCkPjLVkERim7CprE+v73v3/729/+U5/6lMSyB6585Stf97rX3XnnndFOfDbqfvvtJxelmqzSS0FSNo8NmV2Bo4lGAAgbAFJSJjWBg5HcZAGSr4b4aGDWwbKvSLFOPz0AXdOSW5Yn0Qkm0QGcSjDjQ9cTqmKafhspDkPa5NnAZilhDiAOM2FIZ3wzy894QhzNSa5GCgY+StLHDb2V4ujf//733/Oe91RobOaznOUsu881xzcLdJR74AMf6FxjS6sdPFeSrCXhZeKMZzwjmB6N+Otf/0rbPvvs8/Of/5wJThKZ2LhKoRXFPcOs6+tf//qtb33rL3/5y2QFwcnuFre4xS677EK/cqPUPuYxj+FMlm/VrLj6WSba8iERpsTBkGYcgGqGmBbOAYC6TJgs0syT8pxULrRVm6U5fS4BcbP5bzeLDDBnrNcsJ3MF48nEIDTmEkZgxZ/ykrWK2v3udz8bTN7c5z73sZckk1TW//jHP95///1/+ctffvCDH9xpp53ue9/7ZtskC6UsGCWyUAbLbz0lCFMUSnS0XiqrJmSByWbDyFdMSEwJLa1dm2wSffTQjKDWFCQNZBH4OKyjbQ8AtN2FyCwCUsv1hidrq5zpTGfScwknXsFwgEUcxJzQ+uOhJQiCnk6brYbEqaUQXx/BGIrF8NFmgd3MPv7xj7dAyFe84hXXvva1qwoceuihj3vc4yzhKU95yq677nqxi10MzCzBOHPDG97wgAMOoIR1fKo++9nPvutd7/rd736nSrrZh4zp8Z4DwsKoqSwE529/+5tDpSAQROy1116Us2Wohj7hCU844ogjHPY90JAJ8Fp563olzq4XWpDJAjABYxUWjsmcq4aTi+jkLtRgZvUppgGwm+hhEqeNYzD066mihOfEE38wIjENiQlAA+dTW8eD0DhLGIHBX9cltLGsqqSL9spXvtJ2kl53u9vdZLmUQstOU5e4xCX85vNBgr7sZS9zSJGUUlDOzYmemPzWy0V7SdpRlWwGk7VgDlZoStCQslOO2jmYCIJ6ufuvuUa/6hOYPRBnAMjqydJDLQwagC36PfZKvaOW5wkagAZMSTYb5QBKfDyJcgCaiQSGBkbDqD5///vfmdCsCz9VkhIwzCyQLDpFE4fzGoBGD0FnZK5iPu95z1Pv8AWQFPecpl/4whdmdcoiD2NaQMBgcNilHN8ar3rVqzqCXec61zF0WKOTfrCJLe5l7TRQpbncVkHKtd57773VowAovOhFL/qiF72Iqxb4kpe85I9//CPHIHOleKvKxBmaPQfUU8s0WKIB4JyIxuFbwpInEgRxNKvghsC64NaYiAkIQkOwLvJ6mhEEEYrgnPujn09XMGDWzUZkShwmBqcxFxGBFV/ypIscfd/73icRr3KVqzziEY+Q95pYSCOzEvfc5z73wQcfjCnjP/KRj0AS0ZwvbnCDG7zhDW/4zGc+c6973Wv33Xe//vWv/6Mf/Sg5KpVN3fa2t3XTdI1rXMOzJ+dHd1Iy1TagxC6SwVKWiac//elupa811/LQ+i9/+YvMzrZhmoieP8Qx9SoCJx1Gbne72ykiN7vZzTjzjGc84wc/+IFZSPrjcwpHtha38d2n3/KWt3zPe96DGZ08sTrO6DGZQEAyAXbNa15Tubc/gXmiRsOD2ZNsofXRTyrW0xvS4KTs1hXHje0ee+xBCceynzG1K13pSk5bCoGd7HmfKTqFiLhmJxNJVBMQjhGxFoWefhVKP7HxSqCIaxTC+Hl45zvfSZYnngZaDpq5LJkzHt2qeq4+sLMkr5jjg9Mfkde//vWf//zn733ve1/2spd1uQ8//HAaICl/y1vecpvb3MZ13G233fRWpCILKQAfaOaM9s9//tNLictd7nISRrvpTW/qkOv9iVXzIfmQkPI5yyeFw42PfexjMsrlUPHliUfPHsgwDcCHKXEw29qSRGDFlzyJ+I1vfEMvvbygkHCIJJDUFCNT+stf/vKelNuoHvbJYExbwuZxrPvCF74guSkhK/mknTT1g3yPe9zD8fAXv/hFlNtXX/nKVx72sIe5QaaQEimuKR93uctdbEIHAfol/Z///OcPfehDnjT97Gc/o1Ci8weR+sU94mgmbAA1GowUjP2vdju5fPWrX1UuwQLmgFle4XDP7qVNDTrggANsuZe+9KUsckNN0aKcYLYfpM1mVslzHHvSk56UTR7HaAaLfia4io5dHiIwNSGyfBwrJYiTMgGgCQKm9SI4KZKs46DBgKnF4QMOgj9mv/Wtb7kEKgsAZlRN7F2XWLc6tBoRzR7ecYm4ntuU6GPCG2QPMWj70pe+lMsKI+DOZex6uOElL68A9JRTIuzPetaz3BfjcI+3Xox4QOk30ir8WiQykMqly20VNJvyMscrGr9YriOFnIQRVdEwq2XIMbBHPepRyQribjje/OY3s/ud73zHNXVlc9EpaW35IjAt1ZbP6hJqlltyTsbISC8ravNIccmHqck2za862oaX4qaIyEXNoyWP1R3TlJsPfOADvnKQ8Sqj4x7l97///T/84Q9/8YtfdEO3bt06U895znP4TyETho997GM5AOlJlvPUJz/5STd3Huq7OULIeBsDniG+gZHCRHzve99zzMRUtt74xjcy8ZrXvOaCF7wggMKqHPOQFbIwWgh6EE972tNsvB122EGd9WTNaYX/dk4WyyI8K1Th3PGOd+SbR2yMvve9773Tne7kSKt8KwHiYAn40W+XVrgwNbbosUtzADn72c9eSJ4AM4FDjyV7pwEPHD5APDGkKhoQCrRT2Mc//nFg4U000BMbWXrI8k0ZQnhOh6m5h9WT4oOpLDY+K6YXv/jFRe+www7jAxglhpoieLaznc19uovl18tHNpz3E/WTn/yEJw7y3qsIjptizyXhXW46cyTnA4edeZVFhIeYwFRZuDD69RIKYHoQGqP4wHxzdR796EfzxBFSpfM083Wvex0nARRWt9hBTgxCYy5hBCa8vkh+jNsY4o8jT0kOr9xCSjIZoyTJLTkn2/A1KZsNo8zZIVIcE+03Nj/mZoFVHOUyycp5GFtL9tvhDi+Gto17T9oe+chHKkZqnDMjvjx2q0uJO52b3/zm3EB7cWxWWXFqc8vsZopvGs22okLGSc2mwrnUpS7lLEm/+y9HUfXLfa6iYC8pavh0MpRihOCD3hsMr2s8uLRzvAHgBrzVKeuebbm9thYmgPUW6wxyq1vdygHnbW97m2ruIOaW7fznPz8NcTvuQUY/x3AM6bEiGzIR4MZoK8/dr9FsljMiGT+drT796U87OFNCKtEAUFCcmHAodANIufBe8pKXVCM8aY0tYMTExhwlGimGOMM09853vvPBm6U5i4Whx5Sh72aYc635bAgTGBEVxwUySxsRq6BZPFVtNwpZoxgiXG4HQwdqN8sW5VdQ3AgqXu5PYxShbipbf5i7qXfDHluVYFzixstf/nKuuh1WQwlywwOTF7/4xbKFCb+1btJz1SYGoTEXEQEXd1xqMM/GoZstR2pKMqczKZWty1XZbIiQee4X5LS8FAIAJwL1RenBhPEEkCykRNTM+tm/8Y1vnNqEL9dlOcIjGOKU2APqBY7nbnqaHZ3kq2aW4BWucAVPkQjaWtwjTqdZR7+o4pL9A6BC4ccfzpzjHOdQgzxDpNmiSFkIDU4Z1KLjDD/ZpcqDJEc8J5R3vOMdTnBOjg996EPVAv6ocaQia8sRv8xlLsMxL689QHTEUH2cFl/wghc4Bnrp6ezDEz6wS3mI9MSF0VlGyRYfANsYODUIYdV8YxffLxBO1mvIYbN+J0jRxnNDh1NnJaXQB3qCT09dOKa7jTipxJCgKUNr2WXuexQcvhEXCkZjDoatRJ7bCoo4kGIC3+U2ZQgfZ/CFkUtgzCW2NDuOUUWzX7gszQ0BEwLlZ4lmXgHT6VGvy+2apgrjaMk6hkSMtjx+ufvd7x6d1PKcKrfnfnHdUGeNBAFaW74IrPiSJ0XsLgHyZMROkGFu91QWuSgpZZWERshvWx0MQH2RcLYoWXybhwayYdo/8p6goaLgACUdnVxksIeDchcSgCqypihxUpPWNkMOcakLTjGYzGULSWgAygky7ahCIY7q5gRELT2QiLyKsbs4QAofjFELQcDQacg6Q7QBqGXOd44JZJ3jbFFHCfet3jZQwhC1TEMSdBb2MMv5TuFTKD0ae9Ob3uQMom7CsEg/fBaIYNGNP74I85wP9GgANNOfaOD/9Kc/JWsbc0wA9WA0+HlQWMmKs0vjDOt+01tXJ1NPLb00UExjkc5ei6GaNXQ12XJ7y6V86EcEnxtWx1s9DG/BMJ2IoySeu10tn/FFVcMhQifH1GJP7izNDxsRDtMPY2mmrMJhFi3+xLU47ImEikmKA4xSiEjkgX/1q18ZQnp24bYAn6D40OaxoCm328kNhqKw9csUgRVf8iSK20/RsZ28alB9HCgkk7SzJWwVG0CNS3mST5LYPoGXlBJOtuGE0KOzAVQ3L/jcKpKlRIKatSv0bn/0SXoljyHnFNp4YnvA2DCk1Ds0Q0wDM0RKD6/3SDH0d7/7XUUHAJ/pbCFD4o5LyjcYByJFG4x1WaymrJiK/wBOTAqf04RyyZZjC21UcSPK4wa8aihENr9nSbaxIUMwKdysoGnWQjsW/fCHP/SbQS2dFhs/LRPSAnFsY/UC7XJgMoqTWXdzOcq5Fqmqe+65pyeYXo86gjkfeS4GydZ4iw+0Mc0KgIOwmFiL5wbuXhGMgnGGRbS/vrAQ9VegLFMTtIhwm6r8nhHEp9DaVWGPJtyVcyOrQ5hNnGHo54DfErSjnClhRFOSOks/gNXhsIsJYBgmVxF8c2mc7gmiicRD2pjzK2hpplpb1gis+JInfS984QuLkZTyW+psJadlksyTRlJWn/xz04dpkyd9wWwAeQkQ8SQoDrwXC15T+uDrale7mmcuTNhR9oZPQyiHkaa0+djV1rITqOIAc9Gpp5NmTWazqGEaEmQoZRrz2c9+tmMIVXTmZARD1pTaavvB00wJpiECwJZmKw4bKrXesbz2ta/1Vw1UaZ4D+osrSsxqOGSVtmx4X2m89a1v9WiPSxR6GgUMYNZWTDT4U9YVR08AHXVtS8cZCjmglAgF98AMVQ0VhyERpoTm3E4mzqxAJm70o4VO1eOJGg1PEH96S1Q9k2WIUSXYE1jMuG11rNCTGuRyw+T9gB85sRVGAWEC3hIY5Q+OnzffCXplQdYtqvtZTyrUTVdfZOAhhVqvcHs545kdQ9ZOD1spqaMozz3BTECYNkxK6F1K0QD2ERLluaA8Z12fyKikwkjz9CC02U2MwIovebLW0UbVsNvdK3nqLFkFJUmZ33NDO9x2BXaySKrJSBjZJu00UxJRZktlUt6fmvIGQ+2QrJiklDYiUt9UxHNT7ASEL6EpiU6YnPikPkHMKOcJW2jvT20wU3ajp0sAaOI2M+WpJsDZ2yltdMKwC2Y3chLHHzC4LXU/Sy1B28nNrL92CID1SGWPKQpue32Y5iCML2ie1tvVbjxps0Yu0aNngnUKNUpE1csWO9wnxwcddBAfxEQPzDcL93vgUBx8vjGO83qmadMSAT39pFjMbSlPsnzg8caEFv/pR/v58YOhTrkZ97Gkf0qABs7wkzhV/PE2wOVGe1LGnDASrAvBGYuNLWDK80W0a/3gBz8Y2M8JpscaLBJ3OaJBpjkJOqnRJhowpiwkJhyrU9rwATC1+OZe2KxVw3sKgc86N+jnFTARntCJMx6ExlnCCMz/07qExpZPlaf18tvDFx+FZivKJObkrpzzPM5hSmLJubx4NQUg84BHiTnXaLATwNyGmAV2ErGR5LQhpHSXmmCSNQc6LxxtBnvDFw90AINJa0c/hwW1zBEGPiKymbi05hIHyAJ7dJ2MZ5oqsj4ZU1k8ZYOhEFjjAIsxYcglT39UZBXcwyAabCRSPiLD4TkkfHYU6+6jfZGncilY7iUdKJ761KcecsghHuq5mVIK4UmxQpU+5YMhPliss5KbU+557OhplCXwnFp9CuXrXvc6H53AOxELmmXGeQTNekhSTjGUU8iii+V1M0PeqMDADzUipjhGCaRC6XJjOtTvv//+SolZynE4wJaDmI9yDBVih3RTkeUwJIxmlhtZhVObpZn1VERg8cH04hOMWQQ97qPJCqDLnaUZ4rtXZcinxeKjcnFSWDR6YsKFUPUM3cWjaeMAW2adLn0y6acIbQqmtWWNwLRUW1bDS6Vcotg2++67r+dN8k/OuSe1GfAllqOWh/S+P5Bh8t63BXa4jNSytxGktFQHUjgy2ykJx62iuyeu0uPLBl+TpQYlXwF8VqKuEVdB7HknTYnu+XQ+0fJXH2YptD2I0GNfAVOC8JJU73yhTHOYt2BS/wEPeMDBBx/skBKfiRMkYhaBiXakUq2Ucg57w+ugpxK5KTOVhQecXk30T1fZpWYVYh9GOBV6n6u84tix3EDYq3rmLCF7L/wMvds1RPukxha1UhgxFBlRUknjpODj02lopUyQUnAtx5M+xcLPCbe5tPfee3voyVs/QvGTyMSWJeu1BHOfffZxS0vWj5AfM09UaWAOx1VwWOOYePruV3HHJ4hDOd9Udi5lgZgUrlu3LudNH3X7AzUAN+lC6icEjB54SBVKddZUwAMOOIAh1dbyXUF5RblT8x577CGG3BABLW6YosRX3JxU4Mh6fppgeljsOr7qVa/KLQg/J0agMZcwAoM3tpUlMTbjxZgRtoQLkLKMyjMHDYXP2cGnDx5s2Wxuvpy/ZJsUlHy+3nCbAyzbpK9DEKb9IMUDgJTiFNLmhaYC546ViPIny2H8knvDyHl07BLxibKCYqvY7bThqAt0gnkizhZw9gzlLGo4Zt1+8tYNo7z3ZxgVOlvFMyMnONpYiSGylARDg83mho5dX0t4a8EihQDxHx2pcDA1Hxg6HOXZFj4f6KGQFcP0YGQtAd8sGifETjvtpNL57tpJTWRUB3eXpNxgUqXZ8P56QSXiv0OcGFJrk1Pl/YwvaRIZTBx4Q8r9xZWzFRon/sR0aH34es0ls1JLo5wzfsm8llXKNdfI5Vaq6ASjxF/UOPC60Pwhay2Yejp5lQsEjEmbyKhxDms+YKTH5cZX3VRna0RD0qN3uX1x6e32fvvtl1tRJmiDceTk25ynG//mL0ML9NmTJPHm2rX2k1MxJ+In1uWmPFeNk60tXwQGS57MWD6rS6tZotgJdqAjkgdVbgk9q5KOcjEJ5xwhp31VJ30h5Z/0Tb7KPHsYx3rlnNyV7nrV0y569atf7SSivpilwYtFpyQ0PKN2DtqjQx+aOGu4DyKYveFwp8K6xQMAg2coVjhgT7JOg/OISuGX399siAkwx3y6peAigrcE2ykRQ5Ai68NXp1qylFPIrqVNjCq8hXPbvrIWMJ6Q0k/EDzEZ9ZrVSv20+FHhnseIeaLHK5XXx31u1QWTBrPsiqRqwn/r1Ztypyk+pJyO+ePnxCrij7UTJKXlqhUnEcDnA4WWQL/jm9Ol2uEBrgutebvid46Ue3zV0J24ZeKID9loSyT1ppijzRSF6qN3U5LHtZY8+Jbjox8/cgSFNzCu+gTHOZdRP1QuED2ccTvvo2U/J9yITiaANeu1fHy9nyhWnEzdByRPyLrcDoCyiJ/w8XDoKjT+pkdgdMwZ1yLu46EPp/jjQ5wwozDDcIouQvaP210ER5ZkJ0g+e8ly7DR3T+4U7HDHJd/Nu22RW0xLX2kKI71shlQ3zGwqfLDsNymepPTL7MzijMM3UzCmpDU6gsUBc6jEt5nd7zBqihSYxk9DBE6CIAKOSPwx5LwTCuvuuw3pZx0YTSERLcOo4j+wjaQ3BcyrOVS/o59j9hsT1GaXZiv2ofONSXFG765WvRNhRpWAdevW2cn0U8AEIpucbyk3iaS1xE89gKnEMBEQChwaEvkQWX7s4sAD5/UU5VEoCB7GHXnkkYYSwBX3DgfMxSWC0JvSaI7yOCkBFDic2ILkmEVRKGeUOXnlZ0+faAOYSvx5kktGraodpuvLVZzC59eUq6Y0q2Yi/ngVZuiEThUfiBjCUAXQ2qIjIIA5oyC0XF8Ehet7UR7XPkqQDSeLmg2n+ONDnDAjkmE4RRexVCVPDiWt5bGl6rORknxmrTN7humsmXsJBAIYn5QeDZmAICILkylW5KVNhQ8JBqORzU6Ifhyz9LMVWDYPKYTeFFngbFr645UtRDZWMNExHbXBoDUa6GE32ngVzfATG53E88PA1Vjh20TwEJN7HNZTxRzx6Mx60XYs5bxKABkFVlYMechnDSx2rQLNFpieoH9FxvEqQcgsfII8WvMcnixzXk34VIhIlPPK0miLQjHByTL5yTRZqljR05DQ4cdDUvDxypQhKeKxaFF+MBiCzxVJfMCIaHTiG/I8UzgaVWZNCYjiyxZmMJkNn35D/gNQQgO70dP6xUVAGKeXvMlHg8UZO1WkrDA55xdVGklfKSuN5Cg6s9lXmJBSKvjsTENS2RgyEhOsmqy1KEpwYPzmS2X7ASf7BCBD/KjF0aiKNrAktOTGIRgHqGIrSO4Rj7euFj3MgZnVE9G4ga4IA2DiaNZLc031CACG7Dr60ZRbL6IHm3fICoxVxGcaEHQm5vxJleFJrMQlTI0su9xIIQDWDMm6aghqSXUbWxkmCOWeoUYPWYJadCaGphCKlJ5FqxYlRLRxCb6CCcyxRIOtyJolxT1TlFBonx8AAEAASURBVLhRsEbilLiObJmKM1ShzeJrBDMFE6/AcGhjgnKNEg1Tb5ibWXhDtuYgC/sdiietX1AEFnBjS2+yMAbQ4dSwO1vggmW2+iU85cnOZHN+jSWcLRQHkpeSKSkl26RmcgstFyVrshbfCY4eW1QK8lMu4qh09OsBslKqwJK4AePDJO8JmmIiamMXEwYHXm82dssZnmQ7IWCA4wMidmkghaYQMl6ZRROxzHIPs9tMxX8K8fU2IU5c6iKn06xbFynmILOTEfTTiVnLF7SEJb4R5C2kq5O44dBDKrI8J4sTGD5Bw5hD4xA3hNd7YhBnCJrVG8IwaooJdAzFPb4BoDVq9QCINFOuSKzoDSUPVWZpJksVkcqfWDTLkziQWb7BoAH05Tw6152qWIx1hiBjGt+sIalylWBri4iAizL9lLfiS550EZckjUyVQxmmt34ZZi/JY718CkePJiVTiSAkXFIWLfOS4kQMgWWkbalPZuvRZtUOs3ZF0hefORxDPSUwPKEwhhCcxEfEKAIA2FBDpGWYKX12gikK1Y7i4NOAHwB+r5k1FZ2pszT3MLMM6bEoSKposAQritpYDxMmAdcDM42Ik1kRcKKHKYaiQXNpq7UAR3mUoOkRZ0g9QeLRYEpM8ItjmcD4lFCoNxVthmhOIrLqAPTUQkYPcK51OLnQpCKb2p1rHSUxlHVRBU9DFhU9BEn5ncBPZCKCDw/jtEsVEfzobP3iIiDC00ve/De2VCzO9ikjJWMYkkZyJcWr7GLKQkNLsA30ANkt0hdehuGgEfg4aHiJKAWzkfAJ4gcQ8RgiZZ8AA6CjJynLK/wqMWbr7GAqCgGS/VlC3Dalxe1aSOmkx+nYzmErsvGWqgL3iEylV6Bp7prrgacMszoAdmnT+JmI6TWREQ0wNExm9czhIIiEr09U8xOF5lWQMHXJRkrnmiktlc5sHKA28Q+fIN9wxFxxidEgTeF3l0arKUxq8fkMww2XlaAp/FpILHIV06wYhi5w7JqigVTwhtEpi6KTn5DEYRBlAszLLtoSE1OtLWsE+rsrxpJq44a7fDRA+iJ6gBqG6PZLdWM77mTjtAi0CKzZCPgtccrzM4MQBIQeneGIs2ZD0xbeItAisAYj0EreGrzobcktAms3Aq3krd1r31beIrAGI9BK3hq86G3JLQJrNwKt5K3da99W3iKwBiPQSt4avOhtyS0CazcCreSt3WvfVt4isAYjcLJPNLN+X89NDMQQv8DzAgrZiBaBFoEWgeWLwHgtwsmnee2Ut3xhb5pbBFoENrsItJK32V2S5lCLQIvA8kWglbzli23T3CLQIrDZRaCVvM3ukjSHWgRaBJYvAq3kLV9sm+YWgRaBzS4CreRtdpekOdQi0CKwfBFoJW/5Yts0twi0CGx2EZjwXZ6vV8a/auH4EH+zW1NzqEWgRWCNRWCoZI2HYULJGwedkpyJrnMg/9Tf7J4M6RniN/2JbYvP9Di0+Gye8en+w9f1r4FOLBenWsnLf8Bh3Kchd4dSbVzDdE7T3+IzPQLTZ1v+bJ7x8c/r59IoFIj0Ey/WqVbyJnojmkOlbQg//QKMzzb94zHpclp8utEYp1t8xmPS5Zxa8fFfLIkbHEgzRIzXjVOt5PGmG6mix12slRRmU4imf3r0WnxafKZHYPrsqZU/vEqB40CVvImunmolb6GhGcJPXNUU5kJL7RRVE6ea/olhKWaLT4ViItHiMzEsxRyKD4Cp1Dt0ysVE8KlW8moNPWKotE30vifbHQ7pGeI3/Ylei8/0OLT4bJ7x4ZX/PKY+F0ivTdzUm13JS0DHewsYZy4hp+mfHswWnxaf6RGYPrvc+dO1zlZal1n04KfIvQJp2OOUii4xC6aLb3SLQItAi8CSRMAbjNSf9PUOt6d8sOQpkz1oG7YItAi0CKz0CAyWvN7CWgXsBaQNWwRaBFZiBGYteStxbc3nFoEWgRaBXgRayesFpA1bBFoEVnMEFlDy2r3tak6EtrYWgbURgQWUvLURkLbKFoEWgdUcgflLXjvcrebr39bWIrDGIjB/yZv9UzvFsdXHNZY/bbktAisjAlWa5i95K2NBzcsWgRaBFoEZItBK3gxBapAWgRaB1RKBVvJWy5Vs62gRaBGYIQKt5M0QpAZpEWgRWC0RaCVvtVzJto4WgRaBGSLQSt4MQWqQFoEWgdUSgVbyVsuVbOtoEWgRmCECE/6J0O6/OZWPWWb8NK8HM+xxZvBnkZCf//znbJ3hDGc473nPS4V/H9V/pBGH/3r/cpb/5pvev6h1xBFHAKAvdKELxT19/RcdgynBiOvDL7W//OUvf/GLXxx22GFnO9vZLnrRi17kIhfZdtttmQAA1o4//vhtttkmUsz961//+spXvvLrX//6v//97xnPeMZznvOcu++++/bbb1/4WDzxxBPJgh1zzDG77LLLdtttV/5QYiow9MRGG37WcsIJJ2y99dbFQYRfGnDQAlKYiTrDjHgpiVe8teRS+I9//ONb3/oW5//yl78IywUucIErXOEKO+ywQ/47LIFFRHB++tOf/uY3v7nYxS527LHH+m/d4Vjs+c53vvyn+ejnrfVOdymLjVdxiQ+s47Bu+TTQE0AcCIw5Q67qz33uc3MyswlanKQ84EyFSZVh/l02tKtpIT/60Y9c34tf/OIXvvCFz3/+8yfOxAPW8yRD/vzwhz+UNr/73e/ApIHkueQlL5mF6GMldv/4xz/+85//PPvZzy5hEhaA1qZHIDnjGmmQ3RTCyXALUe5qCbTLKTpTLmE4GRY+/Boi0gqcYfIA07UszZtCUGglUkcOSdkf//jHak0ZtbpKOICjjz76Sle6UhJLspJNgkZJxQtRJSMACgP+wQ9+8MAHPtC+AgCTndH/uMc97s53vrPUjPJakeJ10EEHvfnNbwa2tyUx9+wZ4re//e2f+MQnZsNjQqK/853v3OY2t1ENP/nJTyocgjZjukPGf6azZ8qHOK+HSQGqheMAMxGROI8JXNq6erqaweih0KJe/OIXv+51rxMrqhLMKNlrr70e8pCH7Ljjjt2w/OQnP7nlLW8JjBl/Ysvwcpe7nLDc9ra3jYddc103ii4fcBSyd7zjHc985jPF9mEPe9j973//wHIp0dGZ/oUvfOFLXvISPuy33353utOdEoTC9OxGQ+nhJ8HnP//5r3jFK1y44447ziowXT4/fs95znPWrVvX08C3b3/72wcccMDhhx9uittZvuRRKB/1qEdd5SpXQYsDPWIIcO973/vTn/60aJDCh89yWj8lAuImVn/+85+FKzQi2ZWe7GjcbUHgyAwy1WpY4CD1RdTULMQUvxc0FesOWclaSU9cFvJc9qQe4RjqP/CBD8BjZojOFIcRNOhlpx4GEQA9OOjPf/7zt7rVrf70pz85m+y00043vOENL3/5y5sCeNrTnvb4xz8eLV9ZRzAh9He4wx3e+MY3Jol33XXXm93sZmpu9sO73vUu1e0Pf/hDanTOdGiNBiZoSEVAaNGpn9jiZKYshwnNUG+K8xptc+zRGYpCexiSb2ARD51oTLRiKp7IBwAKrfFud7vbW9/6VjTxS13qUtZ4xStekSFgtV5BcaiJ5uhMfPhgiO9sjoi3TkyPecxjVJPSH5GhnjO1KHFzyeih+U1velN0AriU0RaLaAt/wxveIOBWDZAgoOMzwSDjkp4JzOQSPPF73eter371qzlv6mpXu9qNb3xj5zuXzC+iIqW6RST6afjQhz5017ve1a8s2rlyzz33dMx3FDX82c9+proJIDfg6cREs3j6058eTVX8wWltoREQOsGsZjj6TY4W17KnbiKnmD3CMK2U0IxTyjfM92GFXxxBnfXINukuRd75znfe5S53UQFpw9dzwzrljeyR6Ml424OgvYcwGyVBkpXTMi8YStDx7VnPehawlLUnL3GJS+ATdHJ0WHMoe//733+7293O3VxZd9Zwx8204viEJzzhrGc9a/Q4JDqMqL9u7hwPX/WqV8UEJB/i+ejabLAb9yI71GdDEgemBwyhL9owcbCv8LvrIsVnAFPRk9B1bUUbDdmEmRJAJxSnNrO3uMUtrDcPFgTQvd5zn/tcv0C//e1vrd0ZMDr1lBBn6xOf+IQDEVlNKL785S8ffPDBfgNe/vKXKxDChR9w15PQuVicyaJYRGQVluxn6ZBDDrnBDW4QMD3SwwUlJaof/vCHuQcfjll6KtpUJQgJHVg8B6MNzc/PfOYzMJx8xCMeUZf74x//uExwc81/jXh0ut8XATBLxr/GNa7BLlWGX/ziF2lwwJcPjnumZLJaHLdzOdiNA2G2fmIEEqW6Uhm6BK44PH44+tG9Xtq///3vDeRM/1/4EPpuo6I77NKZmuj3IpgWI1/lX+4Qbb/vfe979FibhMuWkMRW7p7RcQNf8kksgnJLQsMkUpSgySbjiUR5vPrVr36lfsE/+tGPdpaJclOeBD3jGc+wP4HtBIDgP/jBD/q1RwM/5SlPOfOZz8y0huNGz92u4mgfesZn55PSMpuLFCXVx8P0xewSPLdD1Its1KjC1MAI4kQzz9Fi4oAWDZmCycK7art0dNKP4C385z73ua9+9as28KUvfWlrTL3LRhUQ+/yqV72qsvi1r33NMQdeozCylOSchYnj1HzHO97xla98JQCO0MVK14EuXc5kUbl2OT+aosEvkPASMeQzJ1MWcd797ncD4HDVFDq1qVQhSMEDmCUijJlFK21Ophe84AUdSC0hfGA/bIq+7Dr00EMlfJToH/vYx9Lvwd8LXvCCPfbYIwHEx3TWkwlM8PzpT386Jal37KZEVqzYbW1KBHKZAARWqP2ked6ipfKk5qQfbbNqXY0ke62ueuGLIIjuinfpmgp+OrgrOAvNSTnEN1kiXaT+W97yFoL4elN6uSV1HPFg8O2EvDow5V7jWte61tWvfvWUJzDMNAUOX45mylNn/tO/bt26ALJb/ETT5tdbQlNFf6rM+973PuZUOk98PIGmGd+FAaAE4VlS6uDb3vY2TGDMrAWRWKUvr8A2eDfh/90VXuc613HQcK9Eg0abRgl0CJsKjeM5+jWveU03434kTIVJf8ClPQ4Y0saN3qxQW5TDtUOcLQpGQ8oHWl0QE2sk6LhngVFLhBuY6cMkiOOkA8bKUUcdZZhIBtDr4zMMx6KZ3ZyeSImwwkQJqSyBfkxD752crYjbGGQDkBIKk0OWmoVDrR6eTsqFVG165CMfCU+b8GJ6X5GVUoUPbOqmN72pp4SuOHEN/7vf/a7fIRXNL6VTJ0zwMc1VN7kPeMADpC7H/Frzk3KaEcCp2tHW+lkiIGia6KWhu1KGp3VImdjOtKFJ2ZAh7N7gu0Ro/cQGH35XsOvHptOWJ4c8VJJDft7/+te/SiypY4U50P3+9793BIPxVNuUTJLWAJ6vGTrvfOpTn+IGZuKF9uTu73//ux8KxzTIy1zmMvJSgXPvDMZikE6XwN6fXP/61/dYJ1O2k9sf5m50oxulrsFnh0SQrBc4nuWRtSv+9re/ZRZf7eAeWc1sevwp+x/MKvQwHhF6mrbPPvs4gpFSVmiILExgwXPVzbUbUnFz2ORYnEcApMX6htF6Z8J0e/7Nb36T2ze/+c3VmvgfJLsIeqzRmwrWbWYxiWZWBA0tqmhIAAQpr8It35SY45e3UdvriWucqcC61mg/VF6DuFiuVKoqTBnCVJ4A/D7hM0oJ/71AcBU+9rGP6TFNlbd+k7w/JRK+Iy1Cenjnm8BCakSc33fbbTeZoNxzHkzW8YFFUQLQIC0EkVWjPQ8xhM95HwHDK0swC2a2t/Y27EUgUcUUPUcQm+4sc62KT5UgmbC+CWu3lUaXLXQI6MC6BBqmKz5EF6z0byLBtJSyYEt1IvOhgz3znve8h1rZz43kjdtMObTzzjt7ewCJTwqAoIRDOJShrdEUnfLMEx+lx3tY+UrEJwVu3EzZMwqKh3cppgkLDTBoSuCdEOlB+wQh5ggWMib441DDT7aOPPJIYA2t5bTSiww9lPSYNaRNUXbacmpg6Bvf+AYnHSus4j//+Q9ZAOD4wAH71jNE1YFOlQtYdbY0PsAEFuXAIUwh6ubRGUoMeeuxZuoUKdrAsnY0gB8VUqx7WYkDb5jQ1TK5x8mvf/3r97vf/UypkuoLWNcNw24zlZhjxmfKKWTI0FXjg5cYmQJGQCq7eZ5797vf3a8XjOZ6AShVeuJf+MIXEFr891vIkAWKDzAlCE7KDVXMS4w87gA2RQpYT6ehxVo1QhKe5zznydoTBJgkBqYfBtuT6SOOOMKQFRizvE3u0dDa9Agk/rnKYguMln6I0TXe0AxH+zCtqxGnOwxNClFTISJbdACFqWEX1lWC3vQmyaSUFERIZevMvW2M0o+oRJdJYmEtiZFZiUvEA2+v2xIyyedpunteYLcqMEnW17/+9evWrYPxC+/bC9vS5xQve9nLIBMcyBCeINBJ3BMfzGo8iSoc3vr4jhtEWNensW42nkSQlCl96ekS+MDZae5V3WIrxw5u9r/95n7NceZFL3qRQxkYl8jSplfv7FjnGkGjxINOT9/c3Lk1y2O+8gEBkIjRkG3pNISDbxUUZtaqEVkCE3as82/MeZJCkDhtATsNXfnKV3Y0vuxlL4vwdlvYH/rQh3qqVaa7K+3S0RlOtKHLT4/VLF9hsjrI0uadBod9/ePXMaGoy6Ho3OQmN6HKY0eqop//NOgVRFJZlxA96UlPslL6vaJRoPkvH/xq4kSWFYSL4oeBoVTwsoiIfo6FGYCzZIZkOVaRpK2WEM0AWSyitURAZEQsveCgNVOJWMVt8NSwUuJoJZbnF1uKo92mIezez372s7VIiW7D48tpKZVtKRypkg6GzkduteS6WakmU50Ks10dYYQisfOuVul0EnFywaHn+9//vmriyxWaPR2Txxq17og94eIA5dyjU2+qVGWn+eWHsZEcnczCMBpOwOP9+HWB0aKfSzQ7jXpy5BGk9ypqruD4bs6mVdF8twgZWKqkTyU8hvdW0Ta2LoXMoyhgT7U8vmSObxbLBJpydLalcxlV6Jxf4oAh/2kOHp01ElTWzVqsC2GWD5qDjFecTCgW7kfg3Y+73Y74+GLn5TCdi7X33nsD58ePXUwmfDDET18L8gGTlYARTN/61rcm4h7f0wwEpNB95CMf4byTXdaFr/lFkQkuutOfUu6Ke3QogO7H1WvDKCRidWhBpo2g5bOLoBMn1uFFCdND98DQYNYSsGGQCDrTqNVwWltQBFZ8ybPaJIfLbwt57OgjKYXD83JZkp9l9Uv2SGj38/D4KTFghqZ8SyXt/J5Xwrmdoc1DMQBKiBiiz3Wuc/kU+aMf/ajnO0996lPZMkXKpxhOi6qedLSdPEFgAt45i2MwmqlRks49xOGzoUMN5aqt+gicKcM4hjPUyHan5rSOsp8gzRGn05I9HnIDe93rXhffm0pO8iQweHrwERwGtr3dGnsHgi8aSjn37OqEEax2qR1LPz047uwoSegoB7P2DDnmYX/KkCcDptCmBJNFhfi9732vZ6+a2uSdr8OOX5EnP/nJPujrrZHsjI23rHj/y5Ar4q1OnEG4HHy2Lo654kzEih7GGdmvmlLuFG8Io/xZkZUKICJxMEWJJyS+OvYmRBn1WGCnnXayKJdeAHMGzEVxeOQMu8QB0LElYjhxjJR3F/DucPVZpginjVzs3BxE7YyhaLDxCKz4kicD5E2yJ7e3btMw3dzliw3FCC17fBOLj5CverHIUCJ65kWDY4iTkVyUf3LUlnDPItukKUy2NymyBD2kc1jwRtK3L859NrlS5TaHMwDOWQSJ5J4XPuYwEUzkQRJD7Drp5KtUNKP2FW2QafCI9CGiSj/esicDo4rnnOGqOy9WDO1efILZbCyWzpQ2LyLz6oAgDBFgfWBWZMiKFfGZn9binUMpiWaq8OOMEzc9AH6NQiQaDkcc82d/mj9a8PZAtFU69QjM+ZSfQdI5e2PUouCVj+td73pW7cxoaDnKq94trbrmgrpeDNWlgUErbV5BeBZMiaEnofh+2BIccSAS/RZoyqJ23333hz/84U55fgUd6tUvFVypTZzZEiVJAix6tSgB0ajC4ZXXO8zlUyfINLMavj7m8A0jyxOCG7Dt/2eNwIoveRbqwicJ5LGEs380KeJwh5+PsPyZhIdKwEHKYHS2h0SUuJ4rySHFEV/6mlIHvffBxJFzBPVomtFJQabVWY+f6Hff5KVBstN+o1au10s9IsqcV8neHbt/IUWVncBhUzZGUjmO6Q3TwBDpQ6DTCGobRqP/j4epNTTzx02rZ0/Pe97z7HC1zG04PmRU1bbhvBfHvotWeoABrMiHwUKKZgU+oTC0dobOcY5zWCNbCrdeOejuQCLhWKNZIh75kYoePX+owtFyBWGIOJ1lUfk2CGZBjTbiGm1eTLmCr33ta10IT1dlguU4kakyPHea4wZY1hgrHs66THz2e2m9ucV2EwDDN2q7zsRzHEqoEjHnuxQ1wUycZV1W50QPiSkatPl99ZiPDzge4SFo83tT+inMWogn8qwj9JliVCt8I2aMwGooedI3q5XZIfwFD8KOlX+euUhWH8pnSrpU4kogQ3yEw4UTkCqJ9tsuEf22E5RVchTM7aHTnOdcGSaPJWXU+qm3hzmQH213bSomjHeg+eMEUgAe9Oy5554e1Xs35yDgOADv9tk3Ddk/rEPqo3Z6H+ctR0OTooQ4KScaN6oeOVkLrxyg/EkTZ6597WubzRIQpMjmz6HUGoQle43gS5e3v/3t3m+ILbUxlMXGFlk+uwWGd7pxmMURK7P6EvHo0IlJfXe2snwBYVqfWonISolk+ZQAo/FnjwOpbqMt67JYP2as8MG7BRinbzekrGO6xKxwOOtKAP1LBzvvvLMfAJ9Pe7gB6Smb06hlEleqVC5PNu573/u6eyDOFlWUZCFujXE0lzUu+Sn1A0bwpS99qQsBSZXP2r1TcqKUD2C+Riau1OZBCo5h1KJp42GZyLWI8hgN3foZI7AaSp6lSgipYBNKFPmhAHls55fT+UsmSTL3OADZ6sDJJ0lPFpNIPtfwsNn2UI/kqIxMEIkD2LH2gMdPnm3TIBFh8GEQjod6VuS3KfodMein3IemjnWpHf6IPfe8XrPc4x73kLL4ThbxhyFOBslE1tXriWQqvlWPSdYRkoeOdV7UKjd83nfffX2D4j7RYzIYjQhDLAI79CkB/ubJuUbF56rHWJ5ROg/SZiGJWPmAwK+hZwgiYHt71+G9B98yi8kQjuqAFhnF14ankGm9RkpfChGGvFKs0VT565SE13BBjc/B88FPnXUp926ZBdZvYVbEFlddLBbRkIYJThalRLrc3PADkFk6XVDncdXQCzE6uQcQVbGYj5ytVFTDcduOxvFzQiRMdyHOg0w7ePpp9AiVbzKw3nLEIv28YoIUgqEEBCfMxcUnPqzZfsWXPMmhZQ/L5uSfk4Izi5Q69NBDce5zn/sAuMZ6YOkSWPImU7Lfszmb06f2MskRyVaZ072+9HhnBwngDYCMV0ltAPvWL7bPmx3l6Pe9BREE/f7Wym7hgw8+3Ey5xzTl0OEPdQGYVhEQap9ch0cD69OUXY3yENUT1GIF0k6opsYp0/5my/tiO03l+tKXvuRvYD2cqr0RQwQ9gAP2RYuFrFu3jlfASp7b1cIwZMn0p0wwikM2Q7R/PkA0RNuRR5DditYS1Nl73vOebt+AnaBFRoTJUgKDKXpW5+bOwz7N22HVVun0HsOs8yO1tUyCM7ZEA5gVzjs3Idx689DZjbdWF7X8V4ngEZEy5fr6wAVAXXMGxzEUPRheUWsVlPhBFWdvwPmfAx3ljsb+uQGyzvhucgUWnqALQYotTwx80uS6w/hLcB8DIFxZ9c4sGHM8IYVglDMupXOliwWmP3yuoQWWCGRrC43AqBBMbC5Gop9Zw4mwHnNGWE9qU4ZxUmJp0RPPHbJ8dCaZ5E3e0JmFkUwIUnZC6JJSfTz3wQdDB5ZZTI/nDjzwQI/GPHl58IMfbMc6VDrxlU5/SuG81tUM7BGS50HeFTo7yFFKnPhiWk4D77///tlRMZdV4KsgMd3rLSo3p+V/XSl7D62A2niOSDY8zcTTR39psyFZcYvtsEkhDIWFDKyGVEWcCCLDzPKfKq+wfdUo5s6VKqyNatbalQYnX29gy1saOEmD65ICoVj4daEWxxXRuz0U6rIeZ8Z7SNcXX9ACTm8YE6ZUcFffyRHHI7m8sgfghsacnpTQuaDwHPP4b4899vCRkxqnUufNEmQuDYznGwqoX1OPQRwepQERX0HFKJde85rXACvZwJR7y++tLin3EG5vffbIK84bmtW8Y5F4fqXgq8U9bjhssi6AfGOCVwgllekCN0IEREx80otq6PHIDJ7ySI6jN0OODEge2GyyVibxXPM9mifxMs9ZRqHBARMIqSMppWOSGFPL/nfYcddpiqwzGn6tFxjtyOCXX7axpX75uY7a/Am9m0f8EmHaTvaPStm9FHLM0OsLDnPALJ0IZ0AcjuHoNR6iS0+PsMYcK+ISpMZVvb/lUF49wXT4opmq7hJ6erjkOx5b0UOATFE4Bd8TryF/PIo64IADdtppJwvkRr6ntV5fOzoy+1dnhAU/Igi+WYJlJno+xxNMHM/RPHP0eMvj1xTBXFxeTWz00GnKShE0JCYqAs2x6Mr6HQIAdpOrvJbnPOSDhmMV9CAI6v16ITAd6Oih1kMSak0Z+ibZ6dhbWsWO80y4iJlVIn3c4/14gs9/eBnlp8WDVLcReW8uRH4sI8IN8cnf7WaZrPAKTZwbWnyYc3b0ugyfFCZkawuNwPo/ye6JVei7/OREevzxYU8qw4LVMIQy1FW+ibRskBnyIHdPcQ+nq5ZdHEgZLGmScBFMgqKddxQyP8jOcVGS7dTVg5bl7sX81Et6GzXf0FJLA3xytARj0b2VRHfwUR99qyVxvR6x1R3KvBLJ7qXZEtBxtWc0Qxu79idYWTHbkypnJuopZixmGFdrakEEPe7yxMSutjoHGR82R6Flui7cg+F8BT/6bd3uKrqeqFAiNtGNXEoXMQGhNqUzCdBbCNNa10oAmL0k4SGdfgzcZnLM7Tm15SHPXWUiBDHRip1bcnz/Xp5GrbVzuNYY2ZRjeKXTvalMoETp9CvrfOfxKxFG/UjU1Y+H6ROBXKnSjFmOBdD6XFAXJddakIsQnFzrFV/yctW7mZG8zOXPIpMlyeZw4CsckEkmNx1JPg+V7NjKJxtPHhPBqdoUDZRo3VSLJ/FBDx86W668NfQnpd4bEHf/6zt+Oy2yXW3TadpiXR8aESUxNEU8yVEWE4Ep+KGp6DFrmdIrGTYONpvfmDgWb1nvivghyTE5BBEfJ3tANq4NpzSIMCUO4E7ZXesAYDjloSFaG+eXV/BO4p4k+mzQk01/RqZOwWsVKxoS9nECrJiFn5MedQlCARCYYN7/evThmz6L7c7Gq4jj860uU35FMtX6ikCiN73kjc7qK7olb5KXWbDMSEZaF45ms1WuhBN8UlBiebziW1DfUpn1bCv1Dp3I5HfbMPUOQT8NIYJBa0zjJ1NhsslTy0xBYoLFup90H/djVmYHk60CFs293mys4xceUXQciNT4rittjEJqOGBZWhWmgs1LcCaxTZANw6GZS6zQ6QiWUBhGYcUKGHNOaPT+NLMpfGEOxSEKeZ4DFFnmgJmzFjoN0fquCXRM69EA/Iwhpr1v9ebd4zM6KXEjnPhYIExosEhFs2GOmRQyGm0JSIahI5JMgDFFkAY9pmN+GWKXKs1smOh4GFVxwHop0RIHzNZmjMACTnk0zl2L9VsRHU4sZSrMcU7NFrG0N7ZlUXKgK5WLb29IDikik/gAVgnkKbInd9JL7npr4VkSZLKNODCkTRtVc2k2yrOowiRlmPQFxokPKTfpI1t9yeJwlbieBoKmmO4CSqpHlP/47NKQslWwHE5rOE6Q0hKQKMkqxpHzcujJqnvI8LOckbENzRrhjXJd9Fl+wlVHGITw9nTW0JJz+qYnJU8kYyELYdew4olOeCt0OLQl7EQ8dvQkVNy8gfG0zisggG5US0N84C2FAHG71Ga9MOHnEocZOuI9fIbpC5w8ZJeqVMOKc5RHVesTAYESn+mnvBVf8iSHRWqVQJVVcgK/u41FRGgw6+mSIQ0+jLJnPNH3rXz9aFcQaYjO9NTiUFI1hQaawySVuEc8vTs1RTN7DwcyGArRGmYtpJzsaii6K4JZq0bHvUIixj2pWeZidwqmwFOIMkqPBikyWvRnW4Y2ix9ViaFekaowdq2YItUtN93Z0AAIq6AZneoQW/jlWC4oTm+q6080+GNhH/p4JOcppKpXVhIowywHOFO1nAz1VazRcSBGiWSxMdq9atHWVVWeB1z+93SW0UZUBBKxTS15LkauCr2ILh1O7GWqZgscTs0WsYSnvEplypM6OCFqaKp+7ZNSlb6FqcwOoLQl54LvSVkmDkFK4A272ujJPuwyozZ6KnQRzFQtJ7PjPVkK4+34WiJeNT2mx5UUJ/7rc0SaF1+CXaJiFWZvGGYuCv3dg0y8TTTSZ0UlUhelaw5dJhAamB6ffgS1dbkjOALNAYJEj2uOM+ljAozC6OyKhP//7N1lvKa1tfj9p+dQl1N3YaDu7gLU3d2h7u5CKdTdvaXu7i2l7u5O3d3bI5/nu/cP0vu/ZRjoMJ09JC8yKyvLk6wryXXde9BErJlqzehHF0AZ9DXDBKPP8ZBpSQ6MXnVaBtmKZnJmLQLF+V9NeYuhJFEJE7C6uYgB1wxYrLdiylu0cMIzAjMCR9oIyDAeEmumvB4eIrN0pJplRmBGYEbgSBKBmfKOJAM93ZwRmBFYisBMeXMezAjMCByJIjBT3pFosKerMwIzAjPlzTkwIzAjcCSKwEx5R6LBnq7OCMwIzJQ358CMwIzAkSgCa6S8vqRbHYP18IPyUAkG5QRmBGYEZgS2egR8fNeneb7WJnwxIw14jZS31e2YAmcEZgRmBLaTCMyUt50MxDRjRmBGYFtEYKa8bRHlqWNGYEZgO4nATHnbyUBMM2YEZgS2RQRmytsWUZ46ZgRmBLaTCMyUt50MxDRjRmBGYFtEYKa8bRHlqWNGYEZgO4nAGilv/GGpFSauh19BNpszAjMCMwLbPgLjy7tUy1drpqw1Ut62t3VqnBGYEZgR2DYRmClv28R5apkRmBHYLiIwU952MQzTiBmBGYFtE4GZ8rZNnKeWGYEZge0iAjPlbRfDMI2YEZgR2DYRmClv28R5apkRmBHYLiIwU952MQzTiBmBGYFtE4F1U96Kj1w0V2DWtG9LaNZknMgZgRmBGYF/JQK+wpN/qsd/5b5a4Lopb82v+FbzT8yMwIzAjMAGisC6KW+FDzMDrgjIbM4IzAhsxAhsacrbiL5Nm2cEZgRmBFZEYKa8FQGZzRmBGYEdOQKHIeXNs+2OPBGmbzMCR44IHIaUd+QIyPRyRmBGYEeOwKGnvLm525HHf/o2I3Aki8Chp7wt/9ROcpz58Ug2f6a7MwIbIwIjNR16ytsYDk0rZwRmBGYEtiACM+VtQZAmyYzAjMCOEoGZ8naUkZx+zAjMCGxBBGbK24IgTZIZgRmBHSUCM+XtKCM5/ZgRmBHYggjMlLcFQZokMwIzAjtKBGbK21FGcvoxIzAjsAUR2Gk1zXof4q2HHxIOlWBQbnXgW9/6FpknO9nJjne84wH+7//+7/e///2PfvSjX/ziF6c61amOetSjsk051rGOdYpTnMLf0vrv//5vyP/5n//Zaaedqn/yk5/8dbmc/exnzzxCUC6a+r//+7//+Z//+etf//pXv/qVz3x23XVXNEMO+ZDVcX3ve98jEosCT9F/LZdjHvOYUUKipIUcGOWHy0WTLxkWzPKjHe1oiEMGoCcZAQl/+MMfvvOd73z4wx8+znGOc65znYsX0Q97kIFR4sq83Pn2t79Npigd97jHHcQRLNYHHXTQP/7xj9Od7nQipuiKmBAAjFD/7ne/4x/L6frb3/72gx/84BjHOMZJT3pSxsMoyNRs+P73v//3v//9+Mc/vt4wBObab5cLsWc4wxkg66UCnOVgSI7DIIMMXw05COKKEYygGiZdowmzugzDChSCMF/4whe++93vml3YxW2XXXY597nPDW4ckQGS/LOf/czM1Dz5yU9OSCpOcIITnOQkJ0Ggmc3Jz6Ro1qyxMADLkI/RvP3iF7/Y6Ij8KU95yotd7GKGPgMyWKiPfvSjpyVMMC0A0laHrq6CDF60bfBmZAIHQc1rXvOaJvIDH/hAQGTqTFIrlIZBnxYTxmyBXCF/sG8JMIY4MygaXODcXCPlDaKNAhjRq171qpx8whOecPnLX14OEtA3velN++67r2iKoJVWHNFY2Cbove99bzO1pNA6fNjDHiZfcPk5z3nORS5yERKUwkR+lKTB3OY2t/nqV7+q91WvelX5sTHTpcATAlBnjExBLy3I/vKXvxz72Me21G9wgxvc8IY3lCDgi7PxQPbIRz7yve99byNHqZkEVk50ohNd6EIXute97mXxEKhrMNL14he/mLN8NGn0skHqf/azn32e85wHb8ZkWLrUBUR9jWtcg5ZHP/rRV7nKVXJk0CwCl7vc5WTq/fbb78pXvnJ4kntyaJqvJLztbW8jhAuGQL67znWuI+M///nP32233dAUZ2bgEhnAhS984Re84AWZF4Gu5z3veSznb8NBFIJFXeDsFK5Fg8cQk4yGwAjUAWF0ISh6kcGvLliQiYyalgbis5/97D777COL6SWBYQxGcMYznvE+97nPJS95SQKVYclDH/rQD3zgA5rkE4K+WtYzxx70oAcB6krgiOd69hBOnV6iPFAf85jHvP/97ycfnmRDb4xMsDvc4Q43u9nNMkMt3xUBXLEjTkWA3rqWrD/kiRglMr4XrgRiQV9vXXgjGGYb9z//+c8WTrYhRpPkZQ1Lc1IXLtKCy3ckhBlmDJlbC1gK34Yugt6ICqshFy+hNCSKvKA2q0SzuSW4f/rTnz760Y9KkR//+Mc5blTU8ORYt9hf/epXE6UJL+5mIfkINEn+yle+8vWvfx1A1xgkXQouhUawXrya5CgmoloXUWbDL3/5S9lZEmFJ+OSjZw+xlMpZVrsETRekreXb3/52idL+gl+QyzqXKjlavqPu9Kc/vYfqpS51KUi5FfGXvvSlyJK/CPOUPeo//vGP8GDaI1izRkmmOZqPRYyFEbM5R8QwJGOYhOvLX/4yGvAQa5USIg7cH0NWL1696otf/OJqJV7qgiMTkHKNONAbki4ASoV8dWORGYNGV6aG2Xydv0QBTIwb3ehG8p2mzZQEJ9SnPvWpCTQod7zjHWXq3FSjCWYhXtNPJjJwkCxvND0efvzjHzNmEC/6uMIwWmBQNvRG9rrXvW75ziSxszOdznSmMxkjuUaqvdvd7ia2WGKsziRjBN/ML0R6Ra9eNSQtdCko2a9WRoSjjBdes1GAIQoXH/NLU0GTKDWrkGEhFsCM4AiSmfwllUdA2dwsPwLUbX2RAidYisiKVPGtFj7bqE996lOf//znbRmkqte97nV3vetdDYbJ9/CHPxzXeABatLiMh8zigJZY5pqFrS7CDflrX/taXCYEYqPV/EPWUDWNIIlVm1vwT3/60x09nB9NU8LpvfrVr47A1LzVrW7FPKLGZKKXkOtf//qf/vSn7SkkBUnWJu5617se2xymXvGKV5CMXs0Ri+epT30q2yS7t7zlLXKfXRI3qSbWDottehVmg0eNHYGmpQhQ0CBYr3CEbXpjHALhkwlwgBWumgRe6UpXUn/wgx9kOXoEmmwWjaRBfvKTn4Thjppw1xHlFCkPTerU9VINSb7opQhjVsErKEckkQ1j4CvRxAKTqYd0/j//MlWbRjU7P/GJTzziEY/AjvdpT3vaAQcc8KzlcuCBB/rXI42Pj3vc44xapmIZxW73Qx/60Gc+8xkTwIPWxlbqROYED04rYhIy7/+x45AGS1jLOwXjzW9+c7HCIrV97GMfI+eJT3yiXfYb3/jGTZs2GYh3vvOdY/TJWPTUVNdsQ8DNlKqHs5C0oGHVwJcoNfPLoiBWNJDxJSBRESQEnAcBaoOijlKXoeRFugC4UhTXEVFv+JQ3BqbBKD2JlNipjW7BNcCaZznLWez5nc6E1cnLVUuUBhuj2sgZj1e+8pXwY2AMkqZikpVxkBEL38zQhZglxq+RhtEl4ZI5prKunXfe2XR3HnnAAx5AI6573vOe9llNIE305GS8ZvPDM3zvvfe+2tWuRu/73vc+kpGpNS0hEw69ZMdHvAw729nOZiVgL90UIiYVIvjM00yXJAuw7YLfTEkOvTSCaWdG0nBpuk/MqcQ6t/L9c5/7HKTCyLisRnhDo5bTk5A012QZcL7znQ89RfWKQ8YXGfdEyLBHXATAaPgSS5Q0umRE0NMIDUxcavYPeDWAkrOmCuAhD3kIgMzHPvaxe+yxBzykQtduu+3mUB983/velyNZzpi8psXEKNp2ZLaHpNnisV/GRE8I2PBl82pLYGgkAUDaM57xDIcV9Le97W3NZ1xp5+Y5znEOGVm4YAAHHXQQLsKpyAB4VmmqjReBKVVToWk2KmmkC17RLFEGU0SFnYHHNlFcQBBAvgKGCVYHqxVdxoKKhLOqeasLoKZoie4IKxs+5RXcUgPYkKhFs3ALKAwYRgyRGa1znvOcwmqcXP02HlgUSMsezf7779/6b4BNjuJvj4YsFdiJIl9Z5j54bz90wUuRiKluviaNKJib3vSmLuYA5s173vMeStFTZG1EQA6MuvkEZjYJMjUCGmEAXNi0aZP7uFSgR6N292+im1tKlBmJRUGgRqlYyXjtU5TwyyQrK+x6uayDSUnDGJ4Klpuy2Q+JTMqzhUQs63GQs/A//elPJSxkMjiB73rXuwhBDGaMrRB45513Pu1pT1vcILM/Ar2KZ8ZlLnMZvBYtPBVoUOpaNGCZ9v9zypNfBFmaQEMsfMTFNrIVtbHIWbOC/S7OEHg+XeEKV2AwpUUgaZe+9KV1wduG23OhJF9pMbOtqYJLVwnIhTKCn//85zAIitiYaZArChry1Wbmy172MvQXvOAFPdiQNRxUAKg4zWlOY9OHEvzWt741M0j2lL3oRS/q9O1gYfq5hmZDfvHCPBQoUXVlfP7zn19edjvp3E1OtqGhgkw3FaauQ7TrSC/K3J/YYEphhauwZHw2BDMDQRflVLPEwQVjT69oqChERTXkVq83fMoTEWFSLF0hNi1EtkkJEGgEIhgGbFoYM8Qmga2EEdKLDB7SqwlNd20OlaQV7oRQ8ZKXvIScW9ziFmg04SvN1LGq0WSV1WLSk4N+iBpGOtVan3jtevTCk8BmJhGrpkI9GL/2ta9ZLXvssQdMehHsueeeVr43BnHB547MSDVpZA4hi0AmFSJcPdgHQUoX6+SzVgnPYAakjgRLEUaBgUfjvaSXLeidZDWFRVcnWe/N99prL/Hx7tu6gidfcQA0ENZb9DAANbFFFaDpxspSsfDkGlseQtLIDPRZCBMxjHfZd7nLXXbbbTcbH2s7I+HjAqwu4qbki80ypYrbA3XWxkIjdZAWMLGaXAhAAIiMUwoyGsuDJiGMlU8aLjBKGqNfXaMx+moz02OMkGtf+9pq2tOSBCqU8573vN6oID7wwAMRJ/k3v/mNE7FttUOxczqkh1w+GgJvpZxgvElfFnAUudsLQOnMhYxJwmzxR6x54xvf2LMfRlPNnmc+85nmocCuMJsBCoHh9913X2d/ZMy21txgYJR8F4cv4sZ6hbSt1dwRUp4hF3ofZxQvURYdURNZgCllNjQt7MPdcz34wQ9G431ZQUSJ3XySgBxFzV2M7kGSoysCz0YrxwzzprXBxq6XUs0hKkXquNCTRpRi6kSm1sTlMcs2t3Vh1ATqwo44CZAO4M5Tb37zm2HudKc7wShoqIapmXDOwtj7vPSlLwVf8YpXlFYIREMyFjV4MAKKkhp9otas8cJbJCOYiaUuRk0wfwHEIkYpy5D8kY98RDOPHMyZdIlLXMIbcy8BJC9JEAvDpF2vwgG2h+hpTGnSYBIOcJC8xz3uIaVisVMgzVGx9yR6BbadVJa4E/CCni7ET37yk71z0DSU7BmSca0oaecRGrfArPJCySc1yAYXJJibkF5QeMtMr5VML4ywEIIAmeZQZ2f3+Mc/3mgisE0raIMM5ZoFcSPFcgEUijOf+cwoOUtdow/ZWNBr/8WYb3zjG40sfAMn2rbenpGelJ61vmthgOtIj3mi3Dt7xSxRuiDGKEVaCBiZR6Z5KEMBOIvAyxNCuIDANaU3cro4q1bYhmv44orZ+x9m3O52t5NMbecf9ahHCalomNLwRSnGwXVEAEujtaKsF/318CvYt33TkCueZoUYzAaTQPg8QFyEGVQYM96cgDQ17373u3vhBakZfROCBCnP1ydedxx00EGbNm1qWqN0wYfS1xV2KOSQ2SDpWixJUzf2yKjIMCowmli6EMB7GpuCHr+sjRISgZck0gRijF5QwPAOsdOTe7rUEaIgSH4+mjoAE9oMRmZtD9tQKqMZgDhfGJDNaBIbwbKSpRVLcuwwQ0hwvjASDXiRbPfdd99///0dDO0BpUsENkFqrxeZ7f2GPRpMX295y6TLg8fuWy9RQxGYhVSEMYK3vvWtbZNtN4yLC83Xv/71VpSjlj24jfCgxGWnidI2xNc/Fp7Faam75jcx4LEgHurQGyZa0g6vGCCGoWz4CtGKOCBgNsmdVTXFNiFsc9olGUbWwA5/1rOe9f73v7/RJKeIVQ+XVwB4ozSycpl85Ow/aFLEkTEirq01KXWc7w2V+U8Iw9jjeYMXcfREeYTIknzMTkPjESJcMmBaqDAtzUaAUJMPf+ITn3jnnXcm5ClPeYrNhLOwLIZA0IZteo2+p5TA3v72t/f+EIazVJzwhCe05bRP9NrHhhcLPN7cGRK2EEjsIF4vnv+cVYN0xwCsHIMnCgbJXtodtqyhyTvPLkvFc8bwj+CC9ZrTLhoUU+o1r3kNYgS6pE6vwxDY6tuTrxdN9CSgB0SDRQmvNgsRABSSXbuYhWBzAj0MvfZoastM6TaQI2gYbGvAEQKpwJgKXDDBGD2orWcsvjSUnZc0rSpLNh2SudJLCEBBqx69mroUOwtIMQQjWMoEy1NziWe50GhO62WbrpBj4UlnRFlFtnUi4B6KNNdGkJ4uOWjqc8q3hPba5FjYmVE8YRAriAnXROwJ9LKXvUxYfHXEd5nFopJn5UE7eoxMUsfrGs6iFZzemEuU7jEsPAc68SeZOvQZk+q0GAh4VlGRXxmgdzQR+NzS+CJeNvPginZIedAlplkERikCTog2O47nYgWDDJDSRfYBj2kjgPTanTEGSwQwAyZKsSHFwjzTSa9genOCpv01oF5dJNh5eRPiCg/MGFws6XrBDDTh4YXIcUTMvYA2rKlTo/eYEVjrxVMNL2JiAUUS4MYQo6avBfVGo2k7L88C7EZbnixf9AXxVi9r7PK2uo5/i0ARNCeM9Lvf/W6wwQCbdi657CxMd5caVoutkxA31QxeM8AQuifS64lkqNjvGli9adOm6FE25KtdM6cXkSRXBj4V2OG/+c1vqsG+KsBl7DUJ33XXXe3UZBmTw9Q0Y5ytPHI9SD0PXSl2wuJRPqoxYvfxBO/MG++FfenS7CFEWbRqwLjIZwAWsIKyOprBSDhMjiMoLDBLPMubVgTWRgScJZN2JyB7H5nIifUCF7iApAZ/2cteFhnJugAWlVRo6vcQ2m233RLLKQB68gGk5S8WAAOUaOyVvNCwaRIfUbIPchNvUyOjYcwFXGDFcvW5ieOYb3qe+9zniq2LDsR2fA0NyoznEV5aeCE3ud7iII1FNasQ1BRAr5LANj60kKBLHGDsoWyCiC13EGWFO2LbKwmIKwjyaRlcS1auKkTRSKzjvNrtG/PIpBdvNSZKFUqdUUwqM1+mQ8lsA02I7yVjzGwspJFDuMtis0telt1sFDxI8OJqKVlBlgxF9qe4xqAgsIs0BAQOqzMjGkgPPDAt7lJpRwkmluW92nLba9HhKg5DzhEB7LApT/gMhtlm410cxdqdrtA7RtmsuXMxAC960YsamDFIZoBjl00ivHOKHYFhlmXgjQpRxFpyxmy98Uig3obQAAM04cOASSOq66fuU2hp0pDs5aydJppY3NrYobDKm9nvfve7nqg+TSCkBZ93TJJWrGQzyVW0LR52Jb8QLxbIjKyXXkIGJWAQkzAoITUzEgyvIA4DMPWtFuuqad06dGCxkFwP7bn8poUiSQ0xUXK6V4S63KY7ajnjw3vytyYTrh6h5m9RAmQY+ojZQ7v1bEE6i8Hb5UGOXgCkAslgOzIavXakWuiMKUW6yI8GXEwABog6J2IGay4GYTTJtHoFv6cRmwkkTXGCZhgCjOhZaHPqJbJ3L9KoqWXUEDPDrEOwZkGAnUncJJyRnpfsHx7hon1IsCOTYfU6aerKOztELmDPEiYxT9PM8XqHMehhMhVjn8K4JSfBRtXgkm9BoWGJkKrLxVhGqAlXaNSLEdzDgD3ye5OWs8TCYKTUBWWWwCOAxHgElXXX7RGkb5uJFUHPJWMs4g2hoaXdSHh2SWSuvd2/Nk7NGyPqwYjAuHot5U2/Iw9KJy8PVXjT1CgCGubN+JLA1C2N/3LqUWNXx2iZ2dcYYIuczLr0shw7YAy8XsVScSrx9lBqcHyDYXzzA7Hdq22dGeN63g5R72AfdkKCh23h6UWpSyFHM7wmyhVCbDbl08j0KogZDCMXN48xFurkSHlu66UDGwef3aF0YaQLQLhDqJTnlq1DrvjL72wQnJE6USrJzDwah53w9okOicarU7+1Kr16y4RMb47EDnat4Y7Co85mUFqU+6x2oWPSWLRZnneQtjDeulj/lq6bwWJCFDI0msxzgOiyzLMq83QFwCcQC7Mhdfm1snRvNM2B5IxsFfGKOmMgyVcLtd2iWNHOQjWCJGSYkYIxtVKHACCk0iJ2XUpBdvJ1f02I9cIk48VHsJRqs8w160J6shUVWKG2f5TECRFSvYnKNUglY2AAagTuXmkn04KS5gDMyCQSxKQ8jreEuJi7l0VuzWqHTXlG11AZJ4CANQ8ABdoQNgbmsTsao1ITCwJkLiwsIfttT8u+TL7JTW5iqJBVIltzKEgLbzjTiLg5YaayB4Eun60aYBolkVhMuxWAsTexxjqXrLG0fyET3Jyz1C1yvL5EdZfHzuQ04TZv5IgMlhYkyWAlRgS02C9bY04ojGxeigMCLIo8YqcA78UoRvTFByBftF/w7k/T3sqPtDCWjKQ/jyVBdozCYgNIGo2ihLg8FUAdyXmEBhLsRswqcotk9WIn2U7cAtY1MgiDmwP29S9/+csdfkWVNDsv7x+vda1r0UIymfmrKxsISbWTuAckpNytjLAAihLVT3rSk8ihy+XgEJVY2hHoQmACFD3CjWYe6cICTnXyV9doULoNML4Mc0Zx+yabEK6M+CBzZBYZEcgYuvTiinJI1gQ7XBOLwHtbAtPCVKfvKDOS2a4mPJw828JnLUuwiz/XLDfNoQWsEOjWAgvY6HuqwWjGXpCzBLLmGLsUbd36CNxAbl1DD6u0xlhCMb/F2hAaFQA5utzjqN2Ue8iLMqQJYe0ZjAbYbZrtEha3MB7FiKU8XWNCrGdPY6ZW0CuUKgAs5g3A5LBy3vGOd3jiucj3KNbFTr3sBJsByCg19s0Gs8oD1pGNRw5EemFQAmRtN3c2IObT/vvvL5tjoVEvGwgJjlhd0bVk1iFP6WBdReAQqqV/qYB0rGah3OSbXsTEQioImCTPMp5JVgXMsBmg2MqJpJ/NUcp4GI4j05QijYJemUusIjRaAABAAElEQVQt5Q3DkIEhAYhpBNSkyN7QS1snfctb077DSFmQQsESccOrYFTEzZtBjxbv4nlhYTPGewx7eeMuJRX26HOK19Qp2AW27ZIrXdvD3K+38EJK2cywV920adOyzqWKQJ5Gnwq2hXducMhAQHJd8JQusa1VUNKFEo3HG5lS0r777iv4GclsgNo1gk927Ju4ZteGshE0T0hIhdokzFP7U8JJdssZJnuYhxcGsYLX04tpDqdUY0mvrje84Q3uuEXVq5uQeTBoPF1gND1yIhjaDZ+BM0BGVgBJoxG8Vgy2Dm6H3eUZNpNb7GxAAOKogD2jbDdcoiHYY489ELShkO/MEkEXV3E32NaDddVgmJc777wzfJMD2eLQLg4FmpqAbHAf7I6cQLpMdN9kuD9yOoBBsM8++3RD1JPNCmGnXimMHDTk+LLBJLOPML8RSyvxmoVk3vKWt0RAlM/rzTnnFEZmKoJeCg9rw6uVPAWIj1OnozG/aMdOvppJdiIK4c6JnhMc8WLHkdAR21PBxHXnLVuZuMLoh7F9alAEiAKQ492fgydT6fIggeQFPKtolOacwpgK7wGAJhsQgIlNGhtgipWPdbyV0lTcPEhnrUbSkKUUL4AjPr844IADyIdBbGfnPIgx8xAUHEAsKOvCXpd67733dp0K49WHcNlI2tFoijbfPcDQKEYTbxJSIcfZHfdlCfmQ5oOg2VKZcihFkhxdwxLNNUtWkdDXOTatTugCIvXbg6fXpwhOoywRbcZ4l4I+e0Zm10RQ8gV75GgCeOGMb9vo0MBNT3q8Y0qgcQnu7ZBB9yWdbCvNccE7DZ+46nU/7sDEclx8UYNz2WPYavKYkd3o9fj0R7dMOT/GcJaCsYluoJskY9DXjMO/iFyaH+xTC1lxH+ZCwij5AOAYmxgkEHrDj2YY9bYsbGAYm9k/rIJUNE0I69Ay0CtfFEpeKOaNjRvMmBDSTUsxac5cZpIkZeX70p2QAgWgkY9qvJpNC01K1YpeMHqwL847DSE2umpdDHCb443hpk2bkGlWo9frrGE3ZG4xDz6Nppfntu+bmqOUwkvfTt8AGnm0OvLu9ZzdCNFFS4bRkteaWeU7UnZmeTaQz3H5VH5BZjtmyvrIwOq1Hhhpg+zrH6pNCX7ZUPheGqUyApJTzmJk0u6h4utrvJoKSrWEaP2j9CM5t0jLApbm5KK1RUxdr1A4H8l0lpnXBXmnizExJhyGEMT02hnZEvpqh22LkoOjTLipEqAuSmobvRe+8IXe4NsriZXSm1n5K14qrGdkgyUhBtFoSuvhuRBAL0vE3KFvdA296wF5x0Kpx3C79bdXlXNdHZi6zgHScVPatYlxT/LwaGinuljp8g7EoDDSFtjTiyMuH/V6/Hg2k8BUelEaHXPAvackLp4CSylRrBVYX7qgSfLS6C6PeAYjkBa9HrGBMCG9XjeTWUsL4cbFOQANXsYncL0IbAZPIweriQ1eTb+UCxCxDEXdqGEWFWsqxUuvKESJF9DKHMjVOo5QDMPIzz0D0GKAFDvFDBBcFnIHgEy+MC+F2CzkCwILm/EKdpRoGjnL2MPc5EbQD0LR02VCIC5uxgyshi9j5mwjrYsNakgmIZMdaHeC8MB0CKIxUcxLCCOZ5KnIEioUBAzw7sIGyvHNbR0zyEePSx4HqFmb6hW1XqLqJQovS7CT7E7Q/Aazite6FOzomQ2AZCFk5snRrjXtHSRZpyGhrkuqkrZ8I4IsdurwKgn0SLcltEPs8cOAeiNwH08dXt6hL3SAyNSFKHy1tze2dbjyJS05DkMU7wYgZYs5k5DRqAslOdU1412sU1pv8pknudiYyDLYpf7o9Vq0tlp8hIllaGn60VtMhFqOlmWMo0nlxEfUIsuiDYswdwqXmuOeQNKTLGyXhN2cNG3QMMajWnw8ZnI2R4jSC26SM6ZINv8dzA2r7xPIMY19IWwfJw+apegNdNs3inxLgNii8NbFM0/aUrvrtLX0EKLFfCMZFzkGopizRPGDDdHz8k0xY81qidK3B7RgRIBXfHgHZu2i+1sRPgrd/HQg8sQGFwi6DZXCVYUDVIoXU7htSSDQ5I/Y8S0T1cowrmaYAQ/A50WD8l8BxnouvkxqjMWOkQ1zU4rquoomTwHBiwYU9JZ9vSsELhJTWihSsdgFzlkmBZOWKDXMmiwJxIi4sRgya9aljnK1/YM+IPqcWhTYXEcTweDKwsGLJTsHPsAnC7YYyCxdJ1/AEAgexIRrqgVhjFTzp7AsEoNHM8a8y8LBvuhFLGo0lKJnbfSDLDx1IhZB9JsPXUKwYFQIUcdivbh5aH9nr2efXgQQD+1gS5cNWOIa9iS5EamGkUAjqx5+DYC0njEWTvbook7Y3UjYdgGcSRmzuLKYYX6Sr8SFZYUlxScCR1pJwLMtf7HQAs6vZTFLchjpWOpQL0XY+o3gkIwGcSzxwrAhR8B43S9JOB6Esl7+DhXruR/7odbJF8wsJ20AeBN+lAMOOABdbShwpTGDxyOIroSMqxFCo+Yq94wBZwpH3uIdZh0i6eBJP5oBiwMzWA43kF62iZ2azTA1mUfsIAgPMwa+cI/mZmwYQnI2yWN0IfFSPXqHzJSOZtkBI+LiKYwABOqA5ORIevWOqTOM1JVYXAO5COjVjHeYOgBdLdTYBz4u2hG0LBOyKAc+s3VViMoj0gZXvh9CcvC/A7moEXtbIcg8pS4b0CvBGUw+YuLgkTUWq7Uglizgh6JBgwuy3oEcALGrQ5oQdZZEnPbh71AUwAC+kFa4hguAAVuijh05qB42LAKkkcNaP2u1T2Rb7GiGqRlW8BHbi1inw0jAIsuIzGAfDxWURV5X3gGURfaCk4+6IktXdV3gQYMMV4zw4xlZ6EagEAzeRYFbAqdi8ylvaU4vm/HP4yHHlDbAzKLeVbq9aC+tdYk7PEY0XKVG2RKDjggaqlmYC8WdhTmlbiWwFlmxrtZEFi+amthFHxeBakh1xXjoVbDrxTvWWAACSAW9OmRNmEXVmq0BNARqiicCRqIHZAx8BQZeSWa2qYdT4XGtWeKlkTQEarxY1NHXVTNRrIprmKc39oj1aoLZpiuy9m7wCgynyAegCakWXoECxAigMauGg5okE0sgZEaSEwzIhpEcicrsoYWKxlFXxKRFQ1q+ICaQkYNrBTDMxsKSJkBCshmBojckUSQj00yF3rSowQymMS2syh304KyymuywwOsVvDYZjKFCrVk8M0Nk4MGA/CrfFQrqdGUY+XjRoFRi0dUjhEkI4NHoyjvAMB6lpt5FILLkpzEMOXlKJqAuuTgDErI4Cou8eo+IsrTLywHSi0UO52Fd+W9sBMW1iA2aiEPal6oVYRqODSvJqST5kNbB/27dXd6YOsOXzMiwfImG5bwwNg0Ja4aPkWE0JJ3lhy98RInFkIgDlhUSEGAPCcZYM5nwWLAPOUMyQPISySxJjho9TOwAZNkZ2WCPsq6BXATQD+3hi8CgKSw10w6OhXa9YOap2S8yDTqYZAXN4Boy4TOpLkEzrYcivfAkZEn4wbLYhEzmorShhRDwiDAA2ZADYHMJBR6MmFI1RhhliFoNDDk5PggyaZF3BWYIH/6mMXwGYFGyXC/YYRlBaWjoWgQQNy1dvxY3XJmxCBCyIg6ErHBhiI1xsMMvwpGt4M2pBnTIAazGLDJmVfSLYaEOEkZYRjRWi1pUtHk4+ze/yzuKT5lSxiziCmImhoEEkIXMkDDOdbUrDIYq6GHUPESjDJtqhhnwALZiystaetljimf2iGAGrJgcGTko0SBQJyriEfohP+OHZHiUyiAYvgNWIxdzDVHJxx5XUyRLBu9QEU0OLmoJjms1HmaIGoO1yDIYh6KBWS3NHmQclDIeMbIiEOMIDnzWjjAOgYv4xYUB31xiDGngRWPiSgguikbohuScjV0vmmEhmhFhBIQPzGBfBIa6ZC52gVMBSEsY6iKmFLvFMqI0TGUD4rSviMyiqWg2X4oMdYo5j3gYDIZsIAIoohGmuOHNVJSRDWlhVjQhYcze8eSDqcCnYjgIo2gqgMjAAI/2NpI1G44hZ5nv4EEnsxDVu+V1qjef8g4+OBC6ZONCgckIOINXWMXOvPdLFHe3kEqxG75tuXFbkXIMGyMb1IEZfgliGoepAGQKgI96CzQ4mlwes8SUigxlBHhhcCmQCFIRgd7wEUM23svkS/SasYNXDD9eGJSpACvImDSkBaiVYRiaFSUzEmUaRY8GC5kZkISEVA/LA6oXD0qGPiHRk0B40uA1TZUCiNJqySpyKIUf63NRHbgmYtIyL2mDPlFDF0UIUGYhZ8MgANdFZkhNRVNvFgJCrq4ZSSa9yWlwcaUoIZmBFxLZINYb14gSxgoWJXX1wmNX41ptxiIGjeZiMGnJTnjAClHCkhk0AmgB0JIidb3FWU0ITFrAOaUZRr6DHMZHP0Qh1qskdnBpji4SNJUEDlF2r+FhEINHVzK3br10sF0tcVi8usu4Wqus9xZcbyaKVCFYZAzWhYUbI0YWg+ZW3OWtNnJiZgRmBI5UEZCIyuC8tiGTYWA8VEqvmkoBOfg+dcuj01NF2vIjvp4Ji2lutRz5ju4UH6wS2yH3uKvpJ2ZGYEZgRuCwRqCMVp4ZGak8uJxvDq7sHw9zyiPafk3K87MEX6ITAUP0eibqVVKIhjWIN0O/npyJnxGYEZgR2JIIyDbykgIo26hlrerDnPLKo7IY3f2BreWctu41RPku+pF9a26J9ZNmRmBGYEbgUCOwmGFkN4dLpTs0XYr0dzBwqLJWEMiUcUqizsyuHlcQrGiObV25su2eegXZbM4IzAjMCBzuCIyt2MhOLvKUITACzcOcepKIU7KTR/1MTRIcclcDI7nW1d5S9l1NOTEzAjMCMwKHLwIymiI7YZdklDCrpR3827fVHZvBkDuk+12xd6+a69GXIkdtz+nzHPV69BM/IzAjMCNwWCMwDo6Snd+oqMs54YPJBBzmXV65U+0PJ5S/SNmMfWiWUu7yTjDFYNvDzbDMrhmBGYEZgcMUgbHrKh0tpbblUs4ZNZlrpLzBvKbKsiYauQzcH6SMck3Goaw0pwlIyJryJ3JGYEZgRuCwRkBiGflnAO20EjWQh/lgOzgJooZQNXgRv2hueDTLOXcpwwJiWSSb8IzAjMCMwOGOwMg/I7cABrwo9jCnPMwJGsmu5lC5KH0Qh8TSOXcFzWzOCMwIzAj8ixEYiUgukmrUdlc+LFkh9vCkvESQSMcWHlFLiGpltRErbJrNGYEZgRmBwxSB8l0sfYQMs4gc0g5nyiOr/OWn5gFD4gpg9Kbe79W891jTlBWMszkjMCMwI3CYIiDbyC2S0rg9k3BIKOEcnIIOk8RF4vj9mXhqFvGrYZQj8emVg+NdTTkxMwIzAjMChzsCpTwZRlkhZOScw7zLSyhxifBf25XRVigYzdELcJG3mPsGzQRmBGYEZgT+9QiUlHrNUN0ub1HyYU55g9nWkdBOqTSBR9ciIMdpIlAAkYVcJJvwjMCMwIzAvxiBksyo2+vVHJLX+C4vCllJgpTXSk+9pgAHxO+/HekPB9q+DYlrAhglu0SpA9aknMgZgRmBGYHDEYGyiloGk21G7hr4ZK6R8oYy3wwr7ctKWGT5o6xyZ3+i4NSnPrVkB6kMrgnMCMwIzAhstxFYN+WVGmVKez05rrwG8P/gyIMA/3+l/3lEc/xJ++3WyWnYjMCMwIxAEVj3Lk+O6wxrf9deryRY7nOFt8suu0h8/a9L4+/xz7DOCMwIzAhszxHYXMpjt3zn6Cq1jRcfmlLhmc98ZkjpT91fggJvz35O22YEZgRmBERg3ZSnr/u7ke/a6znM2t8d97jHLfe1GZQENWdAZwRmBGYEtvMIrHuXJ4t1hlVLdv314+Md73i77rqrP5AnDzrnOs/6387UYw+4nXs7zZsRmBE4kkdg3V2eTDfe0spuUtspT3lK+U6yk/50wfg7y/6Xdfd6/iYf/JE8lNP9GYEZge0/AjtJbZ1J5azSnHTGbkiZTrHdO9nJTnaqU53KYVaXmzuUSmQSnz2gXR5KXNXbv9vTwhmBGYEdLALSl/xTLWsFr/Zxpwtf+MJ2ar/5zW/8sc+2b2U0ucwx9oQnPOFxjnMcMBGYZ0ZbHcGJmRGYEdhAEdjJXx3wbd2JTnQiRpcgy2vVMp1ix9drWdlwZr0NNLrT1BmBGYEVEdjJ+bSiQ8pT5DgwpDQnwbmwk+kcXWFWMM/mjMCMwIzAxorATnZw0pyMNjKd1AYp0znPlubKfcv58J9/YH5j+TmtnRGYEZgREIF/ZjppTnvpHLtc+i2t/V1ItfRXBgTPMiMwIzAjsBEjsPTGVmG6dDZu8cB2eequ8OTAaDaih9PmGYEZgRmBEYGlVxMj2S1nv4OrKDTa6CGTEIMH8wRmBGYEZgQ2VgQOPtiO97ADkAd5IuWFsdHTDLmeh4h1DQnrkU38jMCMwIzANo5A2YnSdX9wto0NmupmBGYEZgS2QQRmytsGQZ4qZgRmBLaXCMyUt72MxLRjRmBGYBtEYKa8bRDkqWJGYEZge4nATHnby0hMO2YEZgS2QQRmytsGQZ4qZgRmBLaXCMyUt72MxLRjRmBGYBtEYI0/Ebreh3Xr4YeVh0owKI8IwDeDPh70x/t+9rOfffrTn/7lL3/529/+9hSnOMXpT3/6s5/97P7YX3/Xj+oo/cdsMF//+td/97vfne50pxvs/qiM4isexY9PfH1NLNc0cxAQ8Xpe+GwbVzRs+OQnP/mjH/3In+c68YlP7M+sXuhCFzr+8Y8f7xAYoO77RwAtaBjgZzCAFQTDALqwDJOGF/2d6iwZduolh22Pf/zjX/GKV1zhClfYd999h65B1mfnSYDERb4yCFYASUhXBg+9gMyLRTNR6mFMNq+QWXOxqz/BDR9y1Ib7U5/61A9+8APCDdxpTnOai1/84sP4YQl6f8j2W9/61s9//vMznvGM/Z6S5Sc4wQkMhyCP6UHF6pgsmqcXceNCvq4+0Yf/05/+9OEPf/gnP/mJP8Xmr675X08ZA+Bv8ovPol9h0ghP2phvQ2m9I7YjpOGLTHAsrEpI9Xvf+9773//+gvOud70LQVoaCM3BCKiJa9GqZG6ImlO5U4TzKMuHm2ukvA3h2zByeGKcDjrooCc96Ulvectb/EUsGc0fxTIbTDUz71a3utWNb3xjXGO2+U/HLfv99tsPI6RFUoAwWgbnOc957nGPe5z1rGcVRFxpCR6q1wMsADNGkVle9rKX4W3mNcn+/Oc/3/rWt77b3e7GgJYNC3XhGvLZo4kRATnYW1SDAIs/+sAA+NYSGk0ENVsGcZFmDRAVDbES8e9///u//vWv8FiU/qc6EmLPtXrjCrO6LjLqdNESHB6SdnBCoiGEZEgx16tLUxeMLsYMLXGJgF7+JhMShiLD/chHPvJ973ufgSYBsj+EYfj2Wi7kYNSFRXn5y1/+xCc+kZDUFWSBkvLOd77z3f3udz/LWc6S6rqGGYtABufmICPQtCF8//33J9/ISq9qvoiniXfve9/bHw/XhZG0hGQGzGKzXhjBwVtYGA+PkhZiCwhpeuGbCbkZS/gRSdI81zWjIa1RzoDIwpCmFF7yh4TwO0a94Q+2RsXYGLAvfvGL17rWtd7xjnfIdybHJS5xictd7nJnOMMZ/P9EP/3pT/fZZ5/73e9+5nfjbbCNX3kB8F//9V/ITJ3SEGme1de4xjXUKM2YMfYxjubqSYBYkVNudKMbyXfNqnOf+9y2VOc973llGX949QUveIHeX//613oVk9scxUUaXwCjCVOvuZ6uyMYsj4CQeBnWUkFAlALPZchgqQ0N+QqZar1kyhooBQQGkBaUejHWhF9d0IxewhFkDKSClwQFXlTVMAiyMxgypZDgFQWN0SQBoNQLYyN/gxvc4P3vfz/LKbKZuspVrtJ/NCr4j3rUo+55z3uKdvRDsjjQbrstPjZfGI24P5F74IEHXv3qVycNPYLsiXdFzZIchEdGguavfvWr613vei984QuJZZsnJWOkUfGk8cUvfrFeu0vEuIQdEowdAUx+aQLgqWi81HqLHrzCWpgCknbNCmJuMgAeJplxRQDWlfEFZFDqSqNeXeQnYQQ8CTtGveF3eYbBINmz3PKWtzTFDd5d73rXm93sZlaCAdP15S9/+QEPeMB3v/vdN73pTac97WnveMc7NpMwmh/WoU3BRz/6URPL/FN/5Stf+dCHPvTkJz9Z7957733AAQegJAqlKdIs2czYN0E91ek1da585Ss/8IEP9B8kYTGfbPGcJd/4xjd+7Wtfu8997mMxJJx8jIxXNx0BTbiazUISwkPqVdi8OMsHb9sBBFjYDA+gq9QGD0NUViFAD0MUG1AKUZJRZqF6zYKAnIJTzPESsl6gaNGFgDQ1v9RKg6J3hZYwtKCJEcYtwW1ucxupCuYOd7iDoS8IyL7xjW/c6173+va3v/32t7/dA++2t73tsIQKB8+TnvSkxjd1zDZMn/nMZ+wWkal32203BpCz2pIMK57RMAmA0RB/85vfJNNTlnbXF/AoWfjwhz/8bW97G3vs650qsJS2Cn7DmoUFfOgNGE30qSO5aBcQML1ZBU6grhhx8UWv+GRSjqcdPTLaI8YFnyhc0eDawcrSpN/QxTgZnmc961myidG6xS1uYTGYVeF1uch72tOeZlCVpz/96a7VdBlsXqM3riaBGqVpAT7Xuc5lFUlMaH74wx+i14UXjRqvAlgvaGSa4h/72MdMPk/7Rz/60e5QsKA3t+wsSL7gBS9Igju+173udejBVCCITPYBcMc2sH1TuRgBMsU9kaMHLtaymYSMyQvsABHAa2dBKfa0wycwUZqAavSAAgJwQVYyokVpTaZldW2PA4msyGSA6OWOrqLNWsYzBn1KNfWCda0WOzA5m3zEgGc84xkcIX+vvfa6/e1vb18/tPsflp/5zGe6umWG55YNPi0ZABAuxNQVNFw24ObMIx7xCEhpi22QytC+AhCK/FKDlTe84Q0f/OAHsVP9mMc85uQnP3kadTnMSqMuScBf+MIXXv/615M82Bcl89GIe3JDjtAB4JkUS0ED00UOmYjBhRGxhI4eQVHKa5SchVSDQ4IBeAnB4uI7FYltwsAnedHOHQDe8CnP6Jor3aFc5CIXsaEzTkYOXmlm29w9//nPhzRg9nrwjZxVbeDHYDfSMAjOec5zojEh5JfwcRGy+XmA5bWvfS1iU1+GpQKsNNWS+ZSnPMXWkt63vvWt6AlUv+QlL9l9993tSqQb90rS4sUudjEEentEu7Sye3Xf5IAsjzsr2SQSm18kEwim0cHZbgXNHnvscdGLXvQud7mLC/4ox0ZMZFhlWhcKtQVg73m7292OCruVc5zjHDYs7373u0eWHJSLAI1WMlM9V1wY6WoX07LM67Es9dpEO4S6ZPDiKDxL+Kgsih0YTvFIF2sbKVpe+cpXymjksLAhRo8gCf5rKo/A7s5e9apXsVB4WcJ3gFs2ZIBkwoO5bBYh+MUvfkFOMpO2Xs14vCh7J2BADTdd2ZlrBk6Red1mmEVvfvObIyCTYZe61KWk7B//+Mce0mc729mMuO1nVhFCrDtfGRle7w1veEMHZ26SUFRRCog4POc5z7nsZS8r4fp/bMi0nfzEJz6hiw05AsgLYkOqFWNhuA20SMrLD3rQg6RvwtlMi7CrY9yR6g2f8gyGax214bnJTW5ipBsnk8MkM64AveaN/5HSDHBQbTZAWsymuxKNka5LInDegQSc6UxnsoYxNs8IR48M+5rF1qxjssnnzsgkQ4YXFwAjwH+idNWrXpVtH/7whz3D085as//73/++bcs73/lOtsGXoTB6E2Jh2ClAkqm4u3RBaVsBZl54lA9+8INtJC1dU5b9zoBclivtKPUiKz6cZVXTGpJh3/nOd25605tadfDyAjIvgu585zu/9KUvxbiZwiMPBpf30qvTuqMlYgLHQGi29mCWbf8PDx53Z9R9/OMfj1KtDC3xagb01BExtgmC2qB4LaAXEiMbIGOnwlZ906ZNmh/4wAfUtCOT1EaUhj3JZHOZ2stc9A1W0tarqcPrLsX7UGa4wZBqiyQDcA0XHKUb7o985COOupKUXrUzhBfNsp4JA4OLm1n42Mc+1oMK3jQo45vkLigf9rCH5TJ6gwt2cBZ5ouxemeQe8z3veY+F8JrXvKawjHrYA0D5ve99TxoVHxqT5lFtx+ACGgtkIdK1g5UNn/IMnnljjpoBntWNq9ECmCtGDtCgWgbm6Fe/+lUj2ihqmmcNbWOs6XRgb+WJByN3wADUiDFSt/kZ4CyJAJmHZyyagMwANOOdeZuL6MlPBYNd+hx00EEe1HYEbtN32203qjn43Oc+V5Kya2Pbl770JbvaK17ximR68ud+8p/61KdKbbRc97rXNYPdUtl8nf/856froQ99qFmODEydcCHLdxhLxdqzwKxbm0cL7NWvfvU1r3lN2mXbNjLrOe5VjEDxlxzar33ta5c6U0EXxpKIsNg+80VyZAktruE40vpcisLCXg8BxvzqaZRA17LwRElP+dIYcSd2NViEAXJZTSyQ6FlSne+GW6hdxlFk74mGFsSbKdTpJYdkjyiMYA/UFGkqCJJDF9g2DYDRVzJyK0r2A3zOYrhdpNheSVXeceF1l+Jsjuvyl7+8SxJPXyPScBtT7ifTbEEGg/LmN7+5J1PDbWPIHk8+cnQhrrQcYJhhuD0FWehjBsOB0cB5+4fSVYzzBLIcBOxgZWkp8tMY5GGjBaPpmWNUPBu9zbRQhcw4Na6iYMZookeJHqaZJ44wegsxGs0o0QDge2hvlVCao+5r1Jar8UtmXuQaTE0rhFVgHnlFC+YLax2UnIjhFbsbnjLPDbTH7HWucx1ImKYpNykiEON6xncZpFf+jUxNyKAngRw365AAx1iLE8wSARQfc+5qV7uaLk1cMLYS3slo2tf0nrFNqxOloZE4nNxpYacERw6zbQeScJnLXEaut2C4aV0lhzqlgWt0dAmjw6BT0s4770yvTzf222+/3mY6KV/60pdmgEJs7BQZSpS2otKc4nbSDb1dj4OVIns6N/FF9DCysOjJdw7C8q+sSp0I2FzY19h0cNCeaEQMQD516mXlSwGRJsgxfIYbEgaZklUjbqLqNRE8F1zt1YveNvySl7ykqBJiJugVAe+X7nSnO3kFTFphSbLmmiUtbLCbjr5BhNGMZZit6WtBsTJFO1bD6EVMC8eFKEa1LjdrDuzoPTnUKC9wgQts2rSpW47Pfe5zXkyzn2uOzHoNrs/u0ss1b4oNFtc8SLy2LuYMVjKJConScFsFLnwKowlpuKVC+z5I0wbZxirNgWHzcHZgAg5+MIqsICISF5zCJ/pmqsVvUcE0YB622Mz1RkhTV9E3eEbU7EcpymiIUsMjSCBe22+D0TCsMOVwN8mn2gk0+zVzh1IYhZEMNmmWW0cxy5nBeGSUstAkAwNkDcuD2TCeuj5RllzEgUw2Z3a+r2ct4Qho7K0FG8CIqwEwaumgUNOoSWMG0OXZDsMYNRpKfU1tE5H2utA7He+xxx6Oxg6kkFxzO6YmR7KmLgm6XDNZ/E64TILUxR2UMmkRoNT7FpRyZfmOC4mCcdT97Gc/m/ZFsfGyMEW63AcJl42Pc+uLXvQi6UAus0m8/vWvL5d1r08yUWorzSnY3aVXq+4xbX/sWew4uC9RGs2eNKxS0ItbuhhmuLNTV0MDGU0OoqSuCSDXG1PmoUGMwM4azAxkeQFz4IEHenJIx2Tm0ZLiVSU5aSFfCrNGCJE0MwBBQBHLZs4CYBgzlolB9Iy50pWu1OhXUyiMCjlKiiA9gVyVuAewqdckytYsrw03S2JnCWdt2SQvw42Sy1Sb8GpNtpHZVPEZFpfhKcpaTx1xkFUhkZGPZQcrO7nYFi834pzkNie5Cm5aWJlCqRgbeAWsRiZMyESweJnfomw43ZqrSxPVBU4tHXhEu7HySHHPtVVCaUQlZSbZ8FskJbKWwaJ8rvXViAnqLrncjYzvMLIbv8AwrkX4brvkcac4QroVJn9I4++AVwOenIg5buWf7GQnI7wHQ0FowtHSoQO7wAqjmapGbCuKN7FMCs8wvfaPjmmf//znhREsYfWiMF9INo9JNtGt9kUJfPcrlFZdMgnMEmRYELg24pd7HGNHFwwCZKJKEZNcCNjIoA+PhptYRtFkrV6ryCLcc889LR7RY7Bdg6t9ogSBZEJIzkLhcp6y0uRunwo7UrnHdI52eG/yRB+xmjqrF9LekA3hM6kIcwcSgXEs+DK+LozwOc4w59nG1DCZkFKtsYZ3PHQPkNg16zGOuWDu2XdTZGIb7izJ5iLDSCy2VAwTH/S2BWBzFSBxI862xppSTcI9ogTBpAVIrG5LXQXqTTgJTsSEe/J5MMNnWLzEKpBjuFGCYTLb56so+2hGKExCTSaZlsJLlz24tW9qJRbjDlN2MtIcc9fAVW4bM6Gx+RcOY2A6Wi0mn6AjUAuZAfY23cKzXzMehlOOMAZ4sdiPGEs0iiQoFQolGjAuKgQRxtXPVgmiGeAopGa2SeC9FUuaRhSBzWyFXtdkTGK/lEc1a6vlAqsUHgYjCZa9T0kdK3y18OxnP9sagEds3hAVvJ7xPVqlCa/DbHnENi6qm0CsEiUZhDqBZXyzkIUA60dw4MlHloWUegXpPW/u8DSxyAgnsKh6/rPNkXxYSEJupgKlLkKIxYsrlyXQyHR5k0hdYpFhxKXXQOvFrgmPV4lA73ABLwIucMS2Wgb3FljTomK2XixxkZZwluiST00JKY80ZAmkjhbG1MywHBRPOdRg5WxBzsJUeMthxpLcVQBeotgmMbUBRIaLhfCuPp1qPVEcFeX94VGiFusURYBRXih7Gm77BnZGkC6MmWe4wYyhPSQCo6NAqnGxrQL2FY7fERllimIsVroqxJIJtrvMNRhNYlFmnmlcetUE22QgQGwoYdALl2eS5SDHwSM2UmgMlpTn+Ez1jlc4vuQ5b7kqEDw3BT06TCaT1W2LV1GyGKTk5aJX5kKDuNHCq0ttGskdwgc2cnrVHlO2HgbV5IM3TS2DdhxbK5RsZh7hTJLyHIiYRzjtkHmXwV5xInZkGKrhzSrjjQy7uRKLaChuWLwjs/2BbMIlJ/lDyArAI5dqNLYPuojlvhBRBBi8zg7I9AqIGt5kZYaHCuIYIxZJadcuiRkWlcNszyf7Bb+iMyjIiFIsP0JMVgLDtJyGNEgwLcgkZSbxC9yOG959HK9bgSh7QuCiQpBhlEzFlTQAIXXRC7a67Efsm+zv0Ii51yAOsMRGVq1L4ZSNjI9OnMWIQsNHn4sPyxdZgl2SMh6lE70jPyGNTmM3GKU8ZD6/ILZIAhgzRpO0LGe2+elGTOhcjOLSXK03TKKEjjQYc54lioN58guvLk22EQ62CsiUUEwPGEKQCS8avGGQRezm1ONNl8OQ4TalJUppyDPYXEWGnRelezcwMPwiEJ4EjPllDmvCKzBKAbdI88J3ToYbkgQCMfKLKBhPgpB4ATtSWYp7XhUdvhU+VwyuDyx49zJeJHkCW4p2f+Ii+s4jHp6miOZuu+0mQAVUsLCPtQ1vZWIk3H22zba39VSI79YKIr0ud42iLeQTnvAEvzNjXsIpBeSdq1zWssS3EZC8NrqmIINLMU0CxDzSC0mO6ai5aGpNdRNlsSsYl6tfJ2VPC3tkLyiTTxcgkzyfPTxoFDorQcTwatJLoyZ46AU4wIqY87ULMl0KGo6T1oLBDrZRgqTIMuj3Hnp1wRBiUMCWQSw8zZiGzB87cMVhWAUTWSaRBraXN4iARZOKKiR2ktUwtg9eg9g42DbqEgqvBV3k2ZcROFIJOQqM+3gHSbkJO10Srq2WixG9fGSeWteAs0Ei4J1Hr8sHV2/OreEziXdyroObk6/YGgsSECiJKm65loq0yPsYkRWWZY7NVUaELiqsFF7L2t5cS0PlXC7ETLgNoDMTjK8dRRIjJPdhsOesmnlU8+KAAw5AwzUXAg1WVhUHXZrIPITQi4MjVGeL3NFryAw6XdxMF/rBiMCTwNJ262e4MxiyMoS0Rg5B7zj/Lp0gFBHnk1oRGtE3JN5jujHV645DQpHjPH59P+EDMVPTSHtkCahh66GHRfjQA8LIcRaq5WQvowsx+UIprFsrhI2QpWVQJTWvrpZ8WC49sihy0esNJgKmmnYwLOGmOWEdcpZtODJJEyOM7wM4YleIEVKv5ohVxKtrNLe4xS3UJAiXuKGhS75T0ysv+CihUKBERqaYqFEOXTXJodp2G6/NnV40mWEPZYsH1gVJoO0AmMDHPe5xmtksPoTbwki+fRqNOC9QYq8p0aD3ClimCKOJ141Ymw7HtwRiIRyNXkFTW5Ys9IWHheQ7Qbccxt33YhaVF8R2KPko+MzDjsDHNGaF1xe88LjyttQFi88MPVlpIR9l6igCLI4OOb47g7Gp9ymGfTGaYRL5NlzeeEIaR45jJ00QAAJYqJGREBcY0iOKIy4xyMe7XslrvYjVJFsLkruQ2sl6OxGeLgWBlGS96NX0KQlFbEg1TEkWGQwzGl9PRIaN4QYrImwu0d7YIUbAQRjBBJCMDJ5G1zKe/V4cJZB8Q6CmMaDPCTx3e3GHS0EgpCaP90iGm0yYHa8sLQzDJnCNBA+LqaYo+MZH7Ly280DQBVmvwGGJsf2zcOtV6xIsDxmSozEYAF3GVZFoLPutFUpiiTKrHDHY5vHuLaGRSz4XjKs3gI20z688zCGZqjASO2MMvDtsT0tJ0znLDTqXnXH02oihZDaBPFLzJSAVK2o2+ErAfTxAStpzzz19ugFGRo4Xo0ylSEwcK1z2WSEEiphgomFnHtEIxgjw7BE0n+B1HGa2fZ8sXxrFm3nWKk8J4bLp7iqaZEtFQHiHjFUoFXiS0avTy1/r1i5eOrYfRwBPneTiXslvMPTGm0nZKQ6stYWxlbOP1vSMdKQ1CrZs5Q70IzuIgBtVn1BIvh42HoT77ruvUzClMiPKgkk7StKyjV5dkHoLjp8l2OvB2E3vt99+chy4RWvsPEhQmpYc7wKLNO4TIsU4G8q5hkB8hMXdi12VuzyAXrbRS2OWrK4ZUG/2kCx3OzpoelpQbdqA0QgReK+99pKDwFQ4szODzOERackB5KMuH5qAn/e85/XRtS2bPYctpC62VRBw0HtwAkXeQdjOmignaJ+UskQ0YqEOHlnBNBaMMfeMjpnPYKNMMhqPKAPhCWf+GG6MhXR1EDY0Zml7LNx8UyucKbJh1J57aoEWFF1g4dYEG28sVm/DYBKLlHmjmSj3WcjItJZgEEhGYm3RbsWoNaI+dHDZYVfigwy7FXtSxkg6rGUzU+0pXCqxB8bwZzyrsMtrkKZCE4KFTJVQrGT3ZUzlkTqnUBISZk0vdNElDu4EPLFlDYzOjGRab5IXe9yQmppDLHuINS9TkcZg5pFgJbOtDUUvkbpbsGiZnRy1PbiYOzCauG4AYSoEms292ms04VmYIrVp4BM5i8SNp2WAhnYmsVnW6DceyCp4y2KaQmECGFC22cV0B3QI4cERqyngAEp55NQmZe+xxx4wmsPrKEczFurgBxJstUusEp/p5BJQMdaQLXsDx3IbTHm8MWVkpbG72MUuRlqRgc8Guow1F2AWdWXSqLN20Bg4xD7zFig/VvECRBqCcdKUVYsSGsP9kIc8JLHCZaCLMGlMGsIRwHsyGW72sN+x3XtCBK7X+dhjTJMB7DfNPK0dR/wAQ0DEljQy9frNortdNFnIEnpTBPa+zqm5F3S0ZA9eElxneYcT5aJtYbbnmrOFpdEJXm3wTo4S+rzsM1GE27VLgMARYRqJFAKcak00upqLujRFMKQAwYwmFg9wSWeE24z0napZKMQy6WprDgeGMU0U2wRXKgbeGzeZxeApWb777rvLGh6e7GxOFB2MbDOlpCGUmuYHH93I+HzXFswpOAmtnMxLSPjVBpMMaVPs9+Se/960lpVosSrMWl+l2vp5zJJQkLGIp6bneTbUZCp7wHZ5rorue9/7WkWEoHRdsPfeezvWWfMRE4UeuwtNKjwAYLBDSkPyne/dWI4gMkmKMWrDnRdOvq7hPC087Y0apF7L75a3vKW3BKs9DcN4gTXQ3l+JEmQjsh69tGuYRBhBUSUhN9djWRNvPftNgg2OU5iYKH1/R5RdNn+7lDS+2UNL5pHWDC84mo4yDokee+KMHgYL+jX1CqD4D5sBMAR6KjgPecw4KJDsmxUPXQPqvadfEDppmvPEkll+adSGnBE0o+N54IrTFtVmjVNYDLebGSoMN3aYzENsmom8UzlKU9eQuaNwUdBT3HpMr/h4RmJkvJrNFqCsJ116S24fSpQuz3g/MfSCMVOjVO9I5ShOQEbISEsQHinuIywMn56KoGDJHUbOsEmFPhlFaaiKo+AaAKHZeeedDXljgBeNNWZOw/jYCplQmgE2engR00WySbC14th0GVnJPHNykcQZb4FZGx5cVKduzC1Nphp7hdnwDGOqoovxSk0ErlF4DUiL+YF3TfvdTPEOGRr0xNp4ejhLeVIMe8wnihKeIjTL2pbWWOaVmyBTxwywXicR4+LyvnuGYcAgiL0BoleT+3xHAGYSyYliW+yI4TOgLjTSNCRFfEEGoznUrQCaFcPmbFhBs9gcxoTcvPBFxkU4l+kyb1nb+3FzVYSlAI4Qq+YmSoy5lqmLmOQUMdKQqe2jzdtFdQPWKxRqjITLI2qY5Bgvxngy9Rz17LGfysGGspq0gOypHl2ZwRJjTY5VyS8sVKQdDKBXDQbgtcQoMrucURZFRaZGmSJcWRuj2WiqwDQzkfG9B+HhGxoS/l0lv+x887cJwJhG/+DaQ4l75o1aROyVzHJ7E+EWCz4LkMe4Z6btLkHCATNWAinUEKpW4InymLLBIS1lAPdQGO323WgALMJeKf7roWlUqGYJyWxm3mKCg1eGhVyIGAYv2HyNYBgDCYYkCr3aFY+pPOIYwaBfBPx+SDaPFz6WMXUwgjMv4TBD+5ipCRwEADQoR95p7sYbHAvhNKY9FhgxQYmAnCREpgk5ZC5akrRRox9kAxkg5i2PzBjNFWSjmahcw0LscH/QbAmwaBI5hAzXAMknh1NKgzjGAnGwLnCiCIEMb4vUa5zVlqBfFrkkE6MdQx8hoFx0bahGDN96CUnCGOjszAxwzWwYqm3QugsacS5oqUsvFmLBSQhAYKaFH94tuoysXB9SU8m2RUz4DVFn9uZT3k7vf//7hUOGsh2wNjgsUl7ti4U4+hbX/XeD5DhmQhfu5dH5P7eqnq7SgUcZYrzigt0eRFPRRGmPQwWBALto+3/7r62V8hpRNUUmFoBeMI3NswhYVVdBQaDZImFkSDRhdEUP0AVGD4gSoJl3MCtKZJARNIGIJYRJZq1ZmKKEo08dGvFflEYCFvTU1ZVqlJAxJh8ZpAiTn3ByiFXHCIkFTfJJ1juakCmKt9qjy0Ep+kXKMKNuHWqSr9ZkWOoGzSJAlN6Cg2U4GGaRcvNwJuV+vtCLBX6k3RwpDiOYw5d6sUSQ/SMOSVttw8ADlCZG/pLcxNDMEjWa5qEuTWbAjNFMAqReZmRDSgmJWL6DGSM7aHIEI4Cc3MESOyA4/PA6erqyh22pHuqG/BiTtiPVO9kz+6TT/lmAcpt7LrMFwtQxA6S8HgUI5DLBKrUJopFTu1h1mkOv6IUBWDCARsJ3SUQZOU0voRw8ZcmtFcTGlTSqlWUrlnZ5zbOmFL8WBxIcMa7hchLC6M0LAAw3XScLBV1CgR1Aka7VRZrARa8uAN6R9XC1oobwoT0vCmDsqaYLSyuEwJQmJLyumjSO7IMyC4dGcujCHqAGY2FJ7BmQUrCulA6TVnsaprmxSJaW9ejhaVEKC0vCbIZ+M12x8wJNGb84qKngCK/11oyYv4jBAz+MKRR6DTcv1tRL4IgMAssHe5KxFMbsGeM+8AUWPUXRVJMTIzsRj64kwAxkjqCHISe8GjsuQKLyujo8RkB1bsYVfXgwmeoA9BkQZoepd/I+zrVXsZOYDB7/BUW8erzIHZxX6lXDGHX7bWSNn1rQKyPQ0TsgODvLob4k2LRpk4sJWc8rxT6n2CpxZHD2j9Sc2DGQmo0lsmanJjvh+TWIo+FFADx6NQyuouFFR/N10MQ+akrBevEqeMtK0Y/wtmyKGPooNbGPoslILGowsmHtgDHmES7wwA+ZsWNkQEoBiNOFLMk1M7IaS+OrqzFFvLokEx6XFYIYI/kJWU0fpXowbp54TQkhB2Mrsw0mvYVLr1LERAZek3kNAQnFHFJXxujiMrxR3ozeuorJSApJSzWBmslstgx1cTVkkEV4GJnBZMIwlYTowYgjG5jhXb0IAJBUoyQ5LRmmN8Z6U20hDwMGWR5pjrAg3pHKf/gIq9wkIkLGzyIlHHZq/Ff4j8Y8KF5o7NSKCK4x1YRbBNVST6EkwSshXD59lDJkSd9teRPS56NbJY7UkdOosxnMpJAsZMnohYyMbZDNKgDz1KPgQlk00Mdi8kEqiMUHzaBfAdSFDDEVCQdUIBGQBq8kHKBXnSgEy2qXZnkEakgFhgR15o0mJJpUkKNXV+MYvWai+I5sURR8AcEY3ojHNWwGkLBmwYIx4fwKSM6a9GkhH5BexMPINVnWRA5r8TY6yIjiew4Oq+BhGLYZL0zvtAhas2hNpZDEqilNWp5qkj9U11TDNFtwRT+aydGEDyYquDBCpqXRBGdSEc6GMLEjABCSJSRHUxOcAYM9NzXDJ0rd5CRHGcgdCfgP3y5w3iznvDAV32oYhbdCKa+ZoMVUHoEvNDBiXbiLC0zhFkoXhT7j9sGHky92WU/t52tb8hTdwig3NovDQ+9oLk7fgcw88sPkI7hm+BXzICSCiA/VNmRJqF6UHC8CZcCAFZR1xTjYIYOHeau5iB290S82h++6hgFjvFJqZBf1LmqPYEU95MBvITEyXMOYQ+VaoVFzKI13SBjODmCRd5E4CWEW7wQW6VfDi1x6cyEhQ+PQMjC4QiZQUxnCgyMYeMCi2ME+gEVKouAHZuhdlDDUDQkwg2UAIRdpBuOGBoZHO/miqpw10pasZNLLeogg+dn3PoKilP7UHowii1IGVKPsURkvSleE/ZraB1+axCpkSkP+VP+GDt80fkZgRmCDRmAnR05JygdEpbx2fBKTpKbu0NpJJ4zkJRtKc7oCfG6GIGK9Dq2EyG5+AQa5++67d13oeVg2xOVGb4PGa5o9IzAjsKEj8B99qeuNrZQnK5W8uCR5wXhdK0/51YSNnpSHoP2afFce1OuLEzUWN3du62z9JETJDtKfHvBZMjnYMdoGSoWlyA0dtWn8jMCMwAaNwE5+YCQHSVJynzfuEpZdGGds1vzcwmfZYD8F95cjfXIpYUl8kpeMJv3JZWBfrkh/8MnBDqlIcH6Doa4XsSQoV9KVig0asmn2jMCMwMaNwNIfZ5e8ZDpJSiIri0lS/TFuv0HxU1Nvdf3o0isIP6vwvtW5VeZqNyd5SWQlSnA7QcDACA3YL8D8DyNOuH59QTiN82y7cSfNtHxGYPuMgPQlia356wv4bN7JX6EoPclctmn+BxAfoHjz4Egrr/nTI35FuMsuu/hzQD6s80eEyolSGxFJwW73h73XF7o0/bBZDoUEI0ApD6ohJVlvcvfcc8/tM2rTqhmBGYEdOAJL+7uSkc2XlOQ86wuSfmDozyv2WQm83CcP+sWY/ZrLO8Ru7oqL+zsnYh+jlOAkNbu5YIxoyO8ULIdKi/Z34XfgsE7XZgRmBLbPCBz8VxgXjbOP0/STCWdYrx1cvUlYMPZr0lm9mgGLzTUxkBKchOgP1MiDfp2G1x8m2fWQ/0tBc5YZgRmBGYGtEgEJp/+vQrIi0JZO3R6reimXrVnkO1s8p9TRi4EUW7aB2RIgLttAWzzWsIBMzS3hnTQzAjMCMwJbNwL//AR8hdy+SpHgJKnyJYL2cSsoN9/sag+jrSI5TsQwbRs3zzh7ZwRmBGYEtnoE1t3lOc+Wp6Q8QJu7w5HySpclPtaX7A7rVnGruz0FzgjMCBw5I7BuypPpOpNKc73ZKHkd1qwn2bVPxD6Oxq4Fj5zhnl7PCMwI/HsjsG7Kk54UCUsBSFsMPXy7MxLwSnmADrZJ+/d6PrXPCMwIHAkjsG7K6/1sEWnHd/jynZOsjeHYGwLkvpnyjoRTbbo8I7A9RGDd1xeyktJplKHynWx1OF47SJ1LG8XlP+JWviPNXm97cH7aMCMwI3Bki8AauzzH2DZl8lTh0Fw65R7yl4QPU4xwRR+Q5IE8TKIm8YzAjMCMwHoRKE2N3vWSzLq7vME5gRmBGYEZgR0mAjPl7TBDOR2ZEZgROPQIzJR36DGaFDMCMwI7TARmytthhnI6MiMwI3DoEZgp79BjNClmBGYEdpgIzJS3wwzldGRGYEbg0CMwU96hx2hSzAjMCOwwEVg35fUB3fBTcwVmdC0CW0KzSD/hGYEZgRmBrRIBH+LJP9V+Q7FeLlo35a33Id9WMW4KmRGYEZgR+LdEYN2Ut8KamQFXBGQ2ZwRmBDZiBLY05W1E36bNMwIzAjMCKyIwU96KgMzmjMCMwI4cgcOQ8ubZdkeeCNO3GYEjRwQOQ8o7cgRkejkjMCOwI0fg0FPe3NztyOM/fZsROJJF4NBT3nqft6wOlOQ48+PqsEzMjMCMwL89AiM1HXrK+7fbOg2YEZgRmBHYWhGYKW9rRXLKmRGYEdgAEZgpbwMM0jRxRmBGYGtFYKa8rRXJKWdGYEZgA0RgprwNMEjTxBmBGYGtFYGZ8rZWJKecGYEZgQ0QgZnyNsAgTRNnBGYEtlYE1vh/bNf7EG89/DDlUAkG5REB+F93/ZEs/1P4z372s09/+tO//OUvf/vb357iFKc4/elPf/azn/24xz2urv7r8Sj//ve/w3z961//3e9+d7rTnW6wn2i5LH9ieBT/xXj/fznXYHIQEPGaXkT505/+9Pe//z3eXXbZRe0/PsfV3/BKCBhSFyN//vOfH+1oRzvZyU527GMfm0zC0w5mwFGPelSU6CHTuGgGpCZnv/a1r335y18++tGPfpaznOXMZz7zCU5wAsIH5aKp5MN/5CMf+clPfvLjH/+Y0pOf/OTnO9/5TnnKU2JBqZfYfGTA9773PU3mjRhm+aBcFL4CLuYJHF5oKjxCjACgwMSbR+qa8MEDgB8GgMMvYmL885//LCDf+ta3uCkaJz3pSfnI0+aA0RcrvArt310u/7VcMsaInPCEJzzOcY5De8SrVaRosR40Of6Xv/zl+9///jGOcYxjHvOYVIccNgOir2YqzPGPf/wTn/jEudwQDK4YEXOhrqGurr/97W8HHXSQmcCbXXfd1bRv+pG2SLkIo//iF79ouv7pT3+yWE51qlNd9KIX5XsCC46ahN8sF12nOc1pwqPZ3go7s7b4gIeF4TWPIqADGxDdIvWa+BVkmmtiBnK5/5/VSU5ykhV6D1+TxOYHduP3pCc96S1veYsZZpqaav/4xz84eOpTn/pWt7rVjW98Y0u6WKTrRS960X777WeKQ5pGmYrRCjnPec5zj3vc46xnPWvCF7nwrmiusFwvdZ/85CepfulLX0pUqQSetAQ27WCufe1rf+Mb39B805vedKYznWn0sorYmoDcRI9SEhyi/vCHP9z1rnf96Ec/ioC/1jkCi5nYBz/4weIQLyRRuf/a1772cY973B//+MeGHv5YxzqW5hWucAUuWyq5Q0U2nPOc5yT2KU95yuUudzmqKVIKGpoySCyLNY0roj0EBgw5uFgy4h+j3nxfEYFFFdEsitXLMCtfMM2EX//619gV00BwjOwVr3hFPp72tKfN7GGJ5yLXGIwy1wi3GIvSLQAAQABJREFUvKWAq1zlKiLMQr1ELRqwCA+zMZKgJlwWMxD0yravetWrBk0mkR9G/eEPf3ivvfaCudSlLvXMZz6T5GzThZhAGLYhWFQKJrzc/ba3ve3e9743GvS8ywsTgLQLX/jCCcx+NfOkxUc/+tEf//jH//rXv/IdAV245Nzb3e52N7rRjUL20FWz/2EPe5gnx4c+9KHsWWHJdtLkmnFvFJhk1NTDcfCGP9g2fmakh9W1rnWtd7zjHYbZaF3iEpewRM9whjPYxXiI7bPPPve73/2a0IiNLufHHPJ0R2Y+mT14EZiC17jGNdQoTb5ChiXG0YRZUYq1OWGWNFGwRzMmCiFGAqVkZ1UwIwJisYBRgtOlCdBsDWReBPZfFuTHPvYxojxCzOxLX/rSdhOIX/7yl9/gBjcw9tg1rQEaCb/Pfe7zoAc9SIIjTUKXAi52sYul8T3vec/1rnc9mVozDLFYbFXkREurNZAZCBK7TLtGRZ0w5jI5CljNlwKCPTZN5uVjMtU5GGVk0S9LWnp0D2DISQU5D3/4w421zTuDPUX4uMcee4BlPT4a1s9+9rMkoMw8EvSq5Uo7WcV8YBLff/CDH0gZHpZ8QbBoT1aNeohCoyCGkU0IIfwrX/mK84SYlJIQmGwMRkYC/Gte8xpzT5Dp1QuJnYW6AiB1weNS61IruNRPfOITjSxpyjnOcY4rXelK9nfcIfCWt7ylydDMR4lA/fnPf/66172uJ6WziBx3gQtc4DKXuYzDAeE2c/YB973vfcG0MB692jRgSWPKKcgNWtY42G44T4yikTO0ZpiZ4Zl8s5vdzPxuSjndPOABD/BM8+T3eL/jHe/Y1OGmaWcI7emMveFsWpidnmNPfvKT9e69994HHHAASqJQmn/K5uOT0paQ6fj617/+gQ98oFXESCqacE1l9Ste8QqTkqnMJh9vM0wTzE5IdVz0xqgZYJ04mTJp3333tZsAmItqq/QZz3jGV7/61Te/+c3CQhrV6mc/+9nWPMnWg12b43yh4Ljd6OMf/3inm9vf/vbvfOc7JdDWKgL0Fg/DsqoIJHMzocj+QrfodezwuRaBGp5MAFOpVsOoyYEcEYgecrErY5L8rGc963Wve52x23nnne1iHO6iFOf999//qU99Kl/sYuyJnONIywzxRGbze81rXpM0xYXD5z73uVe+8pWeAZ/5zGcOPPDAy1/+8miwrFmGhSKGnYUwJgAWKmg3/eQUhqWr8KLRdBXz3ve+F9xwYCFBDUOOwrWAETQEIWGM2vOe9zwqLn7xiz/mMY9xBQHJSHPDaEq1xtpuYJjtYbDnnntKYWR6NjiR0JslHqKWDxZHpTOe8YwChavJhhiZQnizdAjcWMC6Q7hR3Gh6meid6W5xi1vc5ja3MdXCGyeT/mlPe5oRVZ7+9Kf/6Ec/0tWcaPIZRdMLpekIPte5znWHO9xBEkHzwx/+EL0uvE1BvIrmevFBJoOQjKvJ4UTQ6sWoS00RdnNOzqLRIoRHQyxAFwAeoEZPJphANCU1AOFvfOMbpUt7ELszGErNRcTSuh0uRqoxwujiiJQnSu6nhKt8R6aCwBq46U1viphVch+AKCpYwloww8C06CIZF4BY9ZolAk8aXORgAaAMD6AUMkxyXHtBwlBHURojGBoJQROZrhXFipXrSctHR3KUaSHztre9rWchCbIDMpboEmGAugASiEVT0t9jjz2Q2QQR+KlPfWqIWqF0NEc0oiQcRi2Ahum5z32ugU4+G9iTYYiNI7yRhWdMAAwCmMQCMgye/dgBiCE9oUug9nruAXOHCy5nYQC/+tWvXN2iJ0RtfFnCKtEQE6Lg6RIBs+L5z3/+8Y53PEelRz3qUUaENPh6acFOoAEFbNCy4VOeIbeMPcCNzUUuchEbOkDzQ1fTxebOQDbeHrbwjZbBbjVq6i3dwCCwWiANtsuy8HEhI38zg21amEzN5ihf8IIXaJqmJOhSZ5WNBl1o9Jph4ZnkiLHbbrvZAJqXKOHRKIArX/nKjq4vfvGLGeBw+otf/ALePZQmvawFkAZ55zvf+TnPec7d7353GFp0OfITCJD3XW7CKyh5ZBIDEF/ykpfEbgVKfHHBA5iBpgDiYknwwCwLW6OSeW9961vLF3GRg4Wp+QUmn2RWAVwmWoEtYGaIFS401CkIlEUdmsiSHN4elnAs7WFZjgAvTMG55z3vaSsE/+pXv9qZQBdGxhAFyZLgJU3LhhkOM0FtxwRDzqIBi7DejAxJnWb+CiYk4W94wxsAQwiCQmFA9TK1LuoATqOGw0wgRDF/8ObvW9/6VlPdrR92iryv0CXLS1UYFfQw5Oy8887/P3v3AWd3Ue0B/Emxo6hYwEIiWEFF5IHdEMQOWFBEUZpdxPKwIErRiAXF3kFQwN47iDSxgFgQCyLFgoqigGJD2vvu/pLj3/+9d7Mhu5vdZObjG86cOW3OnDlT/nfzRL4Znz9/Pgw8Y0gmZ5NNNnF7ZUN5CQEzvNa5JSATk0I0Go3OMSKDCpl6jpY5n/L43fdZtZneaaedKm5MklRlCgF6N998cw/zptxFFQ08ZFKAiQxNUpUukeQ6DAnwGGSyMYqMaEGfONAcLJGsZs/uu++OUtI88cQTCUGcwCWBZEkNICMgDh4BLqZaYOLS0SCUkIxxvXKK8f3Rm52m+7jHdSHr7uxqI75jDAx6V1erxV0sK1mX66oueJ/ksGeYMBkLFph6tHKbyxDgI5AH4gS8pEGSrDdKB2sE6I36hBNO2HnnnT2oHXXUUUaNK0saC3baCUQJBhx33HHuWW6XBmX6lLi9SwyODVjCFe2Qxgj2gOuBkkxDCCUtii5IYwQwz8s9gEkZKUrejiWRTLWmhw54r10I4LEMLWFBE0WhiWS5QyTAuHGPG7L4bAuDi39MnxQj3TNGJMRmGj3Feob2oMyAxA+z0Rx99NEObq4jQeYjmy3wy1/+cuYFffyGQHIUBuadangzy/8Mc8QDIAPjYkz0qrfYYgsyKbKFYDELGfj4hIxdU0KZMc65es6nPHPmjdnEmCG/z8jcJHDNqLmByQwJEbPrhauCMpONOPMNMPfizy7qjR/XokWLYABqxBgTSRNMcwxgDC53IlkYi/wVFUIwxngn8u0C7BWZcFyEA5A5GSHzWUOCI8cook78ibmNNtrII0vCziu1pWKT33777SVQP1Whq0YXLmbH5jPOOIO6nF4pQlaSUWryoeNwkOecc07k4C1iBKTFVKICR8vQGqOvw5aWXmPxKO6E5QRhGUcmPJkEqsFOl4jNgrF7Y5LZXQbrlB3HVs0AQjQBCnaw9KQWBpEMT3KCAbGmXY339PLkueeeC8h4DRaBdIMg7oJB4IlA3jGPvgUhSKjgGlVoR6aXLnLU5ABMEKSPBiyMJZHAhy4oCHbddVfHNNp9RiMEl8TtOy8yCS4CIQGerW3bGLfbbrvIl6HIxOWKI259nIFHEHpA2GOYxSKoaHQAhC8yLJoKMoxJoxYLSlZB4spdJLpCPBfrISmP74aOZBR+KPGMIc2ZJZSZc1/LvMZUtYlU0hTriX4XYeaBdZlIr7l2QmcfH3md9u2ue+21l+P9gQceuMMOO+DNLodYKFQAjRogMl0OaCRbb+JS/rKTC7WwEEiOUwzAHdZjM7zAQpwYdWGxxsDHHHNMhhMCV3I0PlNoAtSuabIeQIbad999Fy5cKF3ut99+1EVgliiTDCFcFhIAJpLhA6CHtww0wT7bBTBeA0Efd4U3/gT3SsZeSHKckf1WxiL0Dcczk+XqXZWdmr6woyQ2owaH2GEWi+/OpsnXBlnS0EJs1FSEPrqoYGfskRwJgffJsmwgX68SQC1I1CbIzyFjQIgxyheOh66TDtq2Fs8InsCcT33EkI/oittL+CiAKBoTKljAhmNqwEceeSSuMYPGTRIVDpvwXmONi2G8jSCTIngo9SKRoQVp5xNRMqOIjRyxSix2xF6HbRtC3WHZRuvpgzR4lLHWqKljW95DglSHIL6lSC8t8A6PaiOKeXhDE4wuNqu7QJozXzOpqzTO6WICD0l5g0SzHGNGXVEtGIM0bEFjziDBGTZAc/78+WmaRUvd5GWHR5zfLct9usw0MhixlUcomARNgtgc4x3lk/idDRYV2KnKdzr0LjXExioJxfFHrxufWkk0J56QudmpxTpMbjou2u4ylFqB6MlHoPhC5/S02WabkeBxyrXXcc+rnJ3foSl2GqZvgowXrN6n2Y+RKHLiAXAAYnNZ5gemZrxqJSwoA1QTpgrk2GDGI48oMjMu63PHHXc86aSTfDaRwhhgZfrllw8mkLiybGKtr9vWv9ucI55RMIPrHLIQe+YjnMzU9DIs6sCGrybKb2XNLzzJZKI3cICumC0jOB3XNgCfAdLlTKc46YPjE48SrBVgaGqkkwcIR8wGQwB7Has0xCSTxSRBwiQ0SizkPVyypBMWLnEIn5G6vAsJO58zFyPhEW+66aaiZZdddpGaNcnhK98f7OXOjwZLWthtJCLTr6z5JBjEyWJEgcmk0UUYF4yB6wXwhjospIUYoBQyzVlez/mUZ4asKFN17rnnCoXMDWSCWDMToClrmDbz55VXJMEjE3ZCX3ZzhvKTDhF50EEH7b///s5ZYt0yy4sP+TWRS51gBOipTtC42+I9/PDDKcqyoYUlso9UhTjRk7CLltyDXILcByVcXQKdqQ6A+SSH3WBpEfd+aGbluOwcfPDBjqXe+OhVnFXt88jIdJYUxxSdd9558YmxJ5SjEZIl3OIZEUbeianINPGqw9gFwApGJXA1WRgkCRhJsxR9e/Ga7gcQu+22G8NOOeUUv6KQYgwNY7QYlCZeRy2XPu9THMh1Tn92COfEDEStlFKAHw9SxF2uYwbSNUkvCdFCr1BhjzDgAWTwkKR5VxUDLpJ2C983/JbTOcv+dMghhzhQ9wR2VU8AU0G+IivJa7zh8I6eAc5uDvvcIiuxnA1UAPTyntpU+qTDsLDA+OkMP+B1uocHRBSnear2GmCrYLmPV7wncQsPL92iwn5JEWJ/WyQ2pF0mRSmkUqMjE969IWskXg0BCZSiVOI6+IR6APXsL/9ZybPf1qEWmiEH+8x91rOo0jQr6MFZ2Jpnn3124l6s6zJ5qZ1rvGEJx3nz5jmRbb311jKOFAODwA87CDGvYKLU0QUYWlBGKfmWH72i1t7rDCIrCRpCLHu9CXRCEnwRjh3gQOp2Brb8NIWg50V1Tn+htCoogsxI/SLBMjjggAOcCPyoUKRiX7RoERuMWo1ScceEx2IU9NKuV80evZKFUwAgfxsDiSwmURq9eKt0MfEGXvTqdLEwc4ElyxiZH8Q5ROTvljSzFAGxBwsAvcNIiB2CTDGBGUXIaAlZdOnlZDBpJlozZkc4fJIgpF2EcLw2j9DQQhc7zbji5qv2NzPCwK+abYFOOuaO68pULJMsxBoRYioIBNv8gjn22GOlsPwahklGx2wAYnV0mXGwRJx5wSKRudB4mDYENJk4LACUcpxfZe2xxx52C0+H9kjGy1+2GR6gN2+F6J0A1Mlr/BDXweSwnB9Ok5+vwPAKGpNIL0ApZADGK4Fncz3nU56Ztr+ZS+6W8sy6+eNxUwIp4DINau9BiPN+nylBacpttlmW5jKxKDqd8rbddltNv1JWE4ulVsjEMyosQjkeGNdKrFPhwQXGruskhUCGCgHbFJhoIRywzTbbYBHr8BabXZpYz0x64dV4Y0YY1fDiG6+s7RgFI3xPP/30hLWvAVh8GUAAiC5Lzp5POGI2+B2iEOclr9cho0KT6lIX1ZoKrq4lsSd1CNRpoiSHfLcte4C3PM9YzrleHvOTYOoccxAbxbg/rnIZR2zR+i2Fo5ZtYO+997ak0SCI/QBNMPl0OUmBLeboBbOcXk2UAMURL1y2N7wmnZf4TVfIwmvSkTHG37fAAEQCaViWqURmrDWnJBi4ZESIJ0IqXPDLvfEnZCznEO/Lhsw2YQMvHmxmedwgASP74ZVkIkipk/FEiWEH1cx+ftWgNx/x9PrNnYzGPLqwe+OzEAQDdXqdJT1u5LkQF5puQY8xvHpTGBD7lyBm6X/nfMrjaB8cLFTudrOzGZanTQxYsKo9x+SS6KqimeOekDJtQgQGOxixqc3aE1uDIa4XcWrABIW0LBvEXpTJFEaSsicqXS5rTiXY6a3VBc9mGCxJuGeddRYWRwzDdIEVjrrQWwPHH3+8PxfNHwbFDLzSa4R4MkNpCIgBCBYuXEiIQPeMWPTHHXcc73mzd8Oy8v1IlQPdfSwMcmJJJGgqYezV8CghKYquwGoaYVjri4oXRp9r/AbN6rKS3RZdWt25EGQJmQiLUPFDCn8DwGDHYevQh0vfec2gd4YchaiLRvJpCUyL9ITAROc32NHO/tCYXGMUJAzmfPkRXuFVfmNGBkIaGLEmw8SAkxHhkBEVrknWhChkEuVA56AHOOyww2xFvqHD8wBRkAaOEgCp0GgswsYLnaZjvp0pj3oiAWWMMSJ/auYm61WUBOykJeYZbCp5T9ODQPC2/EQRPxAepZaD3+4IA78fkPXkYvsNMh9wCFGoy3jTZA9F4CDVga+Bf0rCjAFzPuUlROQU8yrWHQQyK2r7m7jhSrnGjQ+BWfQkDGPOTI9QFjGm08TX/GlihPHiht0FB2OmXDOraILpIYfkRFJiC6+nNL+NEkz+1t27MiH5+7DIwZIQL7Gakrg1zxLP0vmRWm61aNhDgmj2BOnXrS47VERIYs4qzesPM5K8ADQmX/gu6cCLRYF0JAT4fYN84euHxe+hHSUW49VFWoCytnwFQNZtokcGE8AXIanKEt1zzz3zqzFavJTJZQsWLDA6I0Wf6XCsMFK5ftdddzUoM2vIzjVOx1tuuWXurVlp5DMpNfboIsRYWKvp8JhPT+iNBQ3PYPHaZQtBI4+o4VOseZSBYzx6csD2GxOH18Mrzy/hmOx/SVCIyhilPE3PxL7k0OhxM5/sieN5WirAxvnGbvcOxczjPZdTNsvUvv+ij+vEmKuu/c8FnHmQcZGaUhuGB1NieUZNJgk+5iKz+fGGJiQX+Q5GtTcB/uc9vBwuAmucehFjJCfa0ShguoK8Bv4p+TMGzPmUl4n3R2aeYMyKBGH1Cut40ExYM/5U0MqEcZ/yggNpbhS7HHaXJt9nXTb92EXSdC3ykCc03QX0WpkohQX2muAAUdGrdaEXHOKAfCYB1L5CCl8rmUw/hfFjkcQ0dr1YYmGGE6QDKVPtxnKB0Yl1TfIJRGC79ksC9B5uZBDJBZIcL9P+VtQ5QjN3Z/Ts8UXC8JOFucv6sZDY4LmKAQAeYLCXTb14sdAVI8FWiMKxiruhEhgLq9Ar5RaAQr6VZv14IiSBnU4ilpbHJr1hYRs4M2L927GIlQqlSHkBca6fIUZmvKzFAlDHFTFS0zZgOBYw2MHHyagIGC/XexvFboyWPa4SSyO8ezcyh1B/nCcYfArgfGbTRU6+NYVl8rVpZU+2IrNj7DZRnnHsJdOH7AhX8ySzyyrEmobskQEXlvyhmL+WhScQS4hz6BO3TmquzFjCKIBtaWg0neDiN5bbUTykQopGR2+DhRRdlgmThAGbCTcXnlCRkaAQS6n0iiBTb7FUGDgVsn/yblmBlCN3LYM02rJMs+AJgEmSTSDhGnSZJyF7xBFHuPiIWocIhwV7lGtdvkyZLQHk/J/HYHNv8mDMq4JdXoM001amWl5w+hOpLh3WBpPiCsRglD3n9GzWSyYyRRcu6lzlrDTHKL05k+piGEoYJSq6gJc7Q/DMxCQvPpEZgdFoY/eTffna38/LDojZ73nO0LDkL4pCLxwNx/CtZ393KT/6h4ZcHn30kE9JTmQz1eM6OTGjxstOv6dTordby4++ZiJAnCHEt2SaFIrmzZvHSIc7zQjsOrNUkOny5buBz7JWNWJkhCCIGxEUAI4Q4y0YoLiLmXSe4Qcz7u5vk7NQuZEonvF0aD+w/YReDc8/RPkzNSXeg6TCWAD2G1+xEERpMXYBHmBeCHAhHpvU8atGthawXtIkJrdaTc43xWHM5I6Sb/PzCYKR2F0XYrM69J4LRJRtz+/b5VDqRJqJjvfQyPV2x8wLvcbu4MwM+d0RwebnX44RHj6dRyAPiHzpMgOEZKQREcgGp05CdKkhOTaT5bcNhIRlhdTsZFJqjgo8aMnIU14GP8gw2zCZV7ULglue1ZV3PTPh+Ja5cS3yB6e77bYbMuNKrYtfMmfm2Lg0hYWAcLJw8ZEa/Ag2y0wGqYGb/riVhKFFr7kXHOFSk0+OCyMh5LOHIjBkEoEmgDS8GHUBZF5JykBIcwJiXmxAFgLfbYSsk1SMlKY99yA2KLrsAZa3LuOFxEWLndzf/NrzSaBRdoCky90NFxWuNjEDlwJmP4KoHqxJtsZiQMZbzsTuVcgV2zHEqAmHGZQQjC4/tXEus2jJHEW2VDwtu+++u2ujPYY9JkvuU8NL5X4T44boYhhLWE6g0WkGgyyZxcDlSrnGaZFhvrRM4ARC4mdcYJ6MQIBJMXa8SjzpacWHBYrkKYbFdZrh1UQZuGqXTVaR5vJhFOSgpwKBmsM96frZth8eiBYE8h0C8+vL+FFHHZWfSSFL6LLQq6JfOzpKizHF/dfmJBJwqRH4Yksyei5iD15K2RaXIqAaMatowaJpmPCzvyx+BO0ZagDKIBKm8AG6TXA1Q1mYAN06P4PoqbhmTXPD+yZDTJDgAd6U+y5mIkWqHU+EZR3qDXEUZY7xmlp47GXwWIQuOdIjcAAx96XF3CcyBg2mK5EhFKo3oYY9GE00sYScxFMspBRNzEDgtcUPBl2pbMtRiiDyWRs5IXbLcBcjzX5uyF1FCdbSni5nQ5u8FEmapTJ//nzHK4+eTseSlNUewxAzQykHhr1qXXELghiPkUxwzEPJdbwRymIcBAwEl1pXgAgcpJwMhnbL2K2NZ+yCfCIYkkyjqKyq0dWQSz7XZVwZixXuUFy9XYAQTTUV5Fj/XhIikDq6unkcRuE3dTlqHDeGjKPKe5qG4JgssOUp92I0Xf+EHjsDZFiblkhwhJTvpL/I1xVnlnwY+VHt/GhXwGjqBY9v+vZ7eLleAdTKynCogyRHHfsDqBFkDYJXSIk9YjvmGXIB7IkH5nzKS2RkqNkJTUmtT7BxZqhoFC5QB4MXnPXZnSHIOCjBpHbI8oRR7gtBl6Vgv6twqNEkPELClbipmlL4yC9e9mdhBO/6Y1c3Freq/DwllmfIaMZHtvgwT0hPWkVquBAkZEMZpbENTKbnGAdhd0A3F3/yBYlRKZqwDNYlNnLQMwxjFkC3t2dhV1QGVcQAQnipS7OsMHVYyn4yCeSWXv5lKl0xAD0umKhOVyVH78I2oaFmkABPBRYSPJb5pFCqS2ZNCuJozEEJXEEbpdESer+R9gzquc3ORxGxoenWNVhA6SXE+V3iq9FFbPk5zS4LSm/BNlrC/ZTdXqg3o1NDanJOJBRjT2DEznwdh0yc8ka+5c28uddMY00G7wvlBATYHOScFQITma44BYFmraggKyx0hR6gC4wewEK1otmNqq7lAjfTjyBy9KK3+8GrA6uVxC6BKBX5LsJ95fShzSdjFvrQId8l9NHgggyvmm3kUxrj08y4st8GP2b0kj81ByBQk4Y3eZYlzkGuyTWuMNbQ0BfcBQjJWjU6vFEd8+CjFH35pMvbhcOoxltckdMlmwwcCUTFvVjkLMYo4F6+i8AM1qknl9A4IdrLD4BM0FAb9HK4gitaymMlAQaBXjT8liFnk2Nb6DMpUeEfjDAjLvtuLXo9K+tlWw0wuiKnazN2StW45LtoDBk4GRwBlqhTExXJyFyTlYRc5ejYTCACMIMzpzDpitLSojk7yzKc8gzA8JSMJEC3Oda3pLeIgxnv+a9qCi+2ZU9mLvMRpHmFVCfcwTVPYDSZeEB4zXpYMv3qyHHsz5LO4klvunq1CAtX5FcvsaKBC+ArjPQm/gpgPHbnRP/OCthFwz925pJioeIyCuyDQsKVmqhqotQksGdMUepNiUwwIB5gbQaLt8e+hGnsv/FnYWo4ZQMC63wCCeGlV4nrYNigHrS8FE0ARDVplKpRwqjL/+HNjPTk1DR1jakxGp0dosdS0iptEWLIyTVsiMyeVfAmVI0LQUZKKTixSqyTXf5dYrnYJwhn8OjKcPAqwdRgdRlmdOkCoMlYsreFUlcBNIIpNUzE8RKCMKZOU52xFHspgpkNJYOa+JS3MqQ848xM13qL92tSa2IKQGDy1Ca4iAE1zWDE6RKO3SQlMnChTO+ouoKjeMuesJBPiALQRWYoNf0+w8ONJzYfUnJW7WlBw6oMnISyMBhN9PDqKA1eHcuzhgkpI8fs+O8RMcYyCDJCejakmS6iQtkVUsLjal0xbKicjCgGRxp6ZSjxZJCVp4o4KhjDDDBXBJORGgjKWBjLy374CTxQ8hMYKAkp+gClmtKSFvkVtDEsQ04keGrwT7n4nOrHlY4ICPAiiP1j3lmST8sG6mpoIaguQAUYOELK1HJXTE1+jEY0EZKhgQFqLDJ7KDOKDDbEK6SOAcub8jguI8xQu3AwGRt8Sg11CWLMOwUXMFWnPAKjkZ0BuqFT8RQbQlOzixcmcxw5IQAnbiIwdQjUFQHd3oIjTTNANUOQZtYGXUy1BsgsM4pxEMCLrAwYlF8DRxMydUZUZtTYyS84wDjTYvqwlw0lB2ZoifyQdQeFuLQMZewhsyYjQddS9fbY08QVwNiHBkB5A4BGKV3hhYnq1GXPUHWlNHI0Ixbv0FCJ9tSlriu5pqMEjvJhhFRvrA2SwDT1Zp9Ls8ZSZEVZmAK6VoHDWxJgepTdrh7vzDQzxuVNeV1bSVSCCTDY7GLAaQbo1lOV8rrmNbh5oHlgVfaADGOfGJryav9YfGRdld3Uxt480Dyw6nigpbxVZ67bSJsHmgfm/v/r7jaHzQPNA80Dk/dAO+VN3leNsnmgeWDOe6ClvDk/hW0AzQPNA5P3QEt5k/dVo2weaB6Y8x5oKW/OT2EbQPNA88DkPTAk5eWXdIMiRuGLcqkERdmA5oHmgeaBKfeAH9/lp3l+I014NyMVPCTlTbkdTWDzQPNA88As8UBLebNkIpoZzQPNAzPhgZbyZsLLTUfzQPPALPFAS3mzZCKaGc0DzQMz4YGW8mbCy01H80DzwCzxQEt5s2QimhnNA80DM+GBlvJmwstNR/NA88As8cCQlFf/sFTPxFH4HllrNg80DzQPzLwH6pd3US1fDU1ZQ1LezNvaNDYPNA80D8yMB1rKmxk/Ny3NA80Ds8IDLeXNimloRjQPNA/MjAdaypsZPzctzQPNA7PCAy3lzYppaEY0DzQPzIwHWsqbGT83Lc0DzQOzwgMt5c2KaWhGNA80D8yMB0amvN6PXDR7mKH2TYZmKGNDNg80DzQPLL8HlpqCRqa8ob/iW36DmoTmgeaB5oEV6IGRKa9nU8uAPYe0ZvNA88Bc9MBkU95cHFuzuXmgeaB5oOeBlvJ6DmnN5oHmgZXZA8uQ8trddmUOhDa25oFVwwPLkPJWDYe0UTYPNA+szB5Yesprh7uVef7b2JoHVjEPrLHU8S71dy4lIclx8vTFuBi4evy/1+qjW7t5oHmgeWCSHhjPQv6f2MomSSWLT3V1dFv6KW+SmhpZ80DzQPPA7PfA0k95MzeGdr6bOV83Tc0DK7EHnOSc8oaf54ZjV2JntKE1DzQPrMoeaClvVZ79NvbmgVXOAy3lrXJT3gbcPLAqe8Bb3tCs5yacD6g953TxISiyanYxV1+9WA5k/e/KntDWbB5oHmgemB4PJL/5ULD4W8HQfDc9qpvU5oHmgeaBFe2BNS7929/8kk6p360wKZiubTBp9oBus+CSMI4Zy6pXX33lGOz/rr76qqv8auZ/bn7zyJuymtjVVlvtiiuuuOCCC0477bQLL7zw4osvXnfddTfccMONN954rbXW0rXGGmNfqEN52WWXwZx55pmXXHLJ+uuvX+w3Gy+8oVx++eWrr746sczWVGMHhHiU6VdeeSWu0LDh1FNPPf/88y+66KJ11llnvfXW22KLLdZee+3wlsAAarp0AWgBMGDNNdcMJnUIygC6YMqkGkVGGkswpuglmW1vetObPvKRjzzsYQ9btGhR6VpC9T+4ICMBEhf5ShH0gEiIrhhcegExLyyaEaUuY2JzT2aa3a6uqHPOOUcXZ97gBjeI9r/+9a+/+MUv/vznP9/hDndgA/km90Y3upEAYABiAqMaoOtPf/oTFvAd73hHNQJyatZgagh/+MMf/vKXv+i63e1ul7nQO1iw/+pXvyKZ9ute97qa4Otd73q3uMUtcLEhAmNtxgXzz3/+86yzzvrjH/+4wQYbMI9Y9bWvfW1Do1GzyxWlxJoajKeffvr3v//961//+ve85z2Ngi7E2OmKlkEjYeK6W9/61oxE2aWJ5NQWERVoOLBLUzDv/f73vze029/+9tT94x//+O1vf8vm29zmNte5znWQ/fvf/zaQjPSXv/wlt4h/y7C7BjHyraXBcuuU8YmfcJWuZQSudemlf8fCGPJXG3dj+RZ+Nv1IZRlHFvKaXfN33nnnveUtb/nCF75g+mU0E8bvptA0PO1pT3vyk5+MpbxpYiz717zmNRghzQRRCDDe5CY3EUYvetGL7nrXu8ZZ0RJ4qWbytZlTZJajjjpqzO9LopCEv//9709/+tNf8IIXMCBLiIXwuEo+ezJhCMjBrklvEWARTzDwiVE0IUgzARcu0oRUFh4a9kjEQk1MZ5EQ+69//Yu79IYdoNQSSnNoHc+oo4uWwMFD0g6OeaGJZEg+16uLIl0wumqMYF1hV5Mc29SPfOQj9b7+9a9/xCMeAa/34x//+Bvf+EZCrD2OJYQHdNld7nSnO73kJS/ZaKONyKcII72vfOUrjzvuOJSHHnrove9975gXjTGGKIrgzdT3vvc9XZ/5zGcIAQwthD/kIQ8hWfzEWjZkjPbQxz3ucU960pOkPxh4YgFUfPSjHxUkmnRpsplwE8Ew+/SLX/ziu9zlLjDxiUhAQ8Vhhx0mbsFRQdQNb3jDI488EjFMvDTUSEhGEr7//vs/4QlP0GQq7akzHWpm7L333t/4xjee8pSn7LfffkNFHX300fvss4+E+8Mf/pBSSe3xj388Rrbd//73J1B8coUpEFqUornPfe6jt5TGz4cccsi73vUuqZAcA0FvmOqhSqcEaZ1M9/9i55iWq8f/NyV2l5DMumn+0Y9+9NjHPvYrX/mKfMdlD3jAAzjanu8gYDt61ate9bKXvcyUJLwS+ppJHDe+8Y2RgUUDXtJOPvnkRz/60WqU5o+WaAxjNcuMAhArcooQl+8yr5tssokj1aabbirLOHp84AMf0OtIolcRZMIXFyFmHVBNmPSKnqgIWczGG4IAeBmGnv0INBUEhgwZWPyhIV8hU52IT77jEBgs0YJSL8Y0Y0CvRlO9hOuNMZAKXhIUeFapYRDEzsCQUQoJ7hW8ek0K4gxNDYmYwEhWI7BU2H/LW95SAFiK8YDTnKW7ww47nHDCCeiJUohiW3wikbEHht5YTlqaCH784x//9Kc/1SRfs2dbtxkuYumlveQD2CCxys5f//rXe2MUb8xWrHmGSdDYzYszlJuKeBaBZRgbwO95z3vkerBTJ4IHPvCBZPL8Ntts84Mf/AABOzOQrnkFk88PXATDNman1oSPeXGdruIaBJLO4hP2O2YaAjJ3GkKMBWx0hMCwFvK73/0uOzkzWkJz7LHHWnoPf/jDIRWWI47/B5UuDTMkfgbz20SzuDQFs6Wfp5xZdt11VwnF/D3/+c9/6lOfag3HuaL25S9/+bnnnvu5z31OlDz3uc+t2M30O9N961vfMjdJiD/5yU8skre+9a16bYbC1DiJqgUz8bATKPZnek2e84jN8Obj13jT6Yi3aNGiz372sz/72c8cPT70oQ9FOPkYE3yGA6mZiU+TKEgSgofUqyRrJ3o0i1dECjgYLHrhASQktYUypoYAPRpDZgMMF0UyylioHloQkBPnxOd4CYlJgyy06EKgS21caiWTEvt7XHqpsK6Yh4wuMAw5SuQwgyhXpxNPPFFXzObkk0466W1ve5vAcCz62te+FnxGGpnmwmSZIDLj5NgQpWLGlFHKP2NWjlvSMy/NGMBpBx100GMe8xg+JNBeK7TOOOOMT3ziE46fe+655/ve97773e9+ujJeKcCgJItTTjklcqiQZI3i4IMPlpiY7dBkmDFP9nSPQeOMZhcHsBb99ttvbzjCybZKzlA3Rn4mFyNTYwOMLuxpRlGa6Qpjr2Ybz6hNR/zmxearX/2qu3aCgQosLOcButCYBVnPWQ/MXYz0pvTrX/8avYN29MKnq6duCpsTJfIpUmMB/1f2tYbGltEUFZ7lI1ufCTBDu+yyyzOe8QyrPXhdLgjveMc7+Fd55zvf6VlNFy/Tjz5Tq0aZFXWPe9zjOc95jsSE5je/+Q36zAEaEvAqgFHmk/mlL33p29/+tnl1L7Yhu9dgQW/6XUBI3nzzzUmw+33qU59CD6YCQciyugzHMTDnJhFDOwJkiiOA+MAlRtlMQozJKLADeACvdyhKsUc7fARGVGSmzoYch8B4ymF/RkoRIVExtLYO4ZGFPgbwXoajK95mLeMZgz5KNfWCs9iGCickxEYKVhCzBy+NWMpmPoHUBY9F7Ur77Gc/e9999zUWjx5mM0biQkxUyOQjmNjQdaY3Juf0sOiNoqFGxoyiNEZm2ADmzZvnOP+6173uta99LV3wrhp/+9vf2IOFAVIGdxHOnmAMQcQ+61nPOvDAA2GY7cYACIujH2eitxlDAii6293u9rznPQ/8zW9+k0wELNE7tCBDQAt/hoxktkFm7EGyh2GEDxUCiZgEjASG8cEPfjBY7jZMQvAqxLIKPWkOv9/5zncyEBhdniMzoVYEfGA180bp5bbx/43u13P1av/53wDhDKS8AZ1TiuB02eGDH/wgN9lAHOgAPA6vZDIc7twsMpf2bfiYwMv8zsWaek0VAAbB3e9+d7A5k1+CDxeyCedjjOWTn/wk4lvd6lYybOJJk9goReDc4WhJ7xe/+EVNAtVHHHHElltu+cxnPlO6eeELXygIHAcQ6BVbeL09Ob16r7GTWxX2ebs6sRkXAgLBNLo4L1iwAM3ChQvve9/7OlzYXUNZBzGeYVVWWgwTr45FFhsV3gQspL322uuYY46pLBmyXk3jpz/9aabaV2zaemVPNWm6MmpwOc0h2rHFyvfhKHiW6C2CyC9M3G7BwIOVLAnCMy9cR4vCS7j0ZtLR68LoVQHSenMVgMSo5qVoJJDns0p7NrhzFQYZ13XdRUi3GAu9ajSZL36jS2Gbcx9nopdGuRRAMpnMI1YzoQjDZhLU/C+wCbTphl7tE4FnfndYBCTTSLjRQQL4n/x0IR5akFGt1gtQQkYR7WDsakNw3wxZCHo11WyOAWHJARNjEhmrsAjmn//854Add9yRNAdteIXxNNr1IX1L8bmGqDJAb0/dFDZnLOUZQw2DUu96U3bWs/XxCDfttNNO8aamuRTH3JpJlUE22GADbnVRRQOPRlCaLSU0ZitdYs61FBLgpGANZ2qjBT0y8NDiaJZr8oMe9CD3rMyiecWFHiPgpje9qahlw8knn+zIE+2sFdC++jmYuCCwDT4ZCqNHbqdXwQRJpuLt0tXmDW94A5h5waP0MO8g6SOgiGS/NWDIcqUTpV5kiSeDZRUaTUiG+ZbnudqlHt4tDN6HIMcH7+IYJyhGZGN485vfLL26rSfECYwiwvGyUA0zbvtqNp7tttuOOtt+KNVKaQmvJiTepNFKfPC8l3lBAFaQKeTDZJiEoOE09EZ05zvfGRDJROnaeeedDdaU2RKwKDW5hGQfdeQHI+NM7iJhaKEaDTM4FgFR5g4jPCRGH9AIpzfLPrOmi1hkXZnRYn4B2LP7IkC2++67u0O4OhiFJoEk0CWzIID0Kq3G1RXYhellWLSjVLCj77FoikDCu7xd2DCNhZwYoEvm8nmXn32IgCeWhRxLha7ddtsN0lcOl30AegR55rM9axoLV0CmSz1NZcZS3jTZP3Yo8xwQf+WLFU0mjKNFDA9mUiHdWE2Ph4+KME3ez2SjBGi6dzhbveIVr4CRO2AAasQYqZt4JO6SCJDZpcOiCYgZgKxbd96ELHryo4LBZ599truMr4Sf//znvbiLBqoN8P3vf78gc2pjm7chqzEvvj6BZfiR//a3v11qo8XnM4dNnxodvjbbbDO6fHoTcMjA1AkvZBk7jNuT5STKRafDo13EN1BnE9plW5/nJhi1uxtHGS85tPs6mdQZFXThNUFxiwVsLJIjS2jxAmsgrpaxKsTRhQDAgPAikKQihOU8HOKQ0YUyM54a5aWXXkryAQccoMtNMFyhJ8oZyidUxnPse9/7XngCaUEMYBt3EeKZDKNeZkww+3rJNLlcWqMIF5nkQHqxgpGCowILJPqopkVTYRg32roYxuwQowFEIGk2yLATDn73u9+N3cMxGr3I1EOLITASMfYiACsxI0g+1JxgvJRKnQnmItt6661d1d1kTQeBjLGpq+H9lkVokemxL1FnmCKZOqd+NRZK08UJZduUA2usdcOxc3WvjHt+iNYuPmaVcdXVwxRZCKoeOSc9U5bWNHn2DbXl6scoIc+UqxNtafqolPDia5shmDEc7TrgRoxGsUeZRdPppO0+KNwhYUQzYtIoogI8yi6nNix65d+QqYMJCwnk+JQMCbA/56cwWbSixx6+7bbb6kr4wnj39U1G0+9svAbqyqHVjdLtw+J0c6eFnRIcOcy2ziPBC4tcL60Ypq+TkUO1IijRqKnQxY1uf97X582bx1RfD72dyxrHH3+8m/JWW23FAAVL2BOjKIW+NKfYtP3ux33Qg44ixF2TjYX3MLIw3pPvXIQlFFmVOh7wHOHV393HAOuXHCTHgdQBSAiGEAZDpk4vJBrOJ9nMGgiYhXoNxEOBPQC7ploxirD4mPuxj32Mteeee25+YhYCtqHhN0d1LsqxF5DewZp29sS2sjaKaux2BTcAvxhlYYaDAIup4RPWyhfm2pGZnU5MvCcjR0hUx36KZMOogzHXWAg0zC7ZoJEwMcbQwHgBMLEnwmEIEUtGwbYSgibCw6IrBmtKVUEahT1YQGpixCIYyPfzCRg/WrDbuXO44ujNr1L0/u///i/KCCE2okrvADDBKc2qNL9Xr3Wj6zE+1pJPQoaWegL+AV2zFWHu5Ts3UEMyVDNhnJBgmCA158+fP97yS8VLs0nysjEhzu+WRZ4u6xMZjAuIYzkCGOyQiYCa+6H+IAGBkq8W8ThKxoTeTEBKB6YWUmzBs5kx8HQ99KEPhQkjGkq91Pgpn2c++S5d6N2OFy5cCHAhhWSe1zE1OZI1yaXau6HvkvKj5z9IXRmO1RUPUOp7CyFyZfId+6nWmzOOnZkZ4VXTgji8yNIk1o8ZXW+dQ/fYYw+mulzLZS74kPIaslJNvv3JLdg5dJ999rEBOGY6qjjVWrd+nUs+z0QyeLDoiknVxRKFHOvfSdkUU0eRafV85mwF5nxILHE4GjuTR08Yx2o1zyDzGuBSD3ZcpQiZHEp46RoEkKXEKsQUKdwF1qX2Axq9YNrVFAWPjEZavGy4ZKBE5gnPd1vpgy5C1AjU6QVnSUsi+Z2Nt0I7XwiIBQwtJJcT6A0lTAA1q+AlX0gwdWqi0qwRZQgMU4JE4zkvsOMbLjcqkwhwz0Bmn0bj5QRG8XCs1sW3hOvCq0apnr7ynyw+fTqmVbK4dNLhJrs0/9r9LEVIU9vVq5lfjYgVv4xDphcZX8PIbqYQDOO7nsum45KAU1whuz9VxZWJ6Qrvws6PjJFEvMoJccLpwpKQMsd6acmbNMasJTaLLcSOongjkEnBM0yvY4tnMnujrAqWsPwCw7gyFpKlPJKlWl9OuhLQODJIMYREJoGxBBkWBE4fjDzqqKNsHshgECDjVYqYJHydRtEHj8ZAsFTRZK1eC0/O9XbjeMh7DD700EN9ySGKE0gmhORYyF1+XOZ85wb04Q9/2Cca75ju0dYMpWwrytBXTVFcygBIsMIVkrsxCglmc/Lvfvc7X/MzlW76zlnszABTY3ejd/hlqme7OFMSIc1OE3owYmJL+yDAHjTwZQ84utSBPUHEXc7FmQiSMxd+T8pgwSAGHLelbMclDnRKYra9BCPbqIg0rsbLTp+D4Z/4xCd6IqAlBIj1ao4q6VXH2sxpatIAlhLn66VOnSCpuYCMAZEfdUZkn7NYxJJMLf3ZR7G4txqX3qwje5IwFufmWq8DYBlZ8muY1TWFwH/lhSmUO2OiLCFXITWfChRP1JmeTAPY9CiansnEE7dKecwzr6nlAqsUHoYcEiz7Rz3qUXZ4xw2vPDaiLNTMROBRA5RxdAlfnyZtaxWmyX2CTBEuMgh1VjXjM9MsBAga0ZashywWst+69Z03wzHSiEXGJAIzWCuKba7kZSEJGWZUoNRFCLF4cWXIEmjIdLnlURexyDDi0usYohe7JjxeJQR6awh4ERiCgThWi2ybuWaCXi+WcJEW4SwxIvlUfrEMSEMWgdRFS7i6dfCpaYzBMh2leOEhHR7h/QbY1xvLzGHTPZrrMgS1gsA5VEi4ujrZuZ47Z0m+zHDLjm30EhiPYema0YVZSxrG0Kc2FiNVK7K/kc6bN09tatS60IsBZqNHQ5EI3HLLLR3JXbqFtCu/rQgllhCwQVNa8TcSlHop8wUcO2Q8NoGRlJZ5gBQeY4aa/VTE+boSP0wiVjM0qckBQIYlxHGmT1IeCtzKPUYLe1//URKFxrhMsYPeBhtswH52yoPwVTJx6sJMOTDnUx5vcp/J5m7x4XprzrgpYWGqdMHo9QkMsQ2znAhvAbgHIUNgphM0NmHFI5Qt1JYFqYvAyIn8EtID/LluKJ3ydBErOKwWigDF64fyyPSKdTV8AsvCQxzGEIsVadcpiRl2zoULF/qzJ/cOy9tHQJdHZEQpLsuEeCMjMBgaE2pRAUlyVoWkzCTjwuK5KngL3qixoIfJDoGLCk6GUWIqrkgD1ArBBbZheMB24bLC0fC5zyBu5bEkQtS6FINy+vZ3Vx7siUJjjH4uXpYXfQ+oUQdPDu0ZEbiWKIE2IQdJv4xjlWYks1MixouSGY6ZrtVOiP7kxgHTBRMBGEFmLaNG2TOjmujZr6CETA0IRtNPZOyC1Hm6YgZrU2MkVlMXyzVxcZoI5Dd/RZcf9yLWqytD8wfFztEY/QRHKodPV0aHPXKC79bwjKneTBmCYGI2ZG5Onh2KMkIMB4Z8aw0xI8MCzxiwZ3HsGJ1VWc7se93rXmFR2108MnjOsww1bYQeFso8QmKPrkJOOTDnUx7viCG7tJDyg3XnZH6Mm7gPkBDx5U4ukE38NgIyZy5Bb56SYjJziPldLyQ5Jkyz6/Q01Ri7+IJx+WLgpuz920rzgTLy6QLEJEc8L0c0LliwQPISQNg16aVRE1x6AS6wwt1+ePjhh+tSEtOkoY9MtYMSb1DkITJ/76GXZBhCLAawGA2LkYbRQEjz03kPl66ZnIksJiXyfO2xACC7JsWrkNhJVsM4CbpquSE6NuriCscrR5X86kqSNdjIIYoKr35HHnmkVzbsdEm4Lmhe1vQaI/PU6EcVBCjxIlCngDOJmhm+FCw84nxjcfxEg1d+BCRHmCkHQAvVud4Ha7Y54qE0I+Swjf/JAWMZVdCUPSTEe4XxiyJINCadBEMDo4EkNtNRXo1GZocmgYErZDKyXyxhdIz1B6pRlIFkcoMZaieyCKleFgaOBMaQfNvb3hbgaOzMa/bRKBHLdYD8usguG17EYXdEZbZjhE9eKOeNl/Bq+vM4bhf/ni8IWbhwYYypiS6gzJtyYKKQmnJl0yGQH7nJ0uI7Sc1Rf3x2xirONXmUCmVftRBYco7ZMAk4c2kdZrbQxzxNjObPD6Cw244wQurVNE9FGfpejWaXXXZRk+C0kp+/ClxLTk2vvODNCEAOSmRkimk1UaUrTXKodjfE63Cnt8xwhnLEQ6ALkkAnXDCBjgaasZl/CPflUfLNT6MRZxQosacp0aD3iSO/8EKgidfLpth1pxb6EYiFcFx6DUFtmbHQ3cqrjd8JegkV569+9asdkL2RedDMGDmfedgR+DGNJOvzhVFYIT53eG6TFNxtaSEfZdRRNLREe81FDJaVEFOBl4T0cpqLKhtsCbIYRjSxJMajd9Z2AIE0UtcxLL7waoqEBAOTkkCHGhMkpWjU9Gb6eD6+8kMfP0WkyNdzn6dIxkJLDLAnaXbHSwKkRwY0TklJOmASZG3nO1Pv3O1H1L5iQWKnOmJpLLfEsG6NDAG9Cnz8FtVGCokXjTeZmMdyvRkFer1ghplxgN09cnSFBgFP2u1cxu2v+QFKDCBHMPgsbi4yI/m8HvuLJjakOR31nD/lxdE2PQ8xHrM8A3O3a5Qg5i/elLksv6w6Hwdd4iBNp15RhV0OciziaNMPY21b597OMqn2ZMQm0oQpuEI5ajIIEaMuSs6V4lJ0vvSlL83RiRwPumLImZ8Qxx+BRSZYtCVe2ckk6hQYwQdwWfD84T3bZ34XGQvbO4g0IY0yGC8acuQUDyguaI6QvmDkeGUUxuJcgIxVKGsI6FlLC8N8mXUs9aNc6TgGw7vi+edksrqoCy8WQGwjil4/TOFhlrBWuPtBuBoNyvgKgDKKHBwcqTJMc7Trrru6PzIgNPEqLpiwdPHpTQ3PUfEVGwC4fNgRA9xCPgkOm3ZBfuMETbsdGpQ5NMFgJC21tzNOdjxHYJ/LZ1y9RMXyDL9rQxfOeIWWhO4bOvNo8bjh7OyQDpOE4qkk0vAyhsfU9kVfWiKBMRxuvnzzcRGGTNaAJxyx1wxjxO5ruMOU79FgZMSaUL/I8Re7GVHXvIIZZpsX8DyDjEA1doVD8HoHAHt04wFnBcdwksWSHRfAMAc0f+eLy1Iyd9xFeAaFkXwGO7/De6XxexTIqFCjFBs+ZNELti7QK2BkkGBAZEJORxmZ8mJoqdQseAJgkmQTSLgGXTwlnux4PjjIVvlBhv1c7hM9nJgc50zhcYSFMJkhnlWwy2uQglsIqoWOsLByzLQIY1JmCzE4sxLMUGt10SUx2did4aUAjO6MZIpROzZ7/GrUr51LLHuINYqoiMbAzCNBnLHNvc+gRBJiAo1RCDI4ctR+w2yZCThHs/y8FlIhUC7zzgigPcicidLryOBm51dgXjydPdHQTgubRXb+xqMGi4UxafKntS3fsc0fM/heUWSAGg7YilJTakR+wOVgvnDhQhjNLlmXKywwCkUomQRGz2OxHF7JiJhNpl4FBr2uce7/sfco8GiSfRBULxoHFq8BEhY8h8OgjDo1xi5xZPZq9DDSgQcWQliISzFBap/IzIhvZeAwogEkFH2CiB9iHn9qOiW5X9u/Q8+MQw45xLmYJYTA5xRJDi4zovZk6X0gosLVq6lDyUKl24WFt029DY98Mj1QUGFzdSKzfyNGQG/Cz83XC0D9JiEzhYucfIQlRPbMsR1vurCbIMGp1wfx7j/Gh6C83TVsWWGSJ2YZmfJYMDHnLOnN7Jps3veQ5NXciVpmsbSUjN+WJYi9IyDjVixGp8sEmH5Hg1wcNAWEOPMe4QLiCOZcEAnJhhlyhIzybPxmtxR87m45YWGnRfqQsMSKtedMQUIswSJiNN1ZYkOaTM16cMrzwC8WHQ8JQeldb//99/cD/fPOOy/ERKHHLpSpsAHAYIeUhuQ79ymWIwiZRcUYtcyecbn5inJ3WxdSWwWkXgdDBzHROWq6Gc+xvgw4VxomMnppGUUv7ZomHkYQr5KQYQ5liTSWmJc4RI1R2uKHSIhSdVwRgdKBAVLk9mThmUpa0ESIXRRfR20AAEAASURBVI23UUapLoqM1O/AcSUBodRLi7oUhX6wJiraOdkcua1jgTRexyWHHd/9s9tFaeYi08FUw4GHpE7cmnHvdGaZJfBsU8iPY4PJ5KJnJwx1CGJYbB40EmZUVzKmTRQBLaQJDDcGjyQmN9/iICn1MiuwvSDJaDAsJ5Z5uMJr7I6ETtY2Nni9MVttHp2gscibeuPhoXZOH3Is2galM13p4YMp/GATJsgwphlMwQXkfb2n4po1427eN20kCGV7tcO/xCfgvLA67Vc0hDiKjN00KEINHnvM0yuGlDQRuHpkR42WLJuh1ppvM4oMDUZiHTxdW6Q8a4k9djaKIjyK0IxrG1t+MS/rATLqmAHW6w7uIsN1UmpXexGEPUuIXk3DN3YEYCaRHFFsiwTE8DEgXWgcHiEpSkDDaHY1dmFupKJsjg1dgh5cxgQ/sXA0GZ1EIOt1RZWiSECmZFwAlBkOIARFD9PN9ZHZFYLdeLv0YGTltLD06vgBL71F31UdgcHgLSAw4WUwTOQAIhag1LjK55mXSE5djGGZfJ2wiRaWlEPAfkznvkK+LcSpH4aWKAqsxhgDAF2bI1BXTO2OOhIQTEmJNIosE3DUZcpi3uKacYP6MCg9fDCFH2zCBBnGNIMpuICpSnndiRHHsokxdxOccWaoUc0FgGDwgrkmzRovJBgyU6jeaqutZIFyXwiKvgv4FZXf9IUXPiw1zRjBMS/CYUp7Ze0ILAIAGpSZRb0JqfB2w4twGqM9LDBJ5bjIqbBDpglZMruWxICqy/7CFFC5I2ZUswh6QERlaFgGnT+UvofUjE8A8R7jA0dy6AsZ+gxZ6rT3lAHZD1gFqDUf9nJsiNXwmdAQdOt4L6MDm8rsFmg04dkZV8cqdUQBlIwixPA91RFb+yiy2gBqvGjIiT+7ArtGTgCXQ2hXohE9vFIRG4xmEZSu3vacJl7SSm/GFZZeV9FcY6DETpzy/mPNNda0YhkTK2oeFGT8az7AwjeGhSABobf8AhAfiBGAEaMpFhKUdMGDQ6MGRxp4aIkQuhQTr0kRFumAwIQLZISTAI5quSm8qbELEWQ0gglBHEpCwLrIByPTJB8N4rDrVSITF1hvSU6zMFEU4aktqjKmyApTQN2LmQGpyRLSiqAHEBVj4MsVZXOPWDOqM8CQRTiHGAJRkEq8AYDHpalGoMQeeCGhlu90hazGFeOrGRbIRBEtCpZwYR9VSoJQLCewiqjwQsakNGM2OEh18LGnhkMsRlOplyW058CLHUYNgwYXCeDUo4wcio+csjMDEV3wMSZa0ozeca+M5dkIRMZgqhPz2WgjFqUuZBGLRazqyliG2jN9yGW42DKCrUqsCdBtjvUt6S3iYMZ7/quaqlNeuYZ07uZZJZOki08h1cGAhQ44xCHgekB4Mw1gADnp0ut1BqOmNYA9vfCDRSxmsnWRoxYByTuUliWE69UkSinjIZUyD3sMjiL0AL1sKLGDI0pgxf5ixxvPxAYwOShDEOLU8LSA9apjUgwYrDnE8u6SkR8DBomDiZayH7I73h5Xt6srucveZUHDn2zuIgPTC4i3wV0vhSC66gCVZhkQswfFdnnLG7giv/xf7IVhKjvZEy5y0CgmF0bM1CgycENGnElBDA5LgJyv6VWCiWGTr8mnmlIS4kZywEwiBD6lJzCjgOzZE5vhxwwaN8nA0SiaRPXkLH8zYlk78SlvZUh5hmqcQqFCJ+4rz+rlaMgCwKZEnbgEIFabiS4XjIK3u8DMHK5Rc9ZlB+NFiSX0GCE1kwTLnkRYtNOIJnoTN+mF6SoNb0kAhKtGRIsIxhUhRdnVRWDhw95VEbMJjASiBguuElJrMshB4mB6vb3mUC408Gr+rHEVMvgiCABZYwlBMIWv0cEoJGeYahKMmmcUPuwlQb2DhYRSl168MEFG8iANSmRUA2pcYY952HElbCKqKyS8SXallLSSGeRk6ojt2oyLDaQpYATq2GCiE2a6ossAy05ITZSAsjaj09TFpVFUAgHLX6KL5IlT3thgJi4Z5MQ0K7DXOGnPrOT1JN6HZLkkWL0oQ8b7kOYsTT7SrIIrE6M3RVcObvCIsxMWfQ+Iu5AhzrJBAEiBREAaAoV8vQC96ohCUHpDoIZUEJCgNsZ0panWjApy9KJJvguBZuiNHVlXFHwcgjF4AR2ushlAwtCCBWOEG1eAyBlKHy3kA6IXcRk5yFJdyAjXNK4g1UFmRJrRTkjw6pQwginVq46cjCs08YwuyBoFXZzp5B5GlIMWBlNdJMf/EauJgEwATJowXTJNLDWumr5YomZbMYZXzaTYmbeFEGSkwaOZfIn9xRhpTIpAujIctunKRMdOTQAjY3/k0IsxXCUKmV5kJa2IJ2/n8lNO5SmPNYaXERac5jj6v6opv9guvy+ahOaB5oG56wH5RQ5V+0W9WhY2liRxeCVDW/opb+66oFnePNA80DzQ80BLeT2HtGbzQPPAyuyBlvJW5tltY2seaB7oeaClvJ5DWrN5oHlgZfZAS3kr8+y2sTUPNA/0PNBSXs8hrdk80DywMnugpbyVeXbb2JoHmgd6HhiS8vykpUeU5ih8ES+VoCgb0DzQPNA8MN0e6GakgoekvOm2o8lvHmgeaB5YUR5oKW9Feb7pbR5oHlgBHmgpbwU4valsHmgeWFEeaClvRXm+6W0eaB5YAR5oKW8FOL2pbB5oHlhRHmgpb0V5vultHmgeWAEeaClvBTi9qWweaB5YUR4YkvLqH5bq2TQK3yNrzeaB5oHmgdnggaEpa0jKmw22NhuaB5oHmgemwwMt5U2HV5vM5oHmgVnqgZbyZunENLOaB5oHpsMDLeVNh1ebzOaB5oFZ6oGW8mbpxDSzmgeaB6bDAy3lTYdXm8zmgeaBWeqBlvJm6cQ0s5oHmgemwwMjU17981LRqtnDDLVmMjRDGRuyeaB5oHlg+T2w1BQ0MuUN/RXf8hvUJDQPNA80D6xAD4xMeT2bWgbsOaQ1mweaB+aiByab8ubi2JrNzQPNA80DPQ+0lNdzSGs2DzQPrMweWIaU1+62K3MgtLE1D6waHliGlLdqOKSNsnmgeWBl9sDSU1473K3M89/G1jywinlg6Slvqb9zKY9Jji0/ljca0DzQPDDzHhiVggq/9JQ380Y3jc0DzQPNA9PkgZbypsmxTWzzQPPAbPRAS3mzcVaaTc0DzQPT5IGW8qbJsU1s80DzwGz0QEt5s3FWmk3NA80D0+SBlvKmybFNbPNA88Bs9EBLebNxVppNzQPNA9PkgTUG5Y76Id4ofElYKkFRTgdw1VVXrbbaaldcccUFF1xw2mmnXXjhhRdffPG666674YYbbrzxxmuttZauNdYYGy87/UjnyiuvVGPRxLv66qvripAQpA49fIiLQC/eDCSU6YK5/PLL11xzzTRpieQnPOEJ55xzzn777bftttuWzHR1hZSRQVZNhRJrWfLvf//72te+Ngy4aEYBIYslsa2sApBZQjQzzBIV+rIqjD/60Y/OPvvs3/3ud5q3u93t5s2bt8kmm0RIRq3WVH7729/++te/JuTmN7/59a53vcsuu4w68I1vfGO8piOSJzmQsgpA+z/+8Q9+uMtd7qJJV4R06xhz0UUXCQYEG2ywgZoB6GkPAJOmucjoNMt+cMrvf//7M88882c/+xm33+EOd9hoo43WWWcdXVEBCG+0QyqnnHLKr371qz/84Q/Xv/71xeHd7na3+fPnRxoyJQYAfvnLX/IDmhvc4AaxJ2StXk4P8G1JAMe3Q1JeEc0JoEYigM4777y3vOUtX/jCF7K6rnvd61oSguk2t7nN0572tCc/+ckZUUaedCNSSbD21MI0yMhEZq3qAmQ9lENgFLwwxZIItqqvc53rwJMGowAQX3LJJX/961///ve/l3CMurqUBMYS9PAoFcCYsvGi6b8wFl7khx1SMwIBhMArZT/G2CkXB46osIDZiT40ABg1sRGVmmR7yate9apzzz2XV8ctGquYfcc73vFFL3rRwoULyUmWTH3ggQeaDmsejS7yAYrlfb/73e8FL3jBrW51K2IJoW6Zyv777/+tb33L/B555JGbb7551GVQsY0uGul65jOfecYZZ+j68pe/LOuFpkZKKYwmriDDjjf2mLi99trrG9/4RsbLWvS6bF1GZyIy4+HVC/jIRz7yjne8AyPtEY5X14IFC4iqzAsTLQ9+8IPNy6JFi7bffvtlckIjvgYeWDyv14BzlrAIJlElTB09HvvYx37lK1+R7wTQAx7wgIc85CE2ZDunLdpCfdnLXmaFxGwswjFwJQjBCq9UuJNTw9QrRhUYNVEwSlZILdrKd8Qig4806gAhoyJy0htKYjWJVSNIE4uSJkwAawwMr7bUA7AkyADkK+wnDaBL+de//qXOwMf7x1bvmIJxUQYyTjU2OkDMKGNQfuxjH3vSk57kSMJIZxwJjoflLBodZ57+9Kd/6EMfwkgpYrX8zjwHOkLUJiLOUf/xj3/85Cc/+ZSnPMUuRTuCqJ58zci//e1vN7zhDaW8qMtEwPMnkwC0y86nn356RoGefPia+gDY4XEhwxJ2GL2OqFLbiSeeqHnTm970QQ960P3vf/+b3OQmml/84hcf/ehHy2uGg4sQBtArzF75ylfCU3TnO9/5UY961BZbbCHpa55wwgk77rjj9773PTAJYaE0hd4yTG8r0+SBOX/K4xcR85e//GXXXXf95z//KZie//znP/WpT3XEE1K6fvzjH7/85S8X+p/73Ofcwp773OdmjSXQEWCpVSfm4C1X4SsEIyG1sIZPdsBle6c6yMwNXqLQZNvHhThBnDSkGSA2h0uNi64AEQuDMnpDFpheTWsMAYBA6ooAEkEsjOrCZDXGJ3RFfhh7dVdRuvDSYqG+4hWvyPJ+//vfL9/pzVJ3g3v2s5/t6eCAAw6wxzhzZThyHMCk2Ipe//rXs403pN3vf//7xx13nKOQ7ClLuuz3bJhMk6MMx932S1/6Egk3u9nN6IrPa6Y44aijjoLP/rT22mvXfPEAYk7ORNOYWTNSNHG++qMf/eif/vQncl73utc95jGPQYYRwSGHHPKud73rF7/4xSc+8QkXiMyCAUIKM03HXqc2l9mMhZ1EvelNb5IK99hjD+mSwcRiIRA9M/gWZjJjbzTL44E57+LE7nve8x5nCitql112ecYznpGkIKYVD3luGWJLeec733n++eeHJctSkCnIxJzFKb7FnxWS9YOFczVFKjIwXvW44LGjQXitATBiy4YZtIdGbdmgwaUXWTJgxNJIji4EVHhvolSTkCw5BFFX0jBGgpes2JODG7wSXWSGJk28BqVGEDPIx9sVDkaQIYeSkADqLEgnl0jgavmOkHRJPa6o8T+xTtMxLBJoTBLHG4HyoAO47OmECPmd73wHTQxAMPlCftzObAfGSIiFDI4HvCQcccQRZAZvftMVYv7RhV3NjcnmZKIxhBj86U9/WpejmXwXO3WhlOa23nprEj71qU+hjDpHQgFGuDEefPDB8h0WwvVywm677eaMzGwR8uY3v5kcvZoASgFcGqVYWpk+D8z5lCdixNAHP/hBQXOf+9zHgQ4gdOCVxKLD3aGHHpp4ciiAD/zCF77QkUSXG4dD4j3vec8tt9zSeVDQ8zg5733ve7fbbrt73OMe/zteBPpJJ52kqyRk2bgxeVpCsummmxKyYMGCl770pd6tkxdCj5LSlFhosWkef/zxVHgOd2N66EMf6jSUhyddzECpjI1kyf4PD/Oa17zGA9DHP/5xJx0rR6HFYBUEdMEgg9S0bmWlvC7BJCNHexY/OMR6CwBXYZLvFexxRna5g48Q7ArbGP9///d/rm9nnXWWLFaMIYiXIFGSz0gY1z1L3Q4En7xTXJMByCFEjffwww83XmKjImc6sLlmsy56JR3E7HE0M4QHPvCBzq0wCkpuxO66rUsUOYdi8R4itDC6n0ZyHIXS8AWPh+M999xTFyfTYirNOMb3ve99HuzgFRrZqYD32WcfsWHUEiXJQcIzksDYP8bTynR6YM6nPM7xpq4WdjvttJPIA2gK5TqsaUptolBUeezTFHZqYXfppZfKYlbyqaeems02icbe7nPHG9/4xp///OcoRaczwsknn+xW8tnPfhYmhRZ3am9Sss+f//znBLFTldvNNtts404t4tlDb0KfeRizzKhzwXnWs55FBaWWim+Chx12mFH84Ac/iIUEhniJwrGsATY0C9LJy6fSt7/97U6ItbRCH6XhIsR5x8nivve970te8pKMqOsoZFlvcV3pCpDFHLG+OxcNvBSgWOfgxz3ucZwmd/An4hhgXAC9RLFQrZlBmTUpUn7pDbCnfVQzKmxULOdw00csGF6SynDcajVtVJzJNqpZ68rJEpPlawaMEhUca2bNpksor0L6xnLLW94SsdkUKrETfexff/31nXYf8YhHGB1exWHT8G9/+9tjTywhppExAFOmCBWUWAwfDbxeRZesF0eNGnLDT4kH5nzKE5EuFKJQAPm9ghjiFzEESPICJFgd1sSfBY9Fl1rwoXQqEam+vn3ta1/76le/eutb3xrLscceKygR2MaPOeaY7373u05JohnXG97wBioiU9M3OEcbcuRHq8iC97Tkqdvi2XvvvWlEyTzRTGlimlgS5DUJCIGjpTd46jwM3fWud6XdKk0Wi6LoSh0MG57znOd4D5JuGEaCdzTv9HoVWgghOU33qbwrwTtfyE0Wnk+QPBbzkLFQHZ8A6EKsgFlrgBYk+6UAGAUlFQCUusC3uMUt2GPpOiZr4k1qQBNLogveYcqrli+5eI2iyMbkLmPxPCcLM+wDH/hANMYqMr0wMhvgJdEXrTpGGY7NzHyZ67g0g8VoO2S/aywaBGxxKBMbIoTT7GpO7sFHS06OZbI4xG4GjTQBFrLUkOhve9vbUscqv1iqgcPTiFdd0howTR4Y4uLM0KC+UfhBypnEiCTnHbWI92OUBE2FmvBS0rS9i1cEdmwWYpEv9IpOuUZM27cVBERBuqm99rWvtSaJ9WVwq6228qMKjM4UgptM0qQtP5UQux6nSJg/f74vmI9//OPzWOM7piszltggTRALDuZtb3sbRXe/+93lLBdbD0C5ZUscDhpuoyykgvDoyijwAqRUJ9Ovf/3r8qwLNTJHjB122EEuo9EQaCEcsWLRss0RRmL1/RG7dOADq9c0H2FzRoPEQmPMixvVJMNkqTskRmYoSQbEqtSeTQEOULqCwQ42Fqc5N1n3XyN1y5ahHIV8BMh5KmQoJ1/YRoUi5bHKAdykYI8oGJ8L9HpxM6eyCYyCgM2+ogLMows7ABmkbyl+dscD6eV2XTYtV2AONJX77rsv+OEPf7hvstSRRld4UXrcyKktt2C95hpeiTNRgu2aaoxcCi8kkvgiSleMBHQL87rNBk/SA/F5j3hIyutRzP6muHFtudOd7pT4E3kJpizIINHIR2CxJaGoFTs/ynvf+95WhWEmuYg5jJ7VHLU8WoMVjAhEPHpNywMZer+MoU6ak2siHJmuzTbb7DOf+YylDtDUZS3pQkwvgBDpEiD1IGAJCyH9AMKiAliNFmoWnmYWBkAhTcFrUT3ykY/0Qi9lMxW9Ryg3Zc98vodqIo72aPTOKBe7TbueS+JOW54+vV5B+v02mRE+pmPJkKPXpV6vnxAbvhLtagUl4bQAuFF2yE+UdUFiT5czr8u1XwUnL6h/+tOfemuTSjDGOeRMvhDLY5wpz0qjznFyHHYaISlyiGODA13ciB4NAurkHUd+NjAABj0up061fdExLYOyGcC89a1vffWrX+2VFpJAU2/z8IlMEg87GkJ84AIQJcwYxkvRpU6hDkCIl2WUglAzaRHXYqIl+ZG1kOrgY0/RNGB5PLD47rM8IlYsr/ByPhJh7lNi1B1BGEH2VpGmlzVdIs8TkphLPAksf56hNwFtLMJa0zohyh8PuC168HZysWIVvVh0JQqdCwDWT6I2YhnDACuHLphEv1peJlmB92yvyR6Pd3n8Yo+mWv4i00GMlviWUhglgBq+xgjvqKi4YuP1NcZ5xz2dzU6C43xjFQPIZ6cl57buA6Lndp99fvjDH2LxqTEX0nggenHRhdEPUDD+5je/YZ5mXAdggwHqysBd1nS5/GrGPOxgWcBJlkslRNmTeVzq7d+u4IzMZodW0qJ0kjVFUlgsMRa/THLxdAy3eZAgrTN+3rx5poYBMNye82wUue3aVJD5ChGWo48+Go39JgQGFbymXwg7HUuj3/zmN21yHj1cLAwNr5DwboDGqA2NSYZmy6ExITTm+vGS2YQ877zzmOSHihlpUiFdBMaT8ARiggGHPcStXn4PzPmUJ0y9IiWPCCbXiiy2RAxY9CSAfHMUcChvdKMbcRxkUhIM4iwe+KwQjO4vlgRAOCKWoQA2ZxlWcIdMytNlaaVJIGkCV41RiskMwWTBC2K69MoO1gAa70R5NCwDABipcHBgKvkRAtClJo0cQtIMQKyDmx9GOPXII5Y3svACYh4aGLx6EctEDjWGoGkbYLzeokSmUI3L1d73zZ/85CcwEQLPeKoBYcHr3KrXdEDqopeFiiNSXBRLKH3Ywx62cOFCecft0oH0ec97HpZlKuSXt4niKKPwGuurEY1SOfN22WUXZAB6ldpCGMkAH9k9mMpQnKaW8dHIbujLD4EZhtevr70PsNkN1+8KvcPyhh/lePujEWxjMGu+QZGvGXXxWFyEzFYHhiRNkyIWhh1SV5A0asYhwS+TcxrxBB6Y8ylPmPoUKzTFipTneiuMDFigQCbiYfTanxHb9nUlsNQJODGaoMSYeHX1816D0YOXRyhiJQXryimAEKeVUMLLpC47aSbHRVTMiKJEOcmaiqZLIjMUv2jzBg9An6xKPmkMy98tRLJaiUzsOUFoBrDSfFXM+Q5SUnbRthRpxBV7AFFNi9OKnxM739FLnUuxv8qK8Rk+JAOwaMosNhLZRAq2Yj3AkwOZQxCYRq528IFkj+c57PARSI4mRUSFkj1gt1EPBb6iyPgRQt3kC40xkkxnK6nK91mPlVKeXYQxRDma0UU4GxjANsTweD0gLFiwwBS7nBqdFIbMXTXnTXAsiRMoihxIcsCeCF2Z/YZJ00cS381I9m5gs6k/9gixnwQ4CdpgzKZRy60xoK7PJChUKHGROrzqVqbcA3M+5Yk/7/eSkdciv//0M1e5KW5K4CZq3Z4kJqvUa7deQabGK/rTRCzmrFJdnqL96AHGdcnni0SkQMwWbeWgtLwRJxfIHYQgUGpV+0cN7PNKZNKVJQfAbsHHAL2WSoyEKTMA9Dq5sBlAMq5oQUwsWHH19qu0D3/4w5AIHMf8IYSHSAssEtAwlQQErmbukk5AzlbwHOXPVHz0WG+99fDKm3IHRSEekz7+zkWX9z7fSSR6tbctY0y+471YblDwBqgpkWkqZBIVJBb2qENPC14GIIt5UTf5muSoiMESkE8i3i48EeZRz299GJwsXDaQH5cCEPj+8/nPf/7FL36xV1e2yZuMVBipdoG1kTi7ecujix+MCMByxM6J9hjaJTXSqPCuKmy8irpi+4TFQngp1Y8obTN+cekXLRzIJLNjY4ioOEStGRZcGRRAoZQx4iTNVi+nBxZfmpZTygpkFw3iz9IVNJKaT2zCJSUxyjaXMr/hQGBJW72xFg1GdUINDNAloJ0RxChiVzBRKEZ1IfD4RV3STULQmdH3X/cjH0wRKARS5A7oyOBC50mOTEKIJRB7ChpHA7BrHRhX8CR8+9vflrvzZwMyC+26SIh5iAmE9GXWopXdfHVFxhJr3mlFTrei0MQYvEx1e3VP98HUr1t8K3TNtIwdSeR0j1AZIPMYWauOhOQsgMzuqMsnsoBjKQyxUYEFIO161KfxXve6l5s1RkgG62VwaPQCpAZdCJjhERMg43eV6p1MMQvxDLHofTnxgkb4QQcdJJExNU9smSZDyxSgrGTtAzRHyf5+uGMzI40zETAYTCyZxmtm/Y1tzK4pMJAYb+IkL032OPpJ4ih9FMq3YKOzo/hCTaZv+n5LZItC6ZtVoigCM/WEkJaxdx2CpuW7uGVK6jmf8hLxvqA54AgOP60ScG648Y6Ys437iCmIYfz8PS9NQkoRatjRCDUlokSnjODYKARt49IosZ7wrGp/aImlQhPsg6wPvngppcgVhiKpxJcE8n3Jta5KLMasJRGM16M7Gjc7xG7HyBxAHBCcK/1832EBDZsRR4ImS+iCxLL77rt7OyPB65JTnqMNXZohyHg18cqqFp5zrqaM70rLS56lJAKiakUxz9jR4CVE0aUAqJYiOQogHb/73e92tIHHLuMTmH9TBK+tJTL1opdfID1c2kXUvqjIdK5+DJaanaaRJdHgWqYiqTnExQaMgCc+8Yl0udUyUnLPz0F08YA0ZHTu+zU0lPBsAPhFt14O4WoeYHZSjO9acr3cZGPwlck1IhaaGl97fH5B6eCGAJcuCZQop0LGeJ20BwDI5xwAG4QH20SXHTqiUmNHIPmKW0+KQk7hLrdggOsCri59g5fHAyMvtpmtEq1Z8ATAJMkmkHANugSEsHMs8oDlq6JQc0/xemLL9TsMi1ZoiirvzR6tIh9L8giDEYjLWJ5lj9jP+t3UPP95y5P+rHA0bs32drxJBDAo/SW5C5FjgvsRmeRYV5G5aNGiiFWTrM5aYgNK9yCJQAZhsF9IRLUuMq00H1WZHSMh8RasKTn6+Z7xymWSOMrIVLNKXYowWmzoZYSdd97ZuVVvla5MeoMv3jQJVObPn28D8Id08pQfElvw9LLZA5+aHN6GdDLCFQwnJPNKzVKtDOXurBc+g2WbPx3xrbmmQy8kdVFdNWQmsXoJkW2lVHjsbHYOte05RhmIGUGgS60wDyMyXYSDUzz25XIK759FiTr0epGhdw/lZGM0TYqggszvOsn0HmcTNcZ4jDpCZC7+YYZjtZDzOIgglpgIwu0Qkm+NlMAYExWFjw2aXiryg9CY1+qJPcBvExOMPOUNht3EglZUr4gRfGoXNA9VnuFlKBinAE9XGb8LhXOTUxWyLEIEVp1VCpAOYrxeoS86jd3PO+zYQlOM2t7J8TXArVATDS40KDF6CHc0s9trIlNbh261spgUaTFQhNiRCiN6TTVdaia5ifvtKwJcCORuZ1LP8BhDjywlY0FJgnOH7wmOEj6D0MiqJVT9/6L3uOZ7hRclaUt3VPfpJtHmRobJ1IbPTruLY4tlrOnpyjHT2YrZ7IyL2AlgHj+zMI+biE2QDGiYPogD0EOyqgYISIlRYEBEGU7ZLwERjjdKedgcUQSTX1wjxsgMkw420WFXx7feFnz7AjuPu19HHXoEJBPLY+62hhyxxiuu9BqCU6EnBbOPDDFegNoJThrlq8jBIkUaAqswInCOi6JoydhjD7zRKZAwgbuuCGOrl8cDY+tnkH+olxN5qbEMNntcaRZZNQNYq4N6rxkmIVKbrQhze/LjL9Hm0OEPyHwSrZCKCtEvxWQl6GKS+IscDtHMKoKUN61Vnykt8vDGfrC4VCfcwfTmDw8oJSQaIxlZYaIFl1WUXsYA2OwclJe1LJ6oS40gQJZNmRotaXbpu3BU08jIGmaXYDJwDA6lPUC+c0QlzTy6AObYkimQBMtX4aqpSTPfSTIFwRidw2P8wEjDoSgAuBwVOC+VNWsRroaJcyIzddcz8TYMh7AQwFS5ybnM5pF/IKBoiIq0DBnekN00GeMfyBJUwZf8MEapLvYYkYuqd14Z35Fc9vT84qGW/bYrp79IUONVjDdw9EZy5q60FEsDBj3Ah1zHVznrmCk08Wpcurjm06HM+Hv4YAo/2IQJMoxpBlNwAVOV8mrNGI81I1kYcxIBM8DwCjiqAfFCjMSuiaAbVV0YV5poskojSjMCsXfp9VaTb/UqhczKjGoSSnswRVbNQYDSsjZwVsUgZTBlc8iqOYp+FD662A+ojBbk4CgIKScEQAPopfKYFAInYlsL85Lg4jfq4j2KyFSbWcdVDxSDSvUqyLAAeAkcsvDCKN0uv2vxN4UwTsEObnorcrCUY3u60ozZWFCmBAMGjGlaElRGkYHbhmU9w/RTp/333x8Z1cY7yEgILXFFyVmspv1nhAcys5w5ccob+ZY3QuysQwsINiUsLEWAiDds8ZqVGQIBlC5+yRgS0NkKEl5CUzOLrcaJKzQYHQzViLMwwFld0Rg46sIejYl4vRX6BUQya5XI7LITEmt7SPhgcJGAMfaXzV2AzWlGfm8IXcqJ4WjMjhJK2gHwGUX8WZbEJ3oByNAohhM5AE7oThBMCrGAqAgGSzBqvUoEasaTMNGSWm/mqPyMIEKwoPExygusnxb5nq7L84JTWGjCy1RNHsuJVRMeBq86TTCZGXUMCz4q0KcLkALv7148d1TeL2t7AONJjjRDYEYRLBHW/nvNPbAMF1tKTJsSbQG6zbG+Jb1FHMx4z39VU3XKq6GTLlBEpJLlrSvRkwWgiUCNQAylDjsYkMAKHotoyzdBXHmx6gYiuKtFgJbAWBJFQcIkguvSR36tkFiFPg7SBMQYQCysOsQlJ/iSVmQFhJIZGMM7AXFxDQKRoK6lmKVbaQWLRa6Xli7SEGBq/WdEMERFi5EySdMzGUx1wSOOxghBBumTKDL4uAjcPbpmdHqxMCaWhDg2qBW/i3Tf1OsfK/Ro6x0w4wpl1NUoyDfXIaCuHBi9ZWSs0gSEGKXhdAcSdlp4r3oBaFCWZEIUGAVLK5PxQDzGtxOf8laGlGeoxinIeokgLuCsxHEAdZaKXkVXZS5dMAm7CjUE44G3OPIqKBHXkiia6u1ZglhXwjqMlBIbw6xAxoOzTthQ2hErMAHga3kPkoWmV4csihjMBlomydsTVcMMXhMQZ5IcN8byMtio4UtdzNAMHjs4yMisgRdLaIIPJXfVlEVveuP8YqwmTIwkigTEii9d9jN/POPhlUMisys59gRTMgFKSQtN6pqXNBkGkNfQA2hU005gzrbwQRYQxtRdZNc/XZoG9zwQp3HX8qY8E0NWzUQXhuw2wdVMV2ECdOupOuWVxgQQvWJdUKbZTT0oM5aqY2Qoe4ElNAlRaowh0+wtgxISCVlpkFVg8BKVrjIpcnp6NUtRASUqgOVklaY3gxpFGfquitD3BE6mGcaIiuW4BqWxzTovjQFSl2e6vSQk0ZcNgzJhUlCGVzP0vYHDw0RRUZaj9GZCywCU5MSAINXolYhSK10uTb0Zu6nMQ0FhACW8KGOqJiCUFQPp6hpcXooK9F1M6Fs91ANxOP8vb8rrSidUCSbAYLOLAacZoFtPVcrrmtfg5oHmgVXWA9KLHULthxPq7GTZruCVeGbsFNNK80DzQPPAKuKBlvJWkYluw2weaB4Y80BLeS0OmgeaB1YhD7SUtwpNdhtq80DzQEt5LQaaB5oHViEPtJS3Ck12G2rzQPNAS3ktBpoHmgdWIQ8MSXl+0jLUAaPwRbxUgqJsQPNA80DzwNR6oH55F7HSUTcjFTwk5U2tHU1a80DzQPPA7PFAS3mzZy6aJc0DzQPT7oGW8qbdxU1B80DzwOzxQEt5s2cumiXNA80D0+6BlvKm3cVNQfNA88Ds8UBLebNnLpolzQPNA9PugZbypt3FTUHzQPPA7PHAkJTX+3lL2ToKXwQNaB5oHmgeWFEeqF/exQD5amjKGpLyVpTFTW/zQPNA88B0e6ClvOn2cJPfPNA8MIs80FLeLJqMZkrzQPPAdHugpbzp9nCT3zzQPDCLPNBS3iyajGZK80DzwHR7oKW86fZwk9880DwwizzQUt4smoxmSvNA88B0e2Bkyuv9yEWzhxlq2WRohjI2ZPNA80DzwPJ4wK/w5J/U/t/XjspFI1Pe0F/xLY9Bjbd5oHmgeWCFe2BkyutZ1jJgzyGt2TzQPDAXPTDZlDcXx9Zsbh5oHmge6HmgpbyeQ1qzeaB5YGX2wDKkvHa3XZkDoY2teWDV8MAypLxVwyFtlM0DzQMrsweWnvLa4W5lnv82tuaBVcwDS095o37eMugoybHlx0G3NEzzQPPACvdApaalp7wVbmszoHmgeaB5YKo80FLeVHmyyWkeaB6YAx5oKW8OTFIzsXmgeWCqPNBS3lR5sslpHmgemAMeaClvDkxSM7F5oHlgqjzQUt5UebLJaR5oHpgDHmgpbw5MUjOxeaB5YKo8sMagoFE/xBuFLwlLJSjK6QCuuuoq/0jWFVdcccEFF5x22mkXXnjhxRdfvO6662644YYbb7zxWmutpWuNNcbGG8rLLrsM5swzz7zkkkvWX3/9Yr/ZeBn/ieG1Lr/88tVXXz3/9hZMBggI8ahRXHnllbhCw4ZTTz31/PPPv+iii9ZZZ5311ltviy22WHvttcNbAgOo6dIFyM+IGLDmmmsGkzoEZcD/t3cfgJoV1R3A39tdmhBUIkJiya7Yjb3Ehi6LvYsNFQUWe4kR1KigoIIFG4oFNSoq9t4QC2DBFmNvsYElSjAao6gg7Hsvv/v93x4u3/e9t+9tc3eZyXM4c+a0OXPm3Jm599vQBVMm1Sgy0lgSXWq9JLPtxS9+8dvf/vY73elORx99dOkqMlyQkRAu8pUiGAIiIbpicOkFxLywaEaUuoypsQyJ1ex3XXDBBdtvv30h06U23V/5yld+/vOfE27qrnSlK9361rcu48sSjBUAMbgGHqDv6gy2CCJEUzGcAsrgIsAY+EUvetGb3/zme97zns95znPQZ7w1d5GPvYC+eSW2AYv1AH/2vQ0uCcFrjkl5RbRVADUS8XTWWWcdd9xxH/7wh3faaScZbccdd7ROBPoVr3jFhz3sYQ9+8IONqFbRDjvsYNkfc8wxGCEtkjgI42Uve9kb3vCGhx566LWvfe0EZbT0A3Qe58gp1o8is7z1rW/Fm3WCXfnTn/708Ic//F/+5V8YkHTGQnhc6ohljyZGBORg19RVBFiy/uGzktGEIM0kiHCRZh0SFRpiJeLf//735513HjyZyvnnn89dJIQ9ZqQ3XMGM1vGMOrpoCRw8JO3gCAkNISRD8rleXZq6YHQxprSEiwf0Gm9kQsJQZLqf97znnXbaaSwnARINgabvkEEhB6MuLPDJgzXAKIpqlAQWHEVYYnDY1VjSFV4wGnDI+NycBvYc1fzDH/5AXTCIaVGTEyFqGiMTUqmBN2DTeWCr93IiRmB961vf2m+//T72sY/Jd8J37733vsMd7nC1q11t5513Pvvss5/97Gc/9alPFYUCC7FQ49PkBcClL31pZBZM0hCCM8444173upcaZcI6cxDGRPzYWUGsyCkPetCD5Dv0Iv4GN7iBLdWNbnQjWWbXXXd9wxveoPe3v/2tXsVSRIOLQMsAUE2Y9ErEURey5Du8IQiQhYSe/UkQMAgMGTKw1JYlSgWZar1kJt9xCAyWaEGpNyZF+2iNJsS6CFfHGEgFLwkKPKvUMAhwxaQQRykkgqGC3mySAFDSC2Mjv//++3/6059mOUV2dne7292ucpWrEMX5z3/+8w877DDeDj3J8NGV2kh1EQjPsNgWA2IemboyhDIMPTgSAqMhB5la8EDq1WRheA0TC/mhlJdRBgOIdjVGY4wZ8K1sOg9s9bs8rhFA9iwHH3ywEBdnT3jCEx760IdaCQnK73znO09/+tPPPPPMD37wg1e+8pUf+9jHisI4VF4QZDYFX/jCFwRcEuJ3v/vdz33ucy972cv0HnXUUaeeeipiohK1Cdx55iPL+8lPfjK94v6ud73r4Ycfvvvuu2OxGGzxnCU/8IEPfP/733/KU57i7BPhiXjGYzccSAAkIE2iIiF4SL1Ksnas0ixe6axWoF74LNSktlDGVHgE6NEYMhtguCiSUcZC9diCgJw4Jz7HS8hcjqJFFwLS1EkNgExK7O8rCoaWyFTDuCV4xCMece655xL1mMc8xtSzHIzsBz/4wZOe9KQf//jHJ598sgfeIx/5yFgSdpLjFvRxEUzFQwabpkFFV5mUrSX62N/3XgyOwJiROrqy/eQikulFHN+SD47P9QLKkghs9abwwFa/yxM3IvWEE06QTazVgw46yGIQasHrcpH3ile8QuAqr3zlK12r6RJhvIle4IozNcrE3PWvf32rSGJC84tf/AK9Lrxo1HgVwFyTQeZHP/rRL37xixazc/ELXvACF0xY0FsGu+yyC8k3u9nNSHDH9973vhc9mAoEIbNyAIZjG5h9U3IxAmSK45JVhCtLiIQYk1FgB/AA3nPOOYdS7NEOH4ERpQlIjR4QhwBckCUZ0aIQEhVj69/85jfwyOKZGMB7GY6ueJu1jGcM+ijV1AvWNVZykBls5CMGvOpVrzIQ8g855JBHP/rR9vWl/ZrXvOarX/1qV7fM8NyywaeFARhjUhxOMhb+ISQFJnnKg9M+Ma7QBW8usHNIDIbUhDcRf/7znwEwhPNhYJIJQZ9tZpKarhTDQW9yMxZIABoao24tYfvvJvHAVp/yhIuIfNOb3iQcb3GLW9jQAcQcvCKMuM3m7vWvfz0k2F4PPr4UlFkGmnqTGrI8rne960FaA8I6+HAhS9xHwmiN5T3veQ/iPffcU4alAqwQG2IEL3/5y20txfdHPvKRLDP1W97yln322ceuRLp54hOfKC3e6la3QkCd9YDXpZXd67WudS0HZHn8/ve/v00isRkXAgLBNDo4r1y5Es2qVatuectb/vM//7ML/lDWRixL2vKrIcg79p6PetSjqHAncN3rXtd26ROf+ERlyaLsAzS+733vY6rnigssXVn5pOnKqJPswmUT7RDqksGLo+BZYoxKX2xhDMqIdPFhMgIt73jHO2Q0cliYKUaPIBKucIUreARe6lKXgnznO9/JDO5F9rSnPe22t73tv/3bv/GkR6MHEi+5EAwjU0888US7cte4XjHxv2en7T+lLj0imSh6GeC55bLixje+sfr2t7/9M57xDCkMDeLYSTsYPSTJkAYL+OQnP+lOWXRRYXa83PDki5fCG0Wt3nQe2OpTHte41lELrwMOOKDiTLhLVbXYRPBee+0l7h1U0cBjsZgtBgWxZp7GuiQCx1JIwDWucQ1rGGPiMuuHBPRji9C3ToS41eUVbS0nWtBjBOy22253v/vdKTrjjDNseaKdtb/85S9/9rOf2baccsopbINPhsLoTYgV+M1vfhOSTMXdpQvKY489Fsy84FFafhbkr3/9a5mC/c6AhixX2lHqRZZ1aLBGhEYTkmE/+clPHvKQhzjUw9u8wHsR9PjHP/6kk07COE8xIg+Gl770pdKr07qjJWICo4hwTRaqYQa2L/Hg8TaTui996UuhVCulJbxhUeepw2Ns4wS1SZE7kEFiZANk2KmwVV+xYoXmZz7zGTXtCP74xz96j//lL3/Z3pDeMPJwGEnjN07gEzYb0Wc/+1k+z1Mnz4aM5cADD5QcwcTaYHpZzLceEl//+tfZA88ADgRQCqMGM/LjH//44x73uK9+9atUKxjd9jqVf/vb32YkvfFSRtHqTeSBrT7liVehI6oEpe1JlorQASR2E4XcZxmIs+9973u1tDSTL/QmgjUtDFF+xBFHwFgDMAA1Yoy1ruaaD2clXcjsksKiCYgZANsEGFuMLFT05EcFg11C2Xd4n/uhD33I3bxtCNUG+LrXvU6Ssi9gmxViV3vnO9+ZzDe+8Y0ZfuQff/zxlh8t97vf/Ww2rS6br5vc5CZ0HXnkkT/96U+RganjLmRZYzCOchKBPGuLZPPoKfKud73r3ve+N+2yrbU613jhvYrhKOMlh/b73Oc+SZ1RQRcaE6TmFhscY5EcWUKLBW8g7373u2NViKMLASDjytMoAl3LRtTVr371cGWODCfsajAPA+TfNMPCAI8ZV6u2Vzxpz2Uzjpi3eZWRLoLhv/a1r9kM+ryJf3xuwoYI13TpYaNqpuydP//5z9sFG7tnm6Qs3bMnZmerG6UwirkwrUy94x3v6FMB+241I/nc1t79CdviJVytbDoPLHPxPyS94sY8VVeQmiY1yCLr0xQZIIUQABp1hTU4N/rFu96AWHRfoxY6PkaJnFiujrVpWiFJhQ7CXtGCmWEVOac4EaNRPJylJOHrAzoxfd/73hcSRgTHfooylrkMtmvDolf+xRLiYMJCAqvcrEMCHGPFPZgl1oO4d/13j3vcQ5cmFhhXQpaipp2I20Bd2bQ6UTpzSRxO7nSxU4Ijh9nPetazIuF2t7udXC+tGOb73//+yKFOscDQqKnQxY2OY6997WuXL19Or48HfcHjFcHpp5/upLzvvvsyQMESdoqsfJQ2StKc4oxmGX/qU5+yk1JkT8dkY+E9jCyM9+Q7B2H5V1aljgdcR7zwhS984AMfaICXv/zlUVJBchwYeKC8c8ivfvUrckyf6YYMWVhQZtSQvOo1EbwhuNrTZaToATIs3n5+kVLtZ2Uuj4qM6za3uQ3Ajps6+chYaLSPs/Wzs7OV5mQSyMfi808fHnn22OCbmuyg6cKSIQNe85rXIHYpYTvMb3pvetObOoB7rth7mkrxZiJCz/5WFuWBBEBYzLhm5tp0K/CpAfNdG2MrrQUXZ3UF6Kvsd4VRPQT0aTYQFijynRMo20S8ppBSi0gYhWox56QzaE3yiKgVl1mxXCPmEoWyhuUh1mFsAXyiLIKt2MRihW9/tQwZTzhdNOatRVYFmgwfEF5LiKmQNEJmmbGELrsAGLAaDaW2G07ltRh0oXc6tumzZ3EWQ2lobsfUBmLxkBwJutwbWvxOuEyC1GU4KHPFjoBS71sAlnHynSFEFIyjrl1PtPfFxnuVYnS5BeMuZ3PnVkc/h2u5zCbxAQ94gFxmP4WGZKLUko5tkQ2OV6vuMX/0ox957WADaPgSpdnMk4ZVCnp+iy6Gme7YqStTAxmaDBAldVjg5XpzGkpN2dYTAhBGJoHvcpe7ZAogMy5IVxNqTdmZtcx2piZzjz32MCJd0UiyW0U5iz99JcOZMIjZ72EAJpkWR2wsMiMLFRZil989Koza4SMGoG9lPTzAt+HiaoCahyG5ekjaMvsdqDCEus/Zp04vQZBF2QfA62yGpsj68tcPFqN2OgbmvCPIksgSzX2BQjBfjdjB+TIOmV5kIhhGdhNwYBhvaR02bZfEqOIIefOb37zvuPmN50/E4t7KtzYIpwtLPCzK9dJi4xDzcs9tXXEsYlvRrBm9WQPwDFPbPzqmfeMb35BVwRaYHYdxZSwkS3kky2tWe4RHAhrbEIuWkGAIjCVxAgLbE0a6WpJNkMEgQMarFDHJmrRvQh88GgPBUkXTKPRKKHLu6tWrbQ95j8HeHXmTQxQnkEwIybGQu3xNaX8nd7/tbW/zYsE9pnO0YyalhhP6EKup87iCtDdkQ/AxKR7GAonAPMb5Mr6uGKwrj0YAgyF1lZdMGR8aqWO+o0AehDb+8T96VtFl1xxd0Z7aph6gl4WpcXGmZpKmXlzSuvsKehUDZKFXMSS7W0TWF9jgRXmAP7lX4UxrivMBwcTzVXd3TCUabIbSJKLwAaprFEBQyCGuyIyWuWiGWBbVFNwelWqB6xbMNwpZJ3RRCjZyRdM1mQjjCymPCnGZWi6wSuFhyCFBpPqu1YXUD3/4Q+cRd2HwiPmEqMBzGSnj6JIm3PjkjBOuLD8mKYLbuqJO0DOeaiwsBDi31u4mawAZpU5A3vNmOEYqzRGLXU1gButgxTZH8rKQhAwzKlDqSlLAiytDlkBDpssrTuoillUYcem1SdSLXTPWYg+B3hoCXgSGYCC21TK4t8CaopDZerGEi7QIZ4ku+dRtoJRHGrIIpI4WxqQZwzJA/pRDTVYGi0ZvLIwKOzLJkeRcBUQpMj6BVKOP38Cud2xIPfkYH11xCOGERGA04hIwUQTWFYPVxQtPBV7ThJJ8O/H0eu7aMkcvAmRo1FwkidezKhpbvXAPcK8Sx/K/EkxJ0Aw8e+NbHQFw4hlFVu8QUM1o1QxAjpLeTVQLNYc+gSWapTzP8FjOgMSlGkavV5yIHb7KEngB592c4EMg1sPiPKK4hPIRv+0PpC4CIyfyS8gQ4CwcSlsGXcQKaKs6kV28ebunV15Qw3MUM+wpEIcxxBaMtGuXxAw3QQ6z17nOdaxDe1u/onN4REaj4rBMiFMYgcFQjb2kQYJpQSYpM8m4wO6wgnfIMmosJMDkCYGLCk6GUWIqrkgDJEfowgX2wHCv77Bmf4eGz11XOcDGkoGMrtKlGJQsYKfjvQdRaIzR5+JledEXYD/FeJTyiCM/IZmdzF0xSnnIHDmJjSd1IdbMdBMYPEYvFlxEanq8edq5aPbo4mQwFvlIF3ctX77cRjt3x8ZFb5QSVTKDYR6CGEMjD5tWO0fHfL8CDiPJxOpFBpDvyvgabAMW6AHORMmZqTkfDGki0lVyxqS8sA3RFUMWQ2hKB2AUjyYlvGtbF0OW2PUGRI9rYBs3D+qXvOQlfmdmQxFpMUksarqxlguEnW8jNLPnEsqGmRQj5uCTDvRCksNfzI201Gmq5/IPLm8M7BfczTuyeUEZ+XQBYpItnleENK5cudK6Mj2Ea9KbpQIuvQAHWAvJ+doFmS4l64009JGptlHiDYqcyPJ2SC/JMIRYTmCpPCy1RA2ENJ+JeYfomMmZyGISaWALNR+m9U2KV/ViJ1kNYyfoNYjDrG2jLq7wcYxrL/syAiWg7JjIUWC8Gz3ppJPkJux0Sbh+Q+ZzQr3GaERqXQWTqcubH6Nz9nT54E2Ic2vwMcno5Fy/O7Rpos5ckIBAoZEWdTBEQdLCP162GIXzuJcYlcVcPugl0PAhmSEdO3R794oxoigNvdG5cHDBCkMFAvQxCYEwQMD5cl9eoIegXKepZL4Ct3pRHjCbpjXF1HB+okitwJc0XV1BFLqCTfZQwQkT5ogmJcA8dYmN5E7ZoJQFGwgwiTxLS3hJaj43HYyxqzyWE3xi1BtMBNaA76doxCIQhbJAZLzIQx9LNLMj8yMK7HaFGCH1ahpOUY61HM1BBx2kJtNuJS/E6ZLv1PTKCz50AJCDEhmZ2U8RWLogo5FqZ0O8Nnd6ywx7KFs8inRBEmiHCybQdxWasZl/CPfG1qrLp9GIMwqU2NOUaNC7g5cpgtHE60bM61pnat/uRCAWwtHoNQS1hcpCXxfbUvlO0E3o8uXLfQVig+wFsQvNjJHzmYcdgY9pJFmvL4zC48rXaq5NfWbobEsL+SijjiJA+RxMjg8wYWzqvTm1L0ZTJpHvTYhPlCHNYz7lIY2dRo09Q8aOBVIttcl66H1XrK7ivYqhYZFDeR6lbIvFp5eeZ/EDObpsVM3OPvvs42AeRXopJQoQIQIJxosa00GUoleXWzzu9bFRDCvtDVhvD5gCzlQA/GzeB/5eW5kzRZ9SANhMK6EKnCYapnQ8PWAI7jcHgmerGJHGeo9niJGFMD4ZdcNibB7vLmUshpDRaD/lDaBVB3P44Yd7zEIKU0WgY5eDbIt8BuzAImkKXzfo3lT6+EOvjRjKjIgHCIlzIn+0ZoOP8t3HA6Sk1atXOzGBUZLjxShTKRL3fj7hsk/QE2hxZoWwMyOiMZkC4Bsa2dmqyHGY2fZ9snzSKN6YJxcYKUWG7ACVTYpkxCFGh4xVKBUamYReHb3Ga1NmMUvHtjwI4KmTXPy6y9dnesOLBRA7ExI+TLGVs4/W9JbTkdYs2LKRzxj0xgggkAfcqO67776Sr4fNihUrjj76aKdgSmVGlMgU2lGSFtuo0wWpK87x3jPZx276mGOOkeP0mlYE5s6DBGBLZeCmO9IwRiA/6I1kSIBHhe0tI/0zPERR7UFlr6ppmLgYgIUcaVqRZH3kaIsKMAq7Y7+WIZauVatWkYmSweT0LTdfRHlL45NPL0kIxOs4z1re8KTBEkW6WlmsB+I6HsaoDpC5MB390u0a+iWk+BWwOr0FpNmepLTLAAAvWUlEQVTv6rP34RJVxMH0aTYKbDwCzvPTCwe7Eh9k2K24tLZKJR2RlBxnT+FSyUBgsvx4JE6R1yDFt7hXW6vCUUKxkt2XMTKWIwYnNOcZiy66bA18q+EMK2tgtKjIdG8oebHHD5uEfollD7FGERXRGNjoSLCS2ebcZ1BWGmICjVEuy7IMizspd4hWo62ZG0DyU/RKK+4ZAbQHycJwqV3V+UTOR8VuPC1CNLTTwmYrOb/xQJaCPVlMkz+lb1mYbX6W4H3FWqruvzUcsBSgptSIHEilAAkCRrNP1ucKC3V9JFg6k1glPs82WUPhFkgHatJMHMttMOXxzCkjCdGVNERCJCcYNA2cx5wG/CqGKGd5SEZKx0YXLkYqTtM+uHGj5zzB2zko8AbhdqkxVY0yGsmJM30HIxp9dOn0IERZyDa14nbSgZoxSiTgamVRHuBw9HFgapgKrZoXNB3d2LK1uD6jUtsmuEhyTe6gZLSWlu2bwRudE4f1bMOFLIGo1oVMsKLMAtCUeqwc7wEte5+MPvOZzxSRJIjO8lJSBvaxJWQ+BPNPuT33uc/1SoEEYl30KJaT22t4v3i3MtlDCJYsKistNsS8MKrt8lzwuxHTKwdhca/n1SpMLUhWkYPAhaYPaAnESD6kNOQgKQWgwQuPTJJijFozNjv52tq4f8xLZ0i9Noa+HcnnKSEbqpnqq12pwW7Lrk1vlA6RVVPaNU0uJeW7eJUE/imCBQIc61cibt88J4yLW3J5x6t22boOPvhgopKMqACraYzDeSCYdDkIe0qZGvQeS5AeM7IbgCfJBMRIV4fensuMmnk0qmn04zw73AgvYlrYRmbc7pHsvG/uMt3EKvKmbbKnF5pYtUAPNLL188D4aON9ZUhiMIUfbcIEGcY0gym4gI316wu6rDGxIprFlqbE4bbIFxti1wKzNvyQQJDFqhAHFrUYFXEJn9CMwaJWibUInHQkF0C0SBNzrVIJ1yJElsxCrI2nM2byHXt8IkdRhDMDgKZTtvbUHHvUMFHHjPRK4j6s5bp8W5tRqIsgo2MqG+jVNPwsMDCTjDSiyA87YnjIFEg0No+QFJETjGboR2uuoAJXbI4No2SFYW2MCQbjPMKLawjIkMnxxGJt3o9LHDzs1aexZKRMQolXXUPWLJupDgEWgLwp0XuWJJPqJUcxQOwVYyjpzT+44lkbL2XgughPKGKkK6PLpMQSlEICl2AIlzo2U4SmlfXzAOdzo3uqzDW4AAI1u3rs0sWpDGkNpvCjTZggw5hmMAUXsLFSnqhK1BqPYBVqoqfiJpGUoUY1FwCCwQvGnmaNF7JzzdrvVwlx/WRdlftCUPR9wA+n8mUDLviwxEhNjOCYh6BvjN5aURFYBADGxNR0ZcXCwAcOnnAyY3lYYJLKEZCT5RcyTchgAJEWOUM1+iIb6uJzWxXImFHNIbJqRlSGhmXU+UU5P9A3iRyDraEBIp8Eg1IyC5rwKJUILwOKPnjCAfFkxpUasgTCaJrKWAJfYiOkMPXcgolYLCGOYZo1a2VqhLR6UR6Iz+dPeXMebBel6a9InNBRi1qPTREjCsEeqrEqBKKKO/TGKQgA1gZiBGDEaIoFgZIueHBo1OBIA48tEUKXItw1KcIiHRCYRQIZ4SSAozpbg7CrsVtXyGgEE4I4lISAdZEPRqZJflZ7JOhVarsB1psu0tIsTBRFeGq7mLKkyApTQPKdJjPUmixJOiiaPkAU+bSHJboMsE+zEDgmxb0ZC70KPD8YICFRFFhXYQAD2tnf/GqGBsASxhOiEOu8nHFpkoYLMsQw/a6MCEHICFGiMVOQSSxegJLhA7CLWACWVjapBxaxy2NHAiUGgYOpZr+3iIssvVVvrF1etEeduBFYSmIRMkGvDgaBQAQzIzGqK3EW3kQhGEBOhaDQx6gpLrGnt1T3AVeBtauKijzkY2FZQrjeaCct9gQJX+bhisFRgT5y2FBiR0dkNSKL/cWOFwZjbADTgjIEIU4NH3a9MOxRYsBonfNan4z8GDBKHEy0lP2Q/fHOxTUW32fMBjOYqulijCb2/ijgYXg+1hY9AFIXt2AMSwyOAQg04TNrcSakMsqIpbwxJGSsMVHR6vX2gFng2Pl3edvCxYFxiicBmuWXyOM1+Fp7FbvWvC5NsQgogjgLBnuFI7HB4MonF97Q9ReD3qFCDgwJeBXSZEAskUkOAs08+fUq6EMJ1ltFMytKHbKyFktgjBkRLnDhS6berDoGRCkAcXQhi+Q0Y2Rq8mO2rkhAPFoiEx6XLIYYI/kRMkofSnUxzk88VkKQxZjsmQ0mvXGXXqW8lOEwD4ECiJCyNlOgC2DguZ4bGniakRkt3NtnJDYYwomKAeHSNbCo87yukhx29AXEsFZvIg+seyNtejaR7o0iVhiRkwiuMA2S5ZJg9UKGTEBDCtw0hVrfkkRqAhpBaKzPxCtiMT2PT9KFDD0VEQ5IgURAGrwS4QC96piBYKC2m5oQqCEVGBLUMa+akGiighy9uthZBICIMnZkfVHwcQjG4GWQaCmbASSMLVgwRrhxBYicsfTRQj4gehFH3Vj6uZBlLd7MDkqikkr6VsHHfkjmqWHior7w8MKgEUjkBwbAVMxA0qiJXulLQIZYb7TEwjSRaSqh0WSSrmBijC6YvsAGbwoPbMyDLfvMWU1b4DQLLmCjH2w3hXeazOaB5oGtyAPSi+fQ2INtPZ/WvcvbigbcTG0eaB5oHpjfAy3lze+f1ts80DywTXmgpbxtajrbYJoHmgfm90BLefP7p/U2DzQPbFMeaClvm5rONpjmgeaB+T3QUt78/mm9zQPNA9uUB1rK26amsw2meaB5YH4PjEl5+ZJulG0ufFGuk6AoG9A80DzQPLDRPeDju3ya5xtvwvsZqeAxKW+j29EENg80DzQPbCEeaClvC5mIZkbzQPPA5vBAS3mbw8tNR/NA88AW4oGW8raQiWhmNA80D2wOD7SUtzm83HQ0DzQPbCEeaClvC5mIZkbzQPPA5vBAS3mbw8tNR/NA88AW4oExKa/+YakhE+fCD5G1ZvNA80DzwOb3QH15F9Xy1diUNSblbX5bm8bmgeaB5oHN44GW8jaPn5uW5oHmgS3CAy3lbRHT0IxoHmge2DweaClv8/i5aWkeaB7YIjzQUt4WMQ3NiOaB5oHN44GW8jaPn5uW5oHmgS3CAy3lbRHT0IxoHmge2DwemDPlDX3kojmEGWvfQmjGMjZk80DzQPPAhnjAV3jyT+p5/v+gz5nyxn7FtyEGNd7mgeaB5oG/ugfmTHlDlrUMOOSQ1mweaB7YGj2w0JS3NY6t2dw80DzQPDDkgZbyhhzSms0DzQPbsgcWkfLa2XZbDoQ2tuaBS4YHFpHyLhkOaaNsHmge2JY9sO6U1zZ32/L8t7E1D1zCPLDulLfwT+0kx5YfL2Hx04bbPLB1eKBS07pT3tYxoGZl80DzQPPAAjzQUt4CnNRImgeaB7YVD7SUt63MZBtH80DzwAI80FLeApzUSJoHmge2FQ+0lLetzGQbR/NA88ACPNBS3gKc1EiaB5oHthUPtJS3rcxkG0fzQPPAAjywbJRmrg/x5sKXhHUSFOWmAKanp/0jWWvWrPnv//7v//iP//if//mf3/3ud3/3d3931ate9R//8R//5m/+RteyZd14Q/mXv/wF5j//8z//7//+7x/+4R+K/W8HZfCJ4eSFF164dOnS/NtbMBkgIMRjR4EGwdlnn/373/8e71WuchX11NQUZORECBhSFyPPOeec7bfffo899th5551jHmIFzIDtttsOJfpgIPtmQGoa7Pe///3vfOc7O+yww7Wuda1rXvOal73sZQkvyr6pjIf//Oc//6tf/eqXv/wlpXvuueeNb3zjv//7v8cS+cRmjAz46U9/qsm88mEsL8q+8CE4PqeOhBqFpmJEiBEAFJjwZkTqNOEDFwBPVJAYY2dMMpW/+c1vYK585SvzG5oiCHvILrjgAs2f/exnahGy6667pjferjgJcbqCjOviWPCf//xn8fPd7373D3/4w7Wvfe2rXe1qV7rSlWiM5SFWswQGwB5z9MMf/vC//uu/kHGpmRKcesMVLdErKoTQ7rvvzu2J24ht9Twe4OHMF29zKbiIg9ec5OXCBghdn3osfohMcyymkIP+iypzOaR3/ZokJvqxn3XWWccdd9yHP/zhnXbaSUbbcccdBbcBXvGKV3zYwx724Ac/WLDGF9F14oknHnPMMVwDKapiKkb54oY3vOGhhx4qjiO8z4V3qDlkuV7q/v3f/53qk046iaikEnjSIjBhDXOf+9znBz/4geYHP/jBa1zjGtWbNZAm+RkmepSWUImy2J7whCd84QtfQGC8f/rTnxBIfMQ+4xnP4IfwQhKV4b/nPe950YtedO6552bq4S91qUtp3ulOdzLkvfbaK8OhIjZc73rXI/blL3/5He5wB6opUuI0NHOtRhqHvF0CA5Qc6lhS/g+j3ox9yAOxrWpkpMW95vqd73zn8573PJnriU984mMe85iQJZGBozf1y172sle84hVGceSRRz7wgQ+kNANJb2woLZFQcliL8aUvfekJJ5zgWSVgGADJ22aQb1esWDEkgW1f+9rXjj766DPPPFNXHIiFPyXKJz/5yf/0T/8ENthyxSMe8YjTTjvt/ve/Py74zEWZ1IC5PMC3v/3tb+NhNImNfixt9QdbgzE8gfKtb31rv/32+9jHPibyRM/ee+9tiYonuxh7rmc/+9lPfepTRZ7QQSzsuENTyAIufelLIwNLFngRnHHGGfe6173UKC2DuAxlGKsJM1Tia1qsEMUixB6ailpCzARKye5HP/oRM0JALBYwSnB0aQI0sxpjXgjsv+52t7t98YtfJMoj5OY3v/m+++5ry4b4bW972/7772/usWtazzQS/pSnPOWII46Q4EiT0O985zvf6la3isZPfvKTFphMrRkMsVjsZeREC5tq+JgBiNiOdFxJFsiQyVHAamOJQ7CHT5N5GWNkqjPAUIYs9ANJF3t0U4RXMX08CcD7lre8BRcYPbMjJ8aADepNb3qTJ4SJRhCliYpoCSX2CKECkOGjx/7whz/8da97Xbx6i1vc4i53uYv93fnnn//tb3+bD2W3sEQ+OR7DD3nIQ2wJwfaVq1atWrlypa2ophiQ3cwX1ejLFTRyOwKiYg9MKxvugTEH2w0XupkliBVHgIMPPvi8884T0HY9D33oQwV0otlR4ulPf7qnq22UIHvsYx8rqmKhRSLI7OnskkRVEqJzyuc+9zm7AL1HHXXUqaeeipgolIJPmX90UWp5sEoCfd/73nf44Yc7m2hSocaeOFa//e1vz26U2VkelVbIYWfWQLiKUTMS3v3udzuZMslGwLYOYDWqX/3qV7/qVa/63ve+96EPfYhbCKda/ZrXvEZeI9lx267NcT6uMHC70Re/+MV//OMfH/3oR59yyikSKFGMQYDeYgaTAI4HInMeV8R+BID+qMMOn6GFQA1PJoCpVKth1NghywOhD1IvP4QyLByuC+Ovf/3rj3/843e84x3Rh8UYTSgVRvSRj3zE7hhjMFjIiSsQZ+CAmIos2ssS0XL66adziCx22GGHUYoYDb95nDhc87+CPTK/+tWvigFkhgzvGUMvFk3PVBLErc2px7Murha6ekNAC7394aer1evtga1+l5d16IiRM91BBx3kmSm8ghcu7kocYQSN8spXvtI1ii7RxmVZMOJSWKMUiODrX//6zkSSCJpf/OIX6BNzCX28ClFzeRxZ9hq4SBCyNnpZvRh1qRPxdk9yFo2iHB4NsQCSAfAANXoywQSisSDVCuEf+MAHLA8HdjsLGMOhDrG0boeLkWqMMLoMRMrjpV122YW7ku/IVBCsXr3aAkbMKrkPQBQVLGEtmGFgWnSRjAtArHpsCYEnDS5ysABQBg+gFDKYyHG5BglDHUXRGILSSAgaJXKQRQgWQjw/Qo+Mc+JMlMiMImkRgaM9AhiG6QLH2yUq6tDHA1gITy9YanMm4MB//dd/5f/gEbsZcKAWex6THh4Rona8IJ9j3brss88+NDIJHtJe74UvfCEDWO6OhZDkO3qTIo1UbzmN9lY20ANbfcoTE5axc4qwcMSwoQOIkm5ZDJY6B9ncvf71r4cE2+vBx2tZ1QlZvVkhog2BCyw0otN2IPhwrTP+RK21FJmJ1De84Q2aYpoEXeqs8I9+9KN0odHrMB48k253u9tZCTaAUiFKeDQK4K53vauj65vf/Ga2OZzay8B7P6NJL2sBpEE+/vGPf+1rX2sFwtCiy5GfQIC873ITXkFpRNYeAPFtbnMb7JKF9RkueAAz0MSBuFgSuDADYWMqmdcZ8Ctf+Uq4yMHC1IwLTD7JrAJIGY985CNtsREwg69woaFOQaCUjgwWHgEL4ckJC+HcKDF5kQUfRgIhNX/84x/bW2E3RrwhMMUSk01WPEYsPHoyCbd3MyNPetKTYrCjKKRrAb3IiIJHTJF7BucDTxR4Bf4b3/iGexWz70rBrhNN6KOaqatWrfKIkukY9s1vfpOdhJMMQJzYi7RWbxQPbPUpjxe8n1WLoQMOOECgJJgSLkIHoPdmN7uZi3kR5gmMJsGaFCAEQ5NUpcuScxyGBLiQ9rzFmHVFOHoS5vJ+JKtRHnLIISglzc985jOEYMk2hASSJTWAjIA4+IyCqY6rLncsg1ASxRjnI5d3XrO6s9N0Hr/CFa5gcTo721NkPZOQLODoapVaY1k/8FKALvhb3vKW2DNMmIyFChgbRvRgN3oZAjgCeSBOwBstoQSPLbjQG/WnP/3pAw880KXhW9/6VqPGxVRicalpJxAlGODC3pufe9/73gZltSvoI7+INWODLgWeqZBEmVCwAXplxHvvete7aIz9ajQUQTIAgdveKCXE1HuB8L//+78eDGryow4LRjPl/SmW4D0OAZ/97GdtSwmMatqxuBS+7W1vK9HbBpo7ZI7AbKDxHve4BwKlHI43Vt3vfveDR/+JT3wCBoCGVdnxxTm0tLJRPLDVpzyR8fOf/zypwfcZQodfEiXiLDGqhnRitR7ccCXmYDRFWKIWTUJQ+nDX48EO43iLAKBGnECc3+8xQJTjusxlLiMLs1D+wgUjBajBX//6120WwMKd8KwEgC4LBpnXGhJcVks0uoaTAq5znetc/epXZwlet+a2Kj5Pue9972tZ+lSFrhpduJgNCXazjiW7V4qQ8U9o1Jp8mG87NH/yk59EDt4iRkBaTCUqcEkYBTA6QrpX1WUsDm63vvWtXWbZ9UQmPJkEqsF2l4jNgrHbc8nsXhHULjuOrToGhJGpmmTKXPHAgx70IJReYqRLb4bDXQ4EYFnYDRoaJXEiVSHDbpsJUAjk/0996lNGakZkbcTsBMit5kIWYyFrUSq6cCFWx7fG4mgPL3n5BiiRhhKAJmMHuzndbbfdqD7rrLM0aUGjl7XkZIyEtLJRPLBkanJi6G96yaS/NROTU5NLZiZm/6ZnJgNPT8z4U6hP3QfKpo5iUKwYf1NLO5kT3dIW3IJjiYejv06K4j+2TfkLZsG1CLOE1OLYeS2Rl9BUx4Y0ZYrEk4Mw8Qk7Me2+2YnY1sBj/wY3uMFNb3pTR5jLX/7yz33ucx/wgAfgFdwRRQVFnb2D4Y+1MV1CnGTBes973jM7HXk59ESRYxcDcIb1cRa8cEcMD7b25EpwnvnhQuBIjsZrCpgsAzffsp6mDPXMZz5z1apV0qWvLmysItAY9TLJEMLljjyYOAo+AHr45cuXa4LtdAIYr4GQEHeFl+WA0TLkFnLskX0r4w2m+/vLXe5y3jK5V2WnpjfsJBCbUYNDbDOLxXtn03T88cfLkoYWYqOmIvR9GzIEEnQh0HRGlv4kJru2ODzWeqeBgCW5U4sB6ZJ03Bvg9XYVJvJlHBLUJgVXvOT8y0JuId+9pzf7wsZLs/e///0w4Y0reM/hmtl2iPCZNUMGRD6DgwyBvWSaiJFlCsA16sBqJYMN3GoeiM/LFTwcJxcmwCAJDfpMQv9v2eSSpd28T3YUvdo0LBngB+jZCi4QoX18B89MD/7kuQ6wdpLburSHuMwBXdQo7IIAgSjULJhO2+A0mlgBxxgAmhUrVqTpFsxSF1t5FCPOd8tyny4ZChmMXVUuoWCwQybfJWTnsix+tx5kPbBdlc9N6Xrve99LAjmQEortD8BeQ610Th0sCXGMzMlObbFhdOZF4KDtI1s0thia5CNQjj32WLunm9zkJiTYtjj22u65kHJMs2nK+jFMC4/xhLt0Zz9GosiJB8ABiM1hmR+YmvGqlbCgDFBNmCqQZCowRJGZcTnl+fbNSdAllxTGAO9tbMS8MIHEBYMl1nq77W2M6zYbKKNgBtf54AZx9l9kRkXp7QNMjVIvsuCdptUkQwoS16Cc4PwuIUJSHeJY7iMnxD76kZoBKLnUlSvz4nbC4RW7UbtFKVJsJJzcG8iD173udU1HPSPZKagIt30mDaPhZJhkwkQ7entAvba0IQMjoy7EmqEEdP4dFGIVmFYW5QGJaM3M1JrUM1PT9TchN+VvugNkq64JHjQv6u2QM/4wBhiql85M+1s2M71EvrOxm1wzs+RCtU2jv25/5y/5LvWizB/EkBUlIJwgZAdBYKVluQ5CYjYmRI+soUtI+dpexNOT+BNwsps9lE86xLc3aEcddZR9lgs4y+xLX/oSygo4sHib30YE6GnPBbmzLfoTTzyRoqwZWlgi+0hViFGir1hH7KCq9rmM86BFpcuKEv3Za2DBbrC4vPewy5DmTj311Je85CW2pe746FXsVR2oc0toL2mNUeTopCbc2IkNrAkglltcI2rWF//INPGGRt0H0sSoBFanycIgSSDcwCXBfffd13sk26jVq1cz7Mtf/rJvYnw8WFkAu0Fp4nWnKa2cfPLJHMh1dn+eEJJRBlLqRgEaqZMlDdCkc2N8CxAkDMsThcyYGpvRSMc+mrO7lIjjHOmPPb6Psx8HxBu6CHEa8NWx1CyNHnzwwcuXLzdADnzjG9+YPaBRKzaPjKEXOwIwpSQYIwyAdlzeXSB2wlVnRIaZEiPBwXdC19IE0+pFeWB2y5aNm7r+kpK6rGQ9DGpdHTxYHnH6wPmzMzSkNV3qZRMz/pZOOyEvm5zYzul4elJjkOlMt0w6myMHh9zxwoZkX6wphhxC1bBZz4l4gQIDTuxqiipRLtSkPF2JIbV9jYewY6+otSO7/e1vL+NIMTDIfNhBiOgEJ0CjS3NsycJASbJsRa9Dlu9C7BdkJUGvy7LXa53wDyFMAkR4lsGKFSvsF8AOYvB6XS+qs1ZDadUxDDIjtU1wyH3Ws55lZ+qloVWK3V0kG4xajVJxxoTHYhT00q5XzR69LjoteIC1FySymERp9OKt0segV/CiV6er5gILg0MjrXiL4ttdSBg+CT72YAHoyuU9YjtlU0xgRhGysIzWNVmGYCqlfg8zZAboMkHtSEsmpZ4WZDJVb9VSm1cQ9pUZBbfr5ViqMxYsuiBjhkfjypUr/WpFwHjwuFqRv+yvpdo4li7J3dUtFh6AjK74kCgYVnlXC++3julFrOhVYNQ1as3wsgRjKFs9jwf6Lh14lUPX/rm76/4GxayO/avbvQm3cjNL/EVi1QPu2Qu7ToaD7ZSru6UTU8um1+wwNb399IwN3yDldQFv3yfiTV33vBuk1nmMH9Nl1vfaay/hKAKkPNEgPtAxo2JUU6/7IMS5v48glALUacLCxiiqsOiy2ISyy2lN352q9cKjJye889QiO5QDV0ySJodScdJJJ8F4v2wnhcBCCgGZCky0kAy4+93vjsXGE16ecqol1kckeuHVeGNDGNXwzm54LfXVq1fDyLPWkjGi9DYAi7t2BIDo8gtfSYFwxGzwHaLnAS/5AiNkGDWpLnVRrangSlM9VEKgDh4lOeQ///nP9wxwl+dy0z7XzaOkgIa6bEiNYuCPaYdxxDa2Pn9zFbBixYqnPe1p8hRiBEPqqkkRUYrZ9GrIntdHQiR7K+UyQabzpJFljCjJHVnlXELMFKfJUC6IaZEuDcFBGw3DiC1FgAwKQAiyG93oRvZ3SWq+TYnbPUQNHGMucyGFE2k+MDJANsC4wgOQxu0ln8CMBXvGSwhAnS5KlaJvwAI9sOzcJWcPkpsYEr6pB7w2ZhdhZmGHUbnJa4jp7p1HRw8TLjOhlFagCeoW5vR5k9Li1LKpmaUXTC5d0+W/87a7cMnE0j0m1tg4ohG/3cpZv2LWHTEsVEceJzuvIGxwIiqBkgTh8iiHRO8T9IpLoWYliB4PcBjhpU5Y64Ukx8LoDwpBmmqMmvMUBIKbDQBXP26mHM0kZQCMw5qtH3Z6k1KphkcPo5ZwfZHvJ+hYbA8N0wHWgqfaGkDp3G03ASMvxAxc2RkBnNH8vsIQIhz9qlWrrGTfVVj5cgEWZKeddpp3ozR6VyMTuYy39mypvN3GolBHQlKe5tjxDgi7rjgnZHERs2OwA6BNlk0rDLdLZDzAyDgcDRv4PNmHo7xszecdpPknD3xebpbdYGgyG/FYS4KkAhmZnhAeXQLDrs0o9NrRkxOTBABRUa0rkr30twP1OsihOwFg+5xf/qNhnttS51nSZG3S6DId7IkcI4JRhFCM8ULJSxiMPof0q0dKDZl8jzReFY087y6FJVggw6WZRKlJmpp8SEYqoVHDzO+KorwkA1zXd9qyY085bCS1df7hzYmZye5Ma+c3uG9LCnOrl//r0uOg101eR7k24tc6VxB4uEl3f/G/pTLkIOW5F1wyfeFOf9n1qAOO32HZrt0+sct33a5wqYTpb75gXiu799/Mupzi6wdJzUbAN+4GiUR4iRsRYwk58Qk1CUII6hIootYS8kh3kBGRyTi6eAcjTO6trbfqirQI75lwMVAvMuzkJEPR5SrNJ3JOSWxzB8+k/D4snFjQ4CpBmpL4qlWr5DUvMfKRWk61iNmD0iHIFSQuZzHbuggxKL3Wkre9aJiR5AWg0dtSGc33N171ZLcLKZ9KfD7h1mvrIWm6BUv2YQZTSaOlgoYiktMER2M1seiFD8blPUvcdtnj2E4S5WNdN6SSSAwOMS5yzIWbO5ee5jHL25BtV71lZgZKBR6jUvYE36+JShMZXR6E7jQlFNqlzhhMIAmGaWjgCOxifmLCjaHLXK9fzRqM61G9GZfAsCeVDe2LV6xYYfuJILahwSuza8rpEmts8KE42KS7wbTjO+igg+DzbtqLDo+fPAjZ5mI3bznoij0ARlIRIIqwx05IJVpavXAPLDt3x3NGqQdJLQmtq5XMaAfMpkGO7zpm8V3mWguDBkWXsmbp1NKZye0utLubvFBam5n0WFw6vWTNxF92kCu7VOl/PmAJT/6ziDqzLpSFlHUlQXg4+4hfRJIioGWu5zznOda8iPFk9qkBZLKG0MTu0OT9bGIXxgnI+cu7Rd+76V25ciViAxF8CpkV5WOtRJOkg4w0SkPvcOQLL4VM6cYyJjMS0Cgs1MxwADC2AJKRFWuluSRybsr6JDBCLCcH1cc97nG+7Pe20SGOamlLinGJTkjOzuitKMXw5TuKuAss+5PMORIrpOM2Sn7Tixe9ZjeFg2s420MFDKl34IxuJ2VLmCEHqS5AlpGL+ZMf2MZOr0pdseHCokZJmrFkRrzckEqYJBOxwRkzX/DoHUjtZpNbAs9VxzC9kWnfZA+VlwMw9s4kxACqGYY+NmDJLNjtOm7La/AwmiwEK9zLNkIcGlzyuhLxwwkRxWZXCiLNwZZAjyuTJYN75uGyuSOELlMp73t5zRs2uTbpLlvs4rlaL7LYFksoNSluHkQ1y2MD4XrZ72lNCGM0W1mUB5YtGbetksDs0JbYkLm6WytvNkYHmO5AOwjZIG3WujAaJDDkJkYzhRCf5Nm+LZ1YtmZ6qRnrPgT0VmNWsPVDQ+q1mhb5X1El5hyFPNJlK5FkW+TYKPdZ/8Io0S8v2DWwCiaPemGUSJLXIEWY4FOLVPEqnjzh/RggI1IjVicuE3xjLaWCSciUcFHnxO0c5Fik157U4tHFMJRxVEVzAc5lhmAtMcknHZEZgdFrMUvu8vULXvACX6sgZr9FQjgWH4vZhoTeijIcw3dt5F89svnyDxb5lMypzTcWJGfKDNAmixwmwdR42WkPqERvv5abfB6YNRnL41syTQpFy5cvZ6TNnWYEhixwqSDTCdQrI5ss6RsxMkIQxI0ICogBURQ4UxzJuNgfD8vIRi0eYDx1vIlGn/EiJlBNhexMoy5cUsk+++yTbxt9sGnnRThKXNHlLbMwszt20+p+NtlHso5SU+D1FOJcMhDuG0MPIVy84Xjr5RKrTJCmXkUedOGYHw5GhTrmMcNjkvYMkIqMWkqluogbwDOZfTXn82ph4pzqtYa7dNWvB83uE2Sx4RuWQT7qPqkDqH1xkloaA3gb60IOcsnkTNc10WGqhpmYkvLkR5IGX7pMTy3pvnTppHdlxjsQaXBtXu2eYYsrGZ7ajsBhxOryjDVgmcL2zbCJE8F+cOqIhCweUetCJkBRZnloiieRmgOI1OAj2CwzAVpmCb6wkzC26JVfZJlwqcknx4GREPLZQxEYMolAE0AaXoy6ADKv5co80uyAmBcbkIXAexu7WjupGClNW3iIDYouzwCnMF1GDYmLlkc96lFWl49pSaDRIwGSrpw6qbAhihm4FDD7EUT1aE2yfBEDMt5yJvZ3vOMdDrZuIY2acJhRCcHo8sbT2d8miMy5yAqPPoriLrCBxEVgBkcXn9gtwvOJJyJnlgTWmkoFJs4HZKTO+wBIGzpyjM6FQNRp2ta5RfGWVrLLu3hPnfRKkWbEw4bGOBy9sfvgxg/dbHL5GaUHj/weFmaY6PxuF4vCDFYBMjUZCxsGxk6RBo8rA6zhNGCBHpg89PS9BzdyFzvGYh44dPZtrObkdJfPBnlwVnLmBm93k9fVF0nI4RdeartgcgfJcdmMl54+/8M0uWxq2Y7nXe7I/U/YcWL3pTkRDxZUsupEtwFcXGGqCBMEwhqn6BRSjgPOHd4J2lu5w0546Q1xFGSR4BVM8NjZp+gVZ0qaCASohV1axB/eCBmq6dLLGAumusgnDXswmmhiCTlsQx8LkaGJXgTeLXhp6JbHIz1KEUQ+ayMnxO6/vGQkzWbBkPuKCMdS2tNllTqoSpG6bGRWrFhhe+VeyRqWpPJLg5jEDKUcGPaqdcUtCGI8G8gExzyU2UOFshhHAQPBpdYVIAJHKYcwWCQ+uaBUlOpQxkV9D5TrhlRkIvwLNI6ZpHm9ziEltoZGIKRhcqNXTPC+uVGIZQalMOU9evNUQC84zzzzTPFJLydzuyeQ9xtYKHXxmiDUGwtTZxRs01uSIcuwEFySazNSU+lBzueaSiY9MP90wBEn7zfYqElQg/ena2siyoODVSjdde8e7OCCDwFFPG+btrZ5UbzCKFNLtvdNyuTMBT4/7j5W9nZ2arvtz7/MEQcet93E5fLKYpD3HHglEeyzX2+V9vmBxARFxiLuxYQ4qPUJrtEOzOl2diEmFi8467OvBVITY0JKbZOVL0uCD0GfpWDvT21qNAkPcZyeeK2aUvjIL172Z4MTvO9L8nWLa6N8nhLLM2Q0GVqQhAxJiy74IqjVgjJKYxuYTN9M2Ai7enPx5E4qjHiLJiyjdYmNHPQMwwi/8CWaQZUoACG8NKquMKUCBqzEISHIGBkTfJADqm5yh/BxXWqfRptu5333dM7+ZUMsjC6KxgJ9ZNFDpmR0ZQ8AHpmtt8+kXde6Iuz3xp7wwrO55rRCZVb0Jf4/5TeeWEfK+92Mr+3tPrq0lXpwmPUZyuyqWOvM2sldhPc2V2bo4m0Qcx1lL1EyQpma8MZWx5SM6ZQL43y8ZM32e+5y1aUTO3QCMHXxk5Tnv4vb5VVYACriwcLLPqt6BZbeCvQ+cWfAYLX0YzT0iWyivBV1DSf6O/tHkgtMFd95SBlybl9mzEjEB1ZjiT2hrFWkS+i7PncdjsD1ljujivVi1wVWyKEuxqs1a5WCg6dCCQsgA4nGLB5ITdLQ4OozlmHBD9XphTQ6vGGPHDLhQ5CxD/GONrGkZAh9e4aIkZVhhMutIYijwlhKNRGHvmzTREARINL86MJLcNdnsh4yr1nzSTaZaEJJiyY4I9XMHpYELDE7NvTrUpTpQImxJKQXBmAg8UD11kgjMGRmnBClnu7wl+RSXuKE+VPesp1n9qxkN5vyBmkoiydRQlzRrJm5oHut4VXF7FHXPxAwBaOehO3u+wZf7VU9092edDtEHyVP2+h1E4pq6S6DfDeb7JL6knMXN3EVGUxVKg5yrqQLxlgqMgKHmCbNvoRg9IpdjAAYUejbeuGIUnwTBdA71lB3/3rpDW/WAEz0woMrdkkAx9RaOVhcgbncIcFtnc/r0oUyqvtCSCOEMTE46jTh1Sj1xpjYU/QB9PYvziARMxUxURksGk0FMFq4Jb5NHVOjPXUGm95R9sLQq2CJIjbo0iyCIQBZ7ESTNJEJoijDDzua+AQ9+XFU+T9dKHUhcK73osN9n++W3NZ5jxHKyqeRUE3CCTR90RLhpEUsMnh1XKQ3NsQwdZmRUaeZmiIEGCMKb0TFzjgTvE6vEtLKkAc86HwzmVxTdUfDyxcntRhEoXR2oaQ2OM4Kk0GKk+oGCa5Ld92vcfVehOleUHQpz8/MzFG3y+v+MzHzt7vvNsB3u8S1JRrnjPK1ZMP/JTDRlvVW3fCCTFNvFk8BkGJI3Q96zQRlccEoeCs6NROIoRn0j6+yDPQVb9kTBsYQogB0sSSUmr4acenjis2LlCTEIR0ZSAZOQlkYTAYLjytKg1fTAl+LsIyEVPpaGGNFBRkh/d6C05WxQPaFlPC4WlcMK94+kBHBxFTEKX2aPtynR1kWFj5jxFJRMdRVLKXUFz9+cudKzs5a1ou64tLMiDCmi94AVffPm+Vko8aClz+jtEICY6T1RZXlIS77EfdlltIGxI3lw/l3eZNTXcq7eBlcrZnpi2Nn50Y6G0xSl5gyWyFD381Q96OL2YAIMDnV/YMi0o56xj9h0NUy4tRue1xmls46mdW0PimPvHDXgMWWIEuzHy4ogxwKqcR05ISgs3HtIWXWtLWD1TXPukUcaQVUM3LSZEBSTy0heotyLgAeWRkQsiImvwaOJmTqjKjIauzoCw4wYJqlD3uNouRkFKN15IesP6i+llGuUUxyQSToXadeNCHuewOXJg/XqCMKHpAEBB6dx76QYuFABX2fBQyJJiyaYBjNjrrXBa8UfZrBBEbcH2+0RA6Cvqgii9JqlsxLMtD38LpS3mCzkznru4xby+MABCmhMRNrEZW4ZmlCXCz9JpnFlVuSSGt180DzQPPAhntAepGapDwPPNJq6wOpwKgXd4oM24Zb1iQ0DzQPNA/8VTywoJQnd/5VjGtKmweaB5oHNq4H1vFFSEt2G9fdTVrzQPPAX8sDOaQuaJcXE9up9q81VU1v80DzwMbywCJSHpUt620svzc5zQPNA5vfAzLY4lLe5jexaWweaB5oHtiIHmgpbyM6s4lqHmge2NI9sI7XF6Pm52yb1xp9OJQw/Tce1YRUQj8qs2GaB5oHmgc20APJMOp8bZ6azH7a6Xo3UE1jbx5oHmge2KI80M9xfThGtpS3RU1WM6Z5oHlg03qgpbxN698mvXmgeWDL8YBN3yZPeXQoxpx6yxl8s6R5oHlgW/LAUJ7p8s4g8wyNcZOnvOgbq3vIlNZsHmgeaB7Y6B4YSj6bKeXVMIbUF74BzQPNA80Dm8gD/bSzuVPeJhpSE9s80DzQPFAe6Oe4IAszZ8orCgzglDD7tqUvWlc1AwTTZyk8ZP0jVkNcrdk80DzQPLCBHsh3eUlBQ6kmGWnOlLeBikfZY0TwfXiUsmGaB5oHmgc23APZnCXbVM6ZL+UV0aJ0DynAu35yFqW0ETcPNA9ckj3QP3ryw1DOqWa3B1y4m0po8Q/xzoXvW1BChnjTnL93LEtDNg80DzQP9D0wTyJCNmfK67P1M1EfX2rGIqt3FEDflzlK0DDNA80DzQObwgNzprwhZfNkqLnyXR8P7jcjfFTmKM2QGa3ZPNA80DwwvweSWAYpZ0zaWWjKm19H9SZnLSRzxazRrFeiGtA80DzQPLBAD1TO6SeWQvaFbOSU1xcNHquyaFq+K1c0oHmgeWDDPdDPd3NJ+3+kBwXVllBjJQAAAABJRU5ErkJggg==;" vertex="1" parent="FmyyQE03RjyA75EerIXR-119">
          <mxGeometry x="1060" y="1500" width="422" height="680" as="geometry" />
        </mxCell>
        <mxCell id="FmyyQE03RjyA75EerIXR-298" style="edgeStyle=orthogonalEdgeStyle;rounded=0;orthogonalLoop=1;jettySize=auto;html=1;shadow=0;" edge="1" parent="FmyyQE03RjyA75EerIXR-119" source="FmyyQE03RjyA75EerIXR-290" target="FmyyQE03RjyA75EerIXR-291">
          <mxGeometry relative="1" as="geometry" />
        </mxCell>
        <mxCell id="FmyyQE03RjyA75EerIXR-290" value="" style="rounded=0;whiteSpace=wrap;html=1;fillColor=#f5f5f5;strokeColor=#666666;fontColor=#333333;" vertex="1" parent="FmyyQE03RjyA75EerIXR-119">
          <mxGeometry x="-660" y="-760" width="600" height="120" as="geometry" />
        </mxCell>
        <mxCell id="FmyyQE03RjyA75EerIXR-291" value="Schedule" style="ellipse;whiteSpace=wrap;html=1;rounded=0;fillColor=#ffffff;" vertex="1" parent="FmyyQE03RjyA75EerIXR-119">
          <mxGeometry x="-20" y="-739" width="120" height="80" as="geometry" />
        </mxCell>
        <mxCell id="FmyyQE03RjyA75EerIXR-292" value="" style="rounded=0;whiteSpace=wrap;html=1;fillColor=#f8cecc;strokeColor=#b85450;" vertex="1" parent="FmyyQE03RjyA75EerIXR-119">
          <mxGeometry x="-660" y="-930" width="600" height="130" as="geometry" />
        </mxCell>
        <mxCell id="FmyyQE03RjyA75EerIXR-293" value="" style="strokeWidth=2;html=1;shape=mxgraph.flowchart.database;whiteSpace=wrap;rounded=0;fillColor=#ffffff;" vertex="1" parent="FmyyQE03RjyA75EerIXR-119">
          <mxGeometry x="-430" y="-620" width="110" height="60" as="geometry" />
        </mxCell>
        <mxCell id="FmyyQE03RjyA75EerIXR-294" value="front" style="text;html=1;strokeColor=none;fillColor=none;align=center;verticalAlign=middle;whiteSpace=wrap;rounded=0;" vertex="1" parent="FmyyQE03RjyA75EerIXR-119">
          <mxGeometry x="-395" y="-930" width="40" height="20" as="geometry" />
        </mxCell>
        <mxCell id="FmyyQE03RjyA75EerIXR-295" value="backend" style="text;html=1;strokeColor=none;fillColor=none;align=center;verticalAlign=middle;whiteSpace=wrap;rounded=0;" vertex="1" parent="FmyyQE03RjyA75EerIXR-119">
          <mxGeometry x="-389" y="-740" width="40" height="20" as="geometry" />
        </mxCell>
        <mxCell id="FmyyQE03RjyA75EerIXR-305" style="edgeStyle=orthogonalEdgeStyle;rounded=0;orthogonalLoop=1;jettySize=auto;html=1;shadow=0;" edge="1" parent="FmyyQE03RjyA75EerIXR-119" source="FmyyQE03RjyA75EerIXR-296" target="FmyyQE03RjyA75EerIXR-291">
          <mxGeometry relative="1" as="geometry" />
        </mxCell>
        <mxCell id="FmyyQE03RjyA75EerIXR-296" value="Aone" style="ellipse;shape=cloud;whiteSpace=wrap;html=1;rounded=0;fillColor=#ffffff;" vertex="1" parent="FmyyQE03RjyA75EerIXR-119">
          <mxGeometry x="62" y="-860" width="120" height="80" as="geometry" />
        </mxCell>
        <mxCell id="FmyyQE03RjyA75EerIXR-299" value="record" style="rounded=0;whiteSpace=wrap;html=1;fillColor=#ffffff;" vertex="1" parent="FmyyQE03RjyA75EerIXR-119">
          <mxGeometry x="-640" y="-709" width="120" height="50" as="geometry" />
        </mxCell>
        <mxCell id="FmyyQE03RjyA75EerIXR-300" value="project" style="rounded=0;whiteSpace=wrap;html=1;fillColor=#ffffff;" vertex="1" parent="FmyyQE03RjyA75EerIXR-119">
          <mxGeometry x="-500" y="-709" width="120" height="50" as="geometry" />
        </mxCell>
        <mxCell id="FmyyQE03RjyA75EerIXR-301" value="sprint" style="rounded=0;whiteSpace=wrap;html=1;fillColor=#ffffff;" vertex="1" parent="FmyyQE03RjyA75EerIXR-119">
          <mxGeometry x="-360" y="-709" width="120" height="50" as="geometry" />
        </mxCell>
        <mxCell id="FmyyQE03RjyA75EerIXR-302" value="module" style="rounded=0;whiteSpace=wrap;html=1;fillColor=#ffffff;" vertex="1" parent="FmyyQE03RjyA75EerIXR-119">
          <mxGeometry x="-220" y="-709" width="120" height="50" as="geometry" />
        </mxCell>
        <mxCell id="FmyyQE03RjyA75EerIXR-307" value="overview" style="rounded=0;whiteSpace=wrap;html=1;fillColor=#ffffff;" vertex="1" parent="FmyyQE03RjyA75EerIXR-119">
          <mxGeometry x="-640" y="-890" width="120" height="50" as="geometry" />
        </mxCell>
        <mxCell id="FmyyQE03RjyA75EerIXR-308" value="product" style="rounded=0;whiteSpace=wrap;html=1;fillColor=#ffffff;" vertex="1" parent="FmyyQE03RjyA75EerIXR-119">
          <mxGeometry x="-500" y="-890" width="120" height="50" as="geometry" />
        </mxCell>
        <mxCell id="FmyyQE03RjyA75EerIXR-309" value="customer" style="rounded=0;whiteSpace=wrap;html=1;fillColor=#ffffff;" vertex="1" parent="FmyyQE03RjyA75EerIXR-119">
          <mxGeometry x="-360" y="-890" width="120" height="50" as="geometry" />
        </mxCell>
        <mxCell id="FmyyQE03RjyA75EerIXR-310" value="developer" style="rounded=0;whiteSpace=wrap;html=1;fillColor=#ffffff;" vertex="1" parent="FmyyQE03RjyA75EerIXR-119">
          <mxGeometry x="-220" y="-890" width="120" height="50" as="geometry" />
        </mxCell>
        <mxCell id="FmyyQE03RjyA75EerIXR-312" value="" style="rounded=0;whiteSpace=wrap;html=1;fillColor=#dae8fc;strokeColor=#6c8ebf;" vertex="1" parent="FmyyQE03RjyA75EerIXR-119">
          <mxGeometry x="-938" y="2660" width="1360" height="170" as="geometry" />
        </mxCell>
        <mxCell id="FmyyQE03RjyA75EerIXR-313" value="数据迁移" style="text;html=1;strokeColor=none;fillColor=none;align=center;verticalAlign=middle;whiteSpace=wrap;rounded=0;dashed=1;" vertex="1" parent="FmyyQE03RjyA75EerIXR-119">
          <mxGeometry x="-928" y="2660" width="60" height="20" as="geometry" />
        </mxCell>
        <mxCell id="FmyyQE03RjyA75EerIXR-314" value="预检查" style="rounded=0;whiteSpace=wrap;html=1;dashed=1;" vertex="1" parent="FmyyQE03RjyA75EerIXR-119">
          <mxGeometry x="-908" y="2690" width="140" height="60" as="geometry" />
        </mxCell>
        <mxCell id="FmyyQE03RjyA75EerIXR-315" value="结构迁移" style="rounded=0;whiteSpace=wrap;html=1;dashed=1;" vertex="1" parent="FmyyQE03RjyA75EerIXR-119">
          <mxGeometry x="-748" y="2690" width="140" height="60" as="geometry" />
        </mxCell>
        <mxCell id="FmyyQE03RjyA75EerIXR-316" value="全量迁移" style="rounded=0;whiteSpace=wrap;html=1;dashed=1;" vertex="1" parent="FmyyQE03RjyA75EerIXR-119">
          <mxGeometry x="-588" y="2690" width="140" height="60" as="geometry" />
        </mxCell>
        <mxCell id="FmyyQE03RjyA75EerIXR-317" value="增量迁移" style="rounded=0;whiteSpace=wrap;html=1;dashed=1;" vertex="1" parent="FmyyQE03RjyA75EerIXR-119">
          <mxGeometry x="-428" y="2690" width="140" height="60" as="geometry" />
        </mxCell>
        <mxCell id="FmyyQE03RjyA75EerIXR-318" value="增量迁移" style="rounded=0;whiteSpace=wrap;html=1;dashed=1;" vertex="1" parent="FmyyQE03RjyA75EerIXR-119">
          <mxGeometry x="-268" y="2690" width="140" height="60" as="geometry" />
        </mxCell>
        <mxCell id="FmyyQE03RjyA75EerIXR-319" value="全量校验" style="rounded=0;whiteSpace=wrap;html=1;dashed=1;" vertex="1" parent="FmyyQE03RjyA75EerIXR-119">
          <mxGeometry x="-108" y="2690" width="140" height="60" as="geometry" />
        </mxCell>
        <mxCell id="FmyyQE03RjyA75EerIXR-320" value="正向切换" style="rounded=0;whiteSpace=wrap;html=1;dashed=1;" vertex="1" parent="FmyyQE03RjyA75EerIXR-119">
          <mxGeometry x="52" y="2690" width="140" height="60" as="geometry" />
        </mxCell>
        <mxCell id="FmyyQE03RjyA75EerIXR-322" value="" style="rounded=0;whiteSpace=wrap;html=1;fillColor=#dae8fc;strokeColor=#6c8ebf;" vertex="1" parent="FmyyQE03RjyA75EerIXR-119">
          <mxGeometry x="-938" y="2860" width="1360" height="110" as="geometry" />
        </mxCell>
        <mxCell id="FmyyQE03RjyA75EerIXR-323" value="数据同步" style="text;html=1;strokeColor=none;fillColor=none;align=center;verticalAlign=middle;whiteSpace=wrap;rounded=0;dashed=1;" vertex="1" parent="FmyyQE03RjyA75EerIXR-119">
          <mxGeometry x="-928" y="2861" width="60" height="20" as="geometry" />
        </mxCell>
        <mxCell id="FmyyQE03RjyA75EerIXR-324" value="预检查" style="rounded=0;whiteSpace=wrap;html=1;dashed=1;" vertex="1" parent="FmyyQE03RjyA75EerIXR-119">
          <mxGeometry x="-908" y="2890" width="140" height="60" as="geometry" />
        </mxCell>
        <mxCell id="FmyyQE03RjyA75EerIXR-325" value="结构同步" style="rounded=0;whiteSpace=wrap;html=1;dashed=1;" vertex="1" parent="FmyyQE03RjyA75EerIXR-119">
          <mxGeometry x="-748" y="2890" width="140" height="60" as="geometry" />
        </mxCell>
        <mxCell id="FmyyQE03RjyA75EerIXR-327" value="全量同步" style="rounded=0;whiteSpace=wrap;html=1;dashed=1;" vertex="1" parent="FmyyQE03RjyA75EerIXR-119">
          <mxGeometry x="-588" y="2890" width="140" height="60" as="geometry" />
        </mxCell>
        <mxCell id="FmyyQE03RjyA75EerIXR-328" value="增量同步" style="rounded=0;whiteSpace=wrap;html=1;dashed=1;" vertex="1" parent="FmyyQE03RjyA75EerIXR-119">
          <mxGeometry x="-428" y="2890" width="140" height="60" as="geometry" />
        </mxCell>
        <mxCell id="FmyyQE03RjyA75EerIXR-329" value="逻辑表 -&amp;gt; 数据库" style="rounded=0;whiteSpace=wrap;html=1;dashed=1;" vertex="1" parent="FmyyQE03RjyA75EerIXR-119">
          <mxGeometry x="-270" y="2890" width="140" height="60" as="geometry" />
        </mxCell>
        <mxCell id="FmyyQE03RjyA75EerIXR-330" value="单/多/逻辑表 -&amp;gt; 大数据" style="rounded=0;whiteSpace=wrap;html=1;dashed=1;" vertex="1" parent="FmyyQE03RjyA75EerIXR-119">
          <mxGeometry x="-108" y="2890" width="140" height="60" as="geometry" />
        </mxCell>
        <mxCell id="FmyyQE03RjyA75EerIXR-343" value="指定对象迁移" style="rounded=0;whiteSpace=wrap;html=1;dashed=1;" vertex="1" parent="FmyyQE03RjyA75EerIXR-119">
          <mxGeometry x="220" y="2690" width="140" height="60" as="geometry" />
        </mxCell>
        <mxCell id="FmyyQE03RjyA75EerIXR-344" value="导入对象迁移" style="rounded=0;whiteSpace=wrap;html=1;dashed=1;" vertex="1" parent="FmyyQE03RjyA75EerIXR-119">
          <mxGeometry x="-907" y="2760" width="140" height="60" as="geometry" />
        </mxCell>
        <mxCell id="FmyyQE03RjyA75EerIXR-346" value="同步列表" style="rounded=0;whiteSpace=wrap;html=1;dashed=1;" vertex="1" parent="FmyyQE03RjyA75EerIXR-119">
          <mxGeometry x="52" y="2890" width="140" height="60" as="geometry" />
        </mxCell>
        <mxCell id="FmyyQE03RjyA75EerIXR-347" value="迁移列表" style="rounded=0;whiteSpace=wrap;html=1;dashed=1;" vertex="1" parent="FmyyQE03RjyA75EerIXR-119">
          <mxGeometry x="-748" y="2760" width="140" height="60" as="geometry" />
        </mxCell>
        <mxCell id="FmyyQE03RjyA75EerIXR-348" value="汇聚/合并/etl" style="rounded=0;whiteSpace=wrap;html=1;dashed=1;" vertex="1" parent="FmyyQE03RjyA75EerIXR-119">
          <mxGeometry x="-587" y="2760" width="140" height="60" as="geometry" />
        </mxCell>
        <mxCell id="FmyyQE03RjyA75EerIXR-349" value="汇聚/合并/etl" style="rounded=0;whiteSpace=wrap;html=1;dashed=1;" vertex="1" parent="FmyyQE03RjyA75EerIXR-119">
          <mxGeometry x="212" y="2890" width="140" height="60" as="geometry" />
        </mxCell>
        <mxCell id="FmyyQE03RjyA75EerIXR-350" value="" style="rounded=0;whiteSpace=wrap;html=1;fillColor=#d5e8d4;strokeColor=#82b366;" vertex="1" parent="FmyyQE03RjyA75EerIXR-119">
          <mxGeometry x="452" y="2660" width="170" height="590" as="geometry" />
        </mxCell>
        <mxCell id="FmyyQE03RjyA75EerIXR-352" value="灰度发布" style="rounded=0;whiteSpace=wrap;html=1;fillColor=#ffffff;dashed=1;" vertex="1" parent="FmyyQE03RjyA75EerIXR-119">
          <mxGeometry x="477" y="2690" width="120" height="50" as="geometry" />
        </mxCell>
        <mxCell id="FmyyQE03RjyA75EerIXR-353" value="差异渲染" style="rounded=0;whiteSpace=wrap;html=1;fillColor=#ffffff;dashed=1;" vertex="1" parent="FmyyQE03RjyA75EerIXR-119">
          <mxGeometry x="477" y="2780" width="120" height="50" as="geometry" />
        </mxCell>
        <mxCell id="FmyyQE03RjyA75EerIXR-354" value="" style="rounded=0;whiteSpace=wrap;html=1;dashed=1;fillColor=#ffffff;" vertex="1" parent="FmyyQE03RjyA75EerIXR-119">
          <mxGeometry x="552" y="2600" width="70" height="30" as="geometry" />
        </mxCell>
        <mxCell id="FmyyQE03RjyA75EerIXR-355" value="新增：" style="text;html=1;strokeColor=none;fillColor=none;align=center;verticalAlign=middle;whiteSpace=wrap;rounded=0;dashed=1;" vertex="1" parent="FmyyQE03RjyA75EerIXR-119">
          <mxGeometry x="502" y="2605" width="40" height="20" as="geometry" />
        </mxCell>
        <mxCell id="FmyyQE03RjyA75EerIXR-358" value="用户引导" style="rounded=0;whiteSpace=wrap;html=1;fillColor=#ffffff;dashed=1;" vertex="1" parent="FmyyQE03RjyA75EerIXR-119">
          <mxGeometry x="477" y="2870" width="120" height="50" as="geometry" />
        </mxCell>
        <mxCell id="FmyyQE03RjyA75EerIXR-359" value="" style="rounded=0;whiteSpace=wrap;html=1;fillColor=#f5f5f5;strokeColor=#666666;fontColor=#333333;" vertex="1" parent="FmyyQE03RjyA75EerIXR-119">
          <mxGeometry x="-913" y="1240" width="1360" height="110" as="geometry" />
        </mxCell>
        <mxCell id="FmyyQE03RjyA75EerIXR-360" value="数据源" style="text;html=1;strokeColor=none;fillColor=none;align=center;verticalAlign=middle;whiteSpace=wrap;rounded=0;dashed=1;" vertex="1" parent="FmyyQE03RjyA75EerIXR-119">
          <mxGeometry x="-903" y="1240" width="60" height="20" as="geometry" />
        </mxCell>
        <mxCell id="FmyyQE03RjyA75EerIXR-361" value="Oceanbase" style="rounded=0;whiteSpace=wrap;html=1;dashed=1;" vertex="1" parent="FmyyQE03RjyA75EerIXR-119">
          <mxGeometry x="-883" y="1270" width="140" height="60" as="geometry" />
        </mxCell>
        <mxCell id="FmyyQE03RjyA75EerIXR-362" value="Oracle" style="rounded=0;whiteSpace=wrap;html=1;" vertex="1" parent="FmyyQE03RjyA75EerIXR-119">
          <mxGeometry x="-723" y="1270" width="140" height="60" as="geometry" />
        </mxCell>
        <mxCell id="FmyyQE03RjyA75EerIXR-363" value="MySQL" style="rounded=0;whiteSpace=wrap;html=1;" vertex="1" parent="FmyyQE03RjyA75EerIXR-119">
          <mxGeometry x="-563" y="1270" width="140" height="60" as="geometry" />
        </mxCell>
        <mxCell id="FmyyQE03RjyA75EerIXR-364" value="Kafka" style="rounded=0;whiteSpace=wrap;html=1;dashed=1;" vertex="1" parent="FmyyQE03RjyA75EerIXR-119">
          <mxGeometry x="-400" y="1270" width="140" height="60" as="geometry" />
        </mxCell>
        <mxCell id="FmyyQE03RjyA75EerIXR-365" value="RocketMQ" style="rounded=0;whiteSpace=wrap;html=1;" vertex="1" parent="FmyyQE03RjyA75EerIXR-119">
          <mxGeometry x="-240" y="1270" width="140" height="60" as="geometry" />
        </mxCell>
        <mxCell id="FmyyQE03RjyA75EerIXR-366" value="SysBase" style="rounded=0;whiteSpace=wrap;html=1;" vertex="1" parent="FmyyQE03RjyA75EerIXR-119">
          <mxGeometry x="-80" y="1270" width="140" height="60" as="geometry" />
        </mxCell>
        <mxCell id="FmyyQE03RjyA75EerIXR-367" value="Datahub" style="rounded=0;whiteSpace=wrap;html=1;dashed=1;" vertex="1" parent="FmyyQE03RjyA75EerIXR-119">
          <mxGeometry x="80" y="1270" width="140" height="60" as="geometry" />
        </mxCell>
        <mxCell id="FmyyQE03RjyA75EerIXR-368" value="规格实例" style="rounded=0;whiteSpace=wrap;html=1;fillColor=#f8cecc;strokeColor=#b85450;dashed=1;" vertex="1" parent="FmyyQE03RjyA75EerIXR-119">
          <mxGeometry x="-942" y="3140" width="632" height="110" as="geometry" />
        </mxCell>
        <mxCell id="FmyyQE03RjyA75EerIXR-373" value="告警消息" style="rounded=0;whiteSpace=wrap;html=1;fillColor=#fff2cc;strokeColor=#d6b656;dashed=1;" vertex="1" parent="FmyyQE03RjyA75EerIXR-119">
          <mxGeometry x="-241.5" y="3140" width="660" height="110" as="geometry" />
        </mxCell>
        <mxCell id="FmyyQE03RjyA75EerIXR-379" value="" style="rounded=0;whiteSpace=wrap;html=1;fillColor=#f5f5f5;strokeColor=#666666;fontColor=#333333;" vertex="1" parent="FmyyQE03RjyA75EerIXR-119">
          <mxGeometry x="-937" y="3000" width="1355.5" height="110" as="geometry" />
        </mxCell>
        <mxCell id="FmyyQE03RjyA75EerIXR-380" value="数据源" style="text;html=1;strokeColor=none;fillColor=none;align=center;verticalAlign=middle;whiteSpace=wrap;rounded=0;dashed=1;" vertex="1" parent="FmyyQE03RjyA75EerIXR-119">
          <mxGeometry x="-927" y="3000" width="60" height="20" as="geometry" />
        </mxCell>
        <mxCell id="FmyyQE03RjyA75EerIXR-381" value="Oceanbase" style="rounded=0;whiteSpace=wrap;html=1;dashed=1;" vertex="1" parent="FmyyQE03RjyA75EerIXR-119">
          <mxGeometry x="-907" y="3030" width="140" height="60" as="geometry" />
        </mxCell>
        <mxCell id="FmyyQE03RjyA75EerIXR-382" value="Oracle" style="rounded=0;whiteSpace=wrap;html=1;dashed=1;" vertex="1" parent="FmyyQE03RjyA75EerIXR-119">
          <mxGeometry x="-747" y="3030" width="140" height="60" as="geometry" />
        </mxCell>
        <mxCell id="FmyyQE03RjyA75EerIXR-383" value="MySQL" style="rounded=0;whiteSpace=wrap;html=1;dashed=1;" vertex="1" parent="FmyyQE03RjyA75EerIXR-119">
          <mxGeometry x="-587" y="3030" width="140" height="60" as="geometry" />
        </mxCell>
        <mxCell id="FmyyQE03RjyA75EerIXR-384" value="ADB" style="rounded=0;whiteSpace=wrap;html=1;dashed=1;" vertex="1" parent="FmyyQE03RjyA75EerIXR-119">
          <mxGeometry x="-424" y="3030" width="140" height="60" as="geometry" />
        </mxCell>
        <mxCell id="FmyyQE03RjyA75EerIXR-385" value="Kafka" style="rounded=0;whiteSpace=wrap;html=1;dashed=1;" vertex="1" parent="FmyyQE03RjyA75EerIXR-119">
          <mxGeometry x="-264" y="3030" width="140" height="60" as="geometry" />
        </mxCell>
        <mxCell id="FmyyQE03RjyA75EerIXR-389" value="DB2" style="rounded=0;whiteSpace=wrap;html=1;dashed=1;" vertex="1" parent="FmyyQE03RjyA75EerIXR-119">
          <mxGeometry x="240" y="1270" width="140" height="60" as="geometry" />
        </mxCell>
        <mxCell id="FmyyQE03RjyA75EerIXR-390" value="正向切换" style="rounded=0;whiteSpace=wrap;html=1;dashed=1;" vertex="1" parent="FmyyQE03RjyA75EerIXR-119">
          <mxGeometry x="-78" y="870" width="140" height="60" as="geometry" />
        </mxCell>
      </root>
    </mxGraphModel>
  </diagram>
</mxfile>
